M48
METRIC,LZ,000.000
;FILE_FORMAT=3:3
;TYPE=PLATED
;Layer: PTH_Through_Via
;EasyEDA v6.5.51, 2025-09-14 18:22:56
;65470a2a99dd484cb8e495e3fbabed1f,d25947a9a65e436e8dba57a0ec84572b,10
;Gerber Generator version 0.2
;Holesize 1 = 0.310 mm
T01C0.310
%
G05
G90
T01
X040767Y-013462
X059817Y-025273
X058547Y-028448
X056007Y-025273
X057277Y-028448
X056007Y-028448
X053467Y-028448
X052197Y-028448
X049657Y-028448
X048387Y-028448
X047117Y-028448
X045847Y-028448
X044577Y-028448
X043307Y-028448
X058547Y-038607
X057277Y-038607
X052197Y-038608
X050927Y-038608
X049657Y-038608
X044577Y-041783
X045847Y-041782
X043307Y-041783
X042037Y-041783
X059817Y-038608
X065786Y-038481
X063881Y-040132
X067056Y-038480
X068326Y-038481
X069596Y-038481
X070866Y-038481
X072136Y-038481
X073406Y-038481
X074676Y-038481
X075946Y-038481
X077216Y-038481
X082296Y-041783
X079756Y-041783
X050927Y-028448
X073025Y-028448
X068453Y-024384
X070739Y-025273
X067056Y-025273
X061068Y-025254
X076962Y-006858
X047498Y-041529
M30
