M48
METRIC,LZ,000.000
;FILE_FORMAT=3:3
;TYPE=PLATED
;Layer: PTH_Through
;EasyEDA v6.5.51, 2025-09-14 18:22:56
;65470a2a99dd484cb8e495e3fbabed1f,d25947a9a65e436e8dba57a0ec84572b,10
;Gerber Generator version 0.2
;Holesize 1 = 0.310 mm
T01C0.310
;Holesize 2 = 0.712 mm
T02C0.712
;Holesize 3 = 0.800 mm
T03C0.800
;Holesize 4 = 0.813 mm
T04C0.813
;Holesize 5 = 0.889 mm
T05C0.889
;Holesize 6 = 0.915 mm
T06C0.915
;Holesize 7 = 1.000 mm
T07C1.000
%
G05
G90
T01
X040767Y-013462
X059817Y-025273
X058547Y-028448
X056007Y-025273
X057277Y-028448
X056007Y-028448
X053467Y-028448
X052197Y-028448
X049657Y-028448
X048387Y-028448
X047117Y-028448
X045847Y-028448
X044577Y-028448
X043307Y-028448
X058547Y-038607
X057277Y-038607
X052197Y-038608
X050927Y-038608
X049657Y-038608
X044577Y-041783
X045847Y-041782
X043307Y-041783
X042037Y-041783
X059817Y-038608
X065786Y-038481
X063881Y-040132
X067056Y-038480
X068326Y-038481
X069596Y-038481
X070866Y-038481
X072136Y-038481
X073406Y-038481
X074676Y-038481
X075946Y-038481
X077216Y-038481
X082296Y-041783
X079756Y-041783
X050927Y-028448
X073025Y-028448
X068453Y-024384
X070739Y-025273
X067056Y-025273
X061068Y-025254
X076962Y-006858
X047498Y-041529
T02
X081026Y-023241
X083566Y-023241
X038227Y-029464
X038227Y-026924
X086360Y-020574
X088900Y-020574
X052705Y-012700
X052705Y-015240
X052451Y-002286
X052451Y-004826
T03
X082947Y-016510
X084947Y-016510
T04
X006601Y-014859G85X006607Y-014859
T05
X097028Y-031242
X097028Y-028702
T06
X004064Y-022860
X006604Y-022860
X009144Y-022860
X011684Y-022860
X014224Y-022860
X026924Y-022860
X024384Y-022860
X021844Y-022860
X019304Y-022860
X016764Y-022860
X039624Y-022860
X037084Y-022860
X034544Y-022860
X032004Y-022860
X029464Y-022860
X052324Y-022860
X049784Y-022860
X047244Y-022860
X044704Y-022860
X042164Y-022860
X004064Y-007620
X006604Y-007620
X009144Y-007620
X011684Y-007620
X014224Y-007620
X026924Y-007620
X024384Y-007620
X021844Y-007620
X019304Y-007620
X016764Y-007620
X039624Y-007620
X037084Y-007620
X034544Y-007620
X032004Y-007620
X029464Y-007620
X052324Y-007620
X049784Y-007620
X047244Y-007620
X044704Y-007620
X042164Y-007620
X001524Y-017145
X004064Y-017145
X006604Y-017145
X009144Y-017145
X011684Y-017145
X014224Y-017145
X016764Y-017145
X019304Y-017145
X021844Y-017145
X024384Y-017145
X026924Y-017145
X029464Y-017145
X032004Y-017145
X034544Y-017145
X037084Y-017145
X039624Y-017145
X042164Y-017145
X044704Y-017145
X047244Y-017145
X049784Y-017145
X049784Y-001905
X047244Y-001905
X044704Y-001905
X042164Y-001905
X039624Y-001905
X037084Y-001905
X034544Y-001905
X032004Y-001905
X029464Y-001905
X026924Y-001905
X024384Y-001905
X021844Y-001905
X019304Y-001905
X016764Y-001905
X014224Y-001905
X011684Y-001905
X009144Y-001905
X006604Y-001905
X004064Y-001905
X001524Y-001905
T07
X006604Y-013081
X014224Y-013081
X062992Y-007493
X070612Y-007493
X086200Y-023241
X086200Y-025781
X086200Y-038481
X086200Y-041021
X086200Y-028321
X086200Y-030861
X086200Y-035941
X086200Y-033401
X094140Y-041021
X094140Y-038481
X094140Y-035941
X094140Y-033401
X094140Y-030861
X094140Y-028321
X094140Y-025781
X094140Y-023241
X073303Y-004807
X073303Y-012427
X070763Y-004807
X070763Y-012427
X068223Y-004807
X068223Y-012427
X065683Y-004807
X065683Y-012427
X063143Y-004807
X063143Y-012427
X060603Y-004807
X060603Y-012427
X058063Y-004807
X058063Y-012427
X055523Y-004807
X055523Y-012427
X075843Y-012427
X075843Y-004807
X078383Y-012427
X078383Y-004807
X073303Y-015251
X073303Y-022871
X070763Y-015251
X070763Y-022871
X068223Y-015251
X068223Y-022871
X065683Y-015251
X065683Y-022871
X063143Y-015251
X063143Y-022871
X060603Y-015251
X060603Y-022871
X058063Y-015251
X058063Y-022871
X055523Y-015251
X055523Y-022871
X075843Y-022871
X075843Y-015251
X078383Y-022871
X078383Y-015251
M30
