G04 Layer: BottomSilkscreenLayer*
G04 EasyEDA v6.5.51, 2025-09-14 18:22:56*
G04 65470a2a99dd484cb8e495e3fbabed1f,d25947a9a65e436e8dba57a0ec84572b,10*
G04 Gerber Generator version 0.2*
G04 Scale: 100 percent, Rotated: No, Reflected: No *
G04 Dimensions in millimeters *
G04 leading zeros omitted , absolute positions ,4 integer and 5 decimal *
%FSLAX45Y45*%
%MOMM*%

%ADD10C,0.2032*%
%ADD11C,0.1524*%
%ADD12C,0.2540*%
%ADD13C,0.3000*%
%ADD14C,0.0108*%

%LPD*%
D10*
X2382062Y-1113073D02*
G01*
X2418427Y-1113073D01*
X2422062Y-1145799D01*
X2418427Y-1142164D01*
X2407518Y-1138527D01*
X2396609Y-1138527D01*
X2385700Y-1142164D01*
X2378428Y-1149436D01*
X2374790Y-1160345D01*
X2374790Y-1167617D01*
X2378428Y-1178526D01*
X2385700Y-1185799D01*
X2396609Y-1189436D01*
X2407518Y-1189436D01*
X2418427Y-1185799D01*
X2422062Y-1182164D01*
X2425700Y-1174889D01*
X2350790Y-1127617D02*
G01*
X2343518Y-1123983D01*
X2332609Y-1113073D01*
X2332609Y-1189436D01*
X2304973Y-1131255D02*
G01*
X2304973Y-1127617D01*
X2301336Y-1120345D01*
X2297699Y-1116708D01*
X2290427Y-1113073D01*
X2275883Y-1113073D01*
X2268608Y-1116708D01*
X2264973Y-1120345D01*
X2261336Y-1127617D01*
X2261336Y-1134889D01*
X2264973Y-1142164D01*
X2272245Y-1153073D01*
X2308608Y-1189436D01*
X2257699Y-1189436D01*
X2233701Y-1113073D02*
G01*
X2233701Y-1189436D01*
X2182792Y-1113073D02*
G01*
X2233701Y-1163982D01*
X2215517Y-1145799D02*
G01*
X2182792Y-1189436D01*
X2155154Y-1145799D02*
G01*
X2158791Y-1149436D01*
X2155154Y-1153073D01*
X2151519Y-1149436D01*
X2155154Y-1145799D01*
X2155154Y-1171254D02*
G01*
X2158791Y-1174889D01*
X2155154Y-1178526D01*
X2151519Y-1174889D01*
X2155154Y-1171254D01*
X2027882Y-1138527D02*
G01*
X2027882Y-1189436D01*
X2027882Y-1149436D02*
G01*
X2035154Y-1142164D01*
X2042429Y-1138527D01*
X2053336Y-1138527D01*
X2060610Y-1142164D01*
X2067882Y-1149436D01*
X2071519Y-1160345D01*
X2071519Y-1167617D01*
X2067882Y-1178526D01*
X2060610Y-1185799D01*
X2053336Y-1189436D01*
X2042429Y-1189436D01*
X2035154Y-1185799D01*
X2027882Y-1178526D01*
X1960247Y-1113073D02*
G01*
X1960247Y-1189436D01*
X1960247Y-1149436D02*
G01*
X1967519Y-1142164D01*
X1974791Y-1138527D01*
X1985700Y-1138527D01*
X1992972Y-1142164D01*
X2000247Y-1149436D01*
X2003882Y-1160345D01*
X2003882Y-1167617D01*
X2000247Y-1178526D01*
X1992972Y-1185799D01*
X1985700Y-1189436D01*
X1974791Y-1189436D01*
X1967519Y-1185799D01*
X1960247Y-1178526D01*
X1892609Y-1113073D02*
G01*
X1892609Y-1189436D01*
X1892609Y-1149436D02*
G01*
X1899881Y-1142164D01*
X1907156Y-1138527D01*
X1918065Y-1138527D01*
X1925337Y-1142164D01*
X1932609Y-1149436D01*
X1936247Y-1160345D01*
X1936247Y-1167617D01*
X1932609Y-1178526D01*
X1925337Y-1185799D01*
X1918065Y-1189436D01*
X1907156Y-1189436D01*
X1899881Y-1185799D01*
X1892609Y-1178526D01*
X1812610Y-1138527D02*
G01*
X1812610Y-1189436D01*
X1812610Y-1160345D02*
G01*
X1808972Y-1149436D01*
X1801700Y-1142164D01*
X1794428Y-1138527D01*
X1783519Y-1138527D01*
X1759518Y-1160345D02*
G01*
X1715884Y-1160345D01*
X1715884Y-1153073D01*
X1719519Y-1145799D01*
X1723156Y-1142164D01*
X1730428Y-1138527D01*
X1741337Y-1138527D01*
X1748609Y-1142164D01*
X1755884Y-1149436D01*
X1759518Y-1160345D01*
X1759518Y-1167617D01*
X1755884Y-1178526D01*
X1748609Y-1185799D01*
X1741337Y-1189436D01*
X1730428Y-1189436D01*
X1723156Y-1185799D01*
X1715884Y-1178526D01*
X1651883Y-1149436D02*
G01*
X1655518Y-1142164D01*
X1666427Y-1138527D01*
X1677337Y-1138527D01*
X1688246Y-1142164D01*
X1691883Y-1149436D01*
X1688246Y-1156708D01*
X1680974Y-1160345D01*
X1662793Y-1163982D01*
X1655518Y-1167617D01*
X1651883Y-1174889D01*
X1651883Y-1178526D01*
X1655518Y-1185799D01*
X1666427Y-1189436D01*
X1677337Y-1189436D01*
X1688246Y-1185799D01*
X1691883Y-1178526D01*
X1627883Y-1113073D02*
G01*
X1624246Y-1116708D01*
X1620611Y-1113073D01*
X1624246Y-1109436D01*
X1627883Y-1113073D01*
X1624246Y-1138527D02*
G01*
X1624246Y-1189436D01*
X1556611Y-1149436D02*
G01*
X1560248Y-1142164D01*
X1571155Y-1138527D01*
X1582064Y-1138527D01*
X1592973Y-1142164D01*
X1596610Y-1149436D01*
X1592973Y-1156708D01*
X1585701Y-1160345D01*
X1567520Y-1163982D01*
X1560248Y-1167617D01*
X1556611Y-1174889D01*
X1556611Y-1178526D01*
X1560248Y-1185799D01*
X1571155Y-1189436D01*
X1582064Y-1189436D01*
X1592973Y-1185799D01*
X1596610Y-1178526D01*
X1521701Y-1113073D02*
G01*
X1521701Y-1174889D01*
X1518066Y-1185799D01*
X1510792Y-1189436D01*
X1503519Y-1189436D01*
X1532610Y-1138527D02*
G01*
X1507157Y-1138527D01*
X1461338Y-1138527D02*
G01*
X1468610Y-1142164D01*
X1475884Y-1149436D01*
X1479519Y-1160345D01*
X1479519Y-1167617D01*
X1475884Y-1178526D01*
X1468610Y-1185799D01*
X1461338Y-1189436D01*
X1450428Y-1189436D01*
X1443156Y-1185799D01*
X1435884Y-1178526D01*
X1432247Y-1167617D01*
X1432247Y-1160345D01*
X1435884Y-1149436D01*
X1443156Y-1142164D01*
X1450428Y-1138527D01*
X1461338Y-1138527D01*
X1408247Y-1138527D02*
G01*
X1408247Y-1189436D01*
X1408247Y-1160345D02*
G01*
X1404612Y-1149436D01*
X1397337Y-1142164D01*
X1390065Y-1138527D01*
X1379156Y-1138527D01*
X2425700Y-1252773D02*
G01*
X2422062Y-1256408D01*
X2418427Y-1252773D01*
X2422062Y-1249136D01*
X2425700Y-1252773D01*
X2422062Y-1278227D02*
G01*
X2422062Y-1329136D01*
X2365336Y-1252773D02*
G01*
X2372608Y-1252773D01*
X2379880Y-1256408D01*
X2383518Y-1267317D01*
X2383518Y-1329136D01*
X2394427Y-1278227D02*
G01*
X2368971Y-1278227D01*
X2267155Y-1278227D02*
G01*
X2274427Y-1281864D01*
X2281699Y-1289136D01*
X2285337Y-1300045D01*
X2285337Y-1307317D01*
X2281699Y-1318226D01*
X2274427Y-1325499D01*
X2267155Y-1329136D01*
X2256246Y-1329136D01*
X2248971Y-1325499D01*
X2241699Y-1318226D01*
X2238065Y-1307317D01*
X2238065Y-1300045D01*
X2241699Y-1289136D01*
X2248971Y-1281864D01*
X2256246Y-1278227D01*
X2267155Y-1278227D01*
X2214064Y-1278227D02*
G01*
X2214064Y-1329136D01*
X2214064Y-1292773D02*
G01*
X2203155Y-1281864D01*
X2195883Y-1278227D01*
X2184974Y-1278227D01*
X2177699Y-1281864D01*
X2174064Y-1292773D01*
X2174064Y-1329136D01*
X2150064Y-1252773D02*
G01*
X2150064Y-1329136D01*
X2122429Y-1278227D02*
G01*
X2100610Y-1329136D01*
X2078791Y-1278227D02*
G01*
X2100610Y-1329136D01*
X2107882Y-1343682D01*
X2115154Y-1350954D01*
X2122429Y-1354589D01*
X2126063Y-1354589D01*
X1947882Y-1263683D02*
G01*
X1955154Y-1256408D01*
X1966064Y-1252773D01*
X1980610Y-1252773D01*
X1991520Y-1256408D01*
X1998792Y-1263683D01*
X1998792Y-1270955D01*
X1995154Y-1278227D01*
X1991520Y-1281864D01*
X1984245Y-1285499D01*
X1962429Y-1292773D01*
X1955154Y-1296408D01*
X1951520Y-1300045D01*
X1947882Y-1307317D01*
X1947882Y-1318226D01*
X1955154Y-1325499D01*
X1966064Y-1329136D01*
X1980610Y-1329136D01*
X1991520Y-1325499D01*
X1998792Y-1318226D01*
X1923882Y-1252773D02*
G01*
X1923882Y-1329136D01*
X1923882Y-1252773D02*
G01*
X1891154Y-1252773D01*
X1880247Y-1256408D01*
X1876610Y-1260045D01*
X1872973Y-1267317D01*
X1872973Y-1274589D01*
X1876610Y-1281864D01*
X1880247Y-1285499D01*
X1891154Y-1289136D01*
X1923882Y-1289136D01*
X1898429Y-1289136D02*
G01*
X1872973Y-1329136D01*
X1819882Y-1252773D02*
G01*
X1848972Y-1329136D01*
X1819882Y-1252773D02*
G01*
X1790791Y-1329136D01*
X1838065Y-1303682D02*
G01*
X1801700Y-1303682D01*
X1766790Y-1252773D02*
G01*
X1766790Y-1329136D01*
X1766790Y-1252773D02*
G01*
X1737700Y-1329136D01*
X1708609Y-1252773D02*
G01*
X1737700Y-1329136D01*
X1708609Y-1252773D02*
G01*
X1708609Y-1329136D01*
X1599519Y-1238227D02*
G01*
X1624975Y-1354589D01*
X1577700Y-1238227D02*
G01*
X1603156Y-1354589D01*
X1624975Y-1285499D02*
G01*
X1574065Y-1285499D01*
X1628609Y-1307317D02*
G01*
X1577700Y-1307317D01*
X1550065Y-1267317D02*
G01*
X1542793Y-1263683D01*
X1531884Y-1252773D01*
X1531884Y-1329136D01*
X2425700Y-1379773D02*
G01*
X2422062Y-1383408D01*
X2418427Y-1379773D01*
X2422062Y-1376136D01*
X2425700Y-1379773D01*
X2422062Y-1405227D02*
G01*
X2422062Y-1456136D01*
X2354427Y-1416136D02*
G01*
X2358064Y-1408864D01*
X2368971Y-1405227D01*
X2379880Y-1405227D01*
X2390790Y-1408864D01*
X2394427Y-1416136D01*
X2390790Y-1423408D01*
X2383518Y-1427045D01*
X2365336Y-1430682D01*
X2358064Y-1434317D01*
X2354427Y-1441589D01*
X2354427Y-1445226D01*
X2358064Y-1452499D01*
X2368971Y-1456136D01*
X2379880Y-1456136D01*
X2390790Y-1452499D01*
X2394427Y-1445226D01*
X2274427Y-1379773D02*
G01*
X2270790Y-1383408D01*
X2267155Y-1379773D01*
X2270790Y-1376136D01*
X2274427Y-1379773D01*
X2270790Y-1405227D02*
G01*
X2270790Y-1456136D01*
X2243155Y-1405227D02*
G01*
X2243155Y-1456136D01*
X2243155Y-1419773D02*
G01*
X2232245Y-1408864D01*
X2224973Y-1405227D01*
X2214064Y-1405227D01*
X2206790Y-1408864D01*
X2203155Y-1419773D01*
X2203155Y-1456136D01*
X2139154Y-1416136D02*
G01*
X2142792Y-1408864D01*
X2153701Y-1405227D01*
X2164610Y-1405227D01*
X2175517Y-1408864D01*
X2179154Y-1416136D01*
X2175517Y-1423408D01*
X2168245Y-1427045D01*
X2150064Y-1430682D01*
X2142792Y-1434317D01*
X2139154Y-1441589D01*
X2139154Y-1445226D01*
X2142792Y-1452499D01*
X2153701Y-1456136D01*
X2164610Y-1456136D01*
X2175517Y-1452499D01*
X2179154Y-1445226D01*
X2104245Y-1379773D02*
G01*
X2104245Y-1441589D01*
X2100610Y-1452499D01*
X2093335Y-1456136D01*
X2086063Y-1456136D01*
X2115154Y-1405227D02*
G01*
X2089701Y-1405227D01*
X2018428Y-1405227D02*
G01*
X2018428Y-1456136D01*
X2018428Y-1416136D02*
G01*
X2025700Y-1408864D01*
X2032972Y-1405227D01*
X2043882Y-1405227D01*
X2051154Y-1408864D01*
X2058428Y-1416136D01*
X2062063Y-1427045D01*
X2062063Y-1434317D01*
X2058428Y-1445226D01*
X2051154Y-1452499D01*
X2043882Y-1456136D01*
X2032972Y-1456136D01*
X2025700Y-1452499D01*
X2018428Y-1445226D01*
X1994428Y-1379773D02*
G01*
X1994428Y-1456136D01*
X1970427Y-1379773D02*
G01*
X1970427Y-1456136D01*
X1946427Y-1427045D02*
G01*
X1902792Y-1427045D01*
X1902792Y-1419773D01*
X1906427Y-1412499D01*
X1910064Y-1408864D01*
X1917336Y-1405227D01*
X1928246Y-1405227D01*
X1935518Y-1408864D01*
X1942792Y-1416136D01*
X1946427Y-1427045D01*
X1946427Y-1434317D01*
X1942792Y-1445226D01*
X1935518Y-1452499D01*
X1928246Y-1456136D01*
X1917336Y-1456136D01*
X1910064Y-1452499D01*
X1902792Y-1445226D01*
X1835155Y-1379773D02*
G01*
X1835155Y-1456136D01*
X1835155Y-1416136D02*
G01*
X1842429Y-1408864D01*
X1849701Y-1405227D01*
X1860610Y-1405227D01*
X1867882Y-1408864D01*
X1875154Y-1416136D01*
X1878792Y-1427045D01*
X1878792Y-1434317D01*
X1875154Y-1445226D01*
X1867882Y-1452499D01*
X1860610Y-1456136D01*
X1849701Y-1456136D01*
X1842429Y-1452499D01*
X1835155Y-1445226D01*
X1104790Y-1022383D02*
G01*
X1112062Y-1015108D01*
X1122972Y-1011473D01*
X1137518Y-1011473D01*
X1148427Y-1015108D01*
X1155700Y-1022383D01*
X1155700Y-1029655D01*
X1152062Y-1036927D01*
X1148427Y-1040564D01*
X1141153Y-1044199D01*
X1119337Y-1051473D01*
X1112062Y-1055108D01*
X1108428Y-1058745D01*
X1104790Y-1066017D01*
X1104790Y-1076926D01*
X1112062Y-1084199D01*
X1122972Y-1087836D01*
X1137518Y-1087836D01*
X1148427Y-1084199D01*
X1155700Y-1076926D01*
X1080790Y-1011473D02*
G01*
X1080790Y-1087836D01*
X1080790Y-1011473D02*
G01*
X1048064Y-1011473D01*
X1037155Y-1015108D01*
X1033518Y-1018745D01*
X1029881Y-1026017D01*
X1029881Y-1033289D01*
X1033518Y-1040564D01*
X1037155Y-1044199D01*
X1048064Y-1047836D01*
X1080790Y-1047836D01*
X1055336Y-1047836D02*
G01*
X1029881Y-1087836D01*
X976790Y-1011473D02*
G01*
X1005883Y-1087836D01*
X976790Y-1011473D02*
G01*
X947699Y-1087836D01*
X994973Y-1062382D02*
G01*
X958608Y-1062382D01*
X923701Y-1011473D02*
G01*
X923701Y-1087836D01*
X923701Y-1011473D02*
G01*
X894610Y-1087836D01*
X865517Y-1011473D02*
G01*
X894610Y-1087836D01*
X865517Y-1011473D02*
G01*
X865517Y-1087836D01*
X801519Y-1047836D02*
G01*
X805154Y-1040564D01*
X816063Y-1036927D01*
X826973Y-1036927D01*
X837882Y-1040564D01*
X841519Y-1047836D01*
X837882Y-1055108D01*
X830610Y-1058745D01*
X812429Y-1062382D01*
X805154Y-1066017D01*
X801519Y-1073289D01*
X801519Y-1076926D01*
X805154Y-1084199D01*
X816063Y-1087836D01*
X826973Y-1087836D01*
X837882Y-1084199D01*
X841519Y-1076926D01*
X677882Y-1036927D02*
G01*
X677882Y-1087836D01*
X677882Y-1047836D02*
G01*
X685154Y-1040564D01*
X692429Y-1036927D01*
X703336Y-1036927D01*
X710610Y-1040564D01*
X717882Y-1047836D01*
X721520Y-1058745D01*
X721520Y-1066017D01*
X717882Y-1076926D01*
X710610Y-1084199D01*
X703336Y-1087836D01*
X692429Y-1087836D01*
X685154Y-1084199D01*
X677882Y-1076926D01*
X653882Y-1036927D02*
G01*
X653882Y-1087836D01*
X653882Y-1058745D02*
G01*
X650247Y-1047836D01*
X642973Y-1040564D01*
X635701Y-1036927D01*
X624791Y-1036927D01*
X600791Y-1058745D02*
G01*
X557156Y-1058745D01*
X557156Y-1051473D01*
X560791Y-1044199D01*
X564428Y-1040564D01*
X571700Y-1036927D01*
X582609Y-1036927D01*
X589881Y-1040564D01*
X597156Y-1047836D01*
X600791Y-1058745D01*
X600791Y-1066017D01*
X597156Y-1076926D01*
X589881Y-1084199D01*
X582609Y-1087836D01*
X571700Y-1087836D01*
X564428Y-1084199D01*
X557156Y-1076926D01*
X477156Y-1011473D02*
G01*
X473519Y-1015108D01*
X469882Y-1011473D01*
X473519Y-1007836D01*
X477156Y-1011473D01*
X473519Y-1036927D02*
G01*
X473519Y-1087836D01*
X445884Y-1036927D02*
G01*
X445884Y-1087836D01*
X445884Y-1051473D02*
G01*
X434975Y-1040564D01*
X427700Y-1036927D01*
X416791Y-1036927D01*
X409519Y-1040564D01*
X405884Y-1051473D01*
X405884Y-1087836D01*
X341884Y-1047836D02*
G01*
X345518Y-1040564D01*
X356428Y-1036927D01*
X367337Y-1036927D01*
X378246Y-1040564D01*
X381883Y-1047836D01*
X378246Y-1055108D01*
X370974Y-1058745D01*
X352793Y-1062382D01*
X345518Y-1066017D01*
X341884Y-1073289D01*
X341884Y-1076926D01*
X345518Y-1084199D01*
X356428Y-1087836D01*
X367337Y-1087836D01*
X378246Y-1084199D01*
X381883Y-1076926D01*
X306974Y-1011473D02*
G01*
X306974Y-1073289D01*
X303336Y-1084199D01*
X296064Y-1087836D01*
X288792Y-1087836D01*
X317883Y-1036927D02*
G01*
X292430Y-1036927D01*
X221155Y-1036927D02*
G01*
X221155Y-1087836D01*
X221155Y-1047836D02*
G01*
X228429Y-1040564D01*
X235701Y-1036927D01*
X246611Y-1036927D01*
X253883Y-1040564D01*
X261155Y-1047836D01*
X264792Y-1058745D01*
X264792Y-1066017D01*
X261155Y-1076926D01*
X253883Y-1084199D01*
X246611Y-1087836D01*
X235701Y-1087836D01*
X228429Y-1084199D01*
X221155Y-1076926D01*
X197157Y-1011473D02*
G01*
X197157Y-1087836D01*
X173156Y-1011473D02*
G01*
X173156Y-1087836D01*
X149156Y-1058745D02*
G01*
X105519Y-1058745D01*
X105519Y-1051473D01*
X109156Y-1044199D01*
X112793Y-1040564D01*
X120065Y-1036927D01*
X130975Y-1036927D01*
X138247Y-1040564D01*
X145519Y-1047836D01*
X149156Y-1058745D01*
X149156Y-1066017D01*
X145519Y-1076926D01*
X138247Y-1084199D01*
X130975Y-1087836D01*
X120065Y-1087836D01*
X112793Y-1084199D01*
X105519Y-1076926D01*
X37884Y-1011473D02*
G01*
X37884Y-1087836D01*
X37884Y-1047836D02*
G01*
X45156Y-1040564D01*
X52430Y-1036927D01*
X63337Y-1036927D01*
X70612Y-1040564D01*
X77884Y-1047836D01*
X81521Y-1058745D01*
X81521Y-1066017D01*
X77884Y-1076926D01*
X70612Y-1084199D01*
X63337Y-1087836D01*
X52430Y-1087836D01*
X45156Y-1084199D01*
X37884Y-1076926D01*
X1168400Y-924417D02*
G01*
X1161127Y-920783D01*
X1150218Y-909873D01*
X1150218Y-986236D01*
X1126218Y-909873D02*
G01*
X1126218Y-986236D01*
X1126218Y-909873D02*
G01*
X1097127Y-986236D01*
X1068036Y-909873D02*
G01*
X1097127Y-986236D01*
X1068036Y-909873D02*
G01*
X1068036Y-986236D01*
X1044036Y-909873D02*
G01*
X1044036Y-986236D01*
X1044036Y-909873D02*
G01*
X1011308Y-909873D01*
X1000399Y-913508D01*
X996764Y-917145D01*
X993127Y-924417D01*
X993127Y-931689D01*
X996764Y-938964D01*
X1000399Y-942600D01*
X1011308Y-946236D01*
X1044036Y-946236D02*
G01*
X1011308Y-946236D01*
X1000399Y-949873D01*
X996764Y-953508D01*
X993127Y-960782D01*
X993127Y-971689D01*
X996764Y-978964D01*
X1000399Y-982599D01*
X1011308Y-986236D01*
X1044036Y-986236D01*
X965492Y-942600D02*
G01*
X969126Y-946236D01*
X965492Y-949873D01*
X961854Y-946236D01*
X965492Y-942600D01*
X965492Y-968054D02*
G01*
X969126Y-971689D01*
X965492Y-975326D01*
X961854Y-971689D01*
X965492Y-968054D01*
X881854Y-909873D02*
G01*
X881854Y-986236D01*
X881854Y-909873D02*
G01*
X849127Y-909873D01*
X838217Y-913508D01*
X834583Y-917145D01*
X830945Y-924417D01*
X830945Y-931689D01*
X834583Y-938964D01*
X838217Y-942600D01*
X849127Y-946236D01*
X881854Y-946236D02*
G01*
X849127Y-946236D01*
X838217Y-949873D01*
X834583Y-953508D01*
X830945Y-960782D01*
X830945Y-971689D01*
X834583Y-978964D01*
X838217Y-982599D01*
X849127Y-986236D01*
X881854Y-986236D01*
X806945Y-935327D02*
G01*
X806945Y-986236D01*
X806945Y-957145D02*
G01*
X803310Y-946236D01*
X796036Y-938964D01*
X788763Y-935327D01*
X777854Y-935327D01*
X753854Y-909873D02*
G01*
X750219Y-913508D01*
X746582Y-909873D01*
X750219Y-906236D01*
X753854Y-909873D01*
X750219Y-935327D02*
G01*
X750219Y-986236D01*
X678947Y-909873D02*
G01*
X678947Y-986236D01*
X678947Y-946236D02*
G01*
X686219Y-938964D01*
X693491Y-935327D01*
X704400Y-935327D01*
X711672Y-938964D01*
X718946Y-946236D01*
X722581Y-957145D01*
X722581Y-964417D01*
X718946Y-975326D01*
X711672Y-982599D01*
X704400Y-986236D01*
X693491Y-986236D01*
X686219Y-982599D01*
X678947Y-975326D01*
X611309Y-935327D02*
G01*
X611309Y-993508D01*
X614946Y-1004417D01*
X618583Y-1008054D01*
X625855Y-1011689D01*
X636765Y-1011689D01*
X644037Y-1008054D01*
X611309Y-946236D02*
G01*
X618583Y-938964D01*
X625855Y-935327D01*
X636765Y-935327D01*
X644037Y-938964D01*
X651309Y-946236D01*
X654946Y-957145D01*
X654946Y-964417D01*
X651309Y-975326D01*
X644037Y-982599D01*
X636765Y-986236D01*
X625855Y-986236D01*
X618583Y-982599D01*
X611309Y-975326D01*
X587311Y-957145D02*
G01*
X543674Y-957145D01*
X543674Y-949873D01*
X547311Y-942600D01*
X550946Y-938964D01*
X558218Y-935327D01*
X569127Y-935327D01*
X576402Y-938964D01*
X583674Y-946236D01*
X587311Y-957145D01*
X587311Y-964417D01*
X583674Y-975326D01*
X576402Y-982599D01*
X569127Y-986236D01*
X558218Y-986236D01*
X550946Y-982599D01*
X543674Y-975326D01*
X463674Y-909873D02*
G01*
X460037Y-913508D01*
X456402Y-909873D01*
X460037Y-906236D01*
X463674Y-909873D01*
X460037Y-935327D02*
G01*
X460037Y-986236D01*
X403311Y-909873D02*
G01*
X410583Y-909873D01*
X417855Y-913508D01*
X421492Y-924417D01*
X421492Y-986236D01*
X432401Y-935327D02*
G01*
X406946Y-935327D01*
X323311Y-909873D02*
G01*
X323311Y-986236D01*
X323311Y-946236D02*
G01*
X316036Y-938964D01*
X308764Y-935327D01*
X297855Y-935327D01*
X290583Y-938964D01*
X283311Y-946236D01*
X279674Y-957145D01*
X279674Y-964417D01*
X283311Y-975326D01*
X290583Y-982599D01*
X297855Y-986236D01*
X308764Y-986236D01*
X316036Y-982599D01*
X323311Y-975326D01*
X237492Y-935327D02*
G01*
X244764Y-938964D01*
X252039Y-946236D01*
X255673Y-957145D01*
X255673Y-964417D01*
X252039Y-975326D01*
X244764Y-982599D01*
X237492Y-986236D01*
X226583Y-986236D01*
X219311Y-982599D01*
X212039Y-975326D01*
X208401Y-964417D01*
X208401Y-957145D01*
X212039Y-946236D01*
X219311Y-938964D01*
X226583Y-935327D01*
X237492Y-935327D01*
X173492Y-909873D02*
G01*
X173492Y-971689D01*
X169857Y-982599D01*
X162582Y-986236D01*
X155310Y-986236D01*
X184401Y-935327D02*
G01*
X158948Y-935327D01*
X131310Y-909873D02*
G01*
X131310Y-986236D01*
X131310Y-949873D02*
G01*
X120401Y-938964D01*
X113129Y-935327D01*
X102219Y-935327D01*
X94947Y-938964D01*
X91310Y-949873D01*
X91310Y-986236D01*
X1189200Y-1274828D02*
G01*
X1191928Y-1269372D01*
X1200109Y-1266644D01*
X1208290Y-1266644D01*
X1216472Y-1269372D01*
X1219200Y-1274828D01*
X1216472Y-1280281D01*
X1211018Y-1283009D01*
X1197381Y-1285735D01*
X1191928Y-1288463D01*
X1189200Y-1293919D01*
X1189200Y-1296644D01*
X1191928Y-1302100D01*
X1200109Y-1304828D01*
X1208290Y-1304828D01*
X1216472Y-1302100D01*
X1219200Y-1296644D01*
X1171199Y-1283009D02*
G01*
X1138473Y-1283009D01*
X1138473Y-1277553D01*
X1141199Y-1272100D01*
X1143927Y-1269372D01*
X1149383Y-1266644D01*
X1157564Y-1266644D01*
X1163017Y-1269372D01*
X1168473Y-1274828D01*
X1171199Y-1283009D01*
X1171199Y-1288463D01*
X1168473Y-1296644D01*
X1163017Y-1302100D01*
X1157564Y-1304828D01*
X1149383Y-1304828D01*
X1143927Y-1302100D01*
X1138473Y-1296644D01*
X1112291Y-1247554D02*
G01*
X1112291Y-1293919D01*
X1109563Y-1302100D01*
X1104110Y-1304828D01*
X1098654Y-1304828D01*
X1120472Y-1266644D02*
G01*
X1101382Y-1266644D01*
X1005928Y-1247554D02*
G01*
X1033200Y-1247554D01*
X1035928Y-1272100D01*
X1033200Y-1269372D01*
X1025019Y-1266644D01*
X1016835Y-1266644D01*
X1008654Y-1269372D01*
X1003200Y-1274828D01*
X1000472Y-1283009D01*
X1000472Y-1288463D01*
X1003200Y-1296644D01*
X1008654Y-1302100D01*
X1016835Y-1304828D01*
X1025019Y-1304828D01*
X1033200Y-1302100D01*
X1035928Y-1299372D01*
X1038654Y-1293919D01*
X982471Y-1258463D02*
G01*
X977018Y-1255735D01*
X968837Y-1247554D01*
X968837Y-1304828D01*
X948110Y-1261191D02*
G01*
X948110Y-1258463D01*
X945382Y-1253009D01*
X942654Y-1250281D01*
X937201Y-1247554D01*
X926292Y-1247554D01*
X920836Y-1250281D01*
X918110Y-1253009D01*
X915382Y-1258463D01*
X915382Y-1263919D01*
X918110Y-1269372D01*
X923564Y-1277553D01*
X950836Y-1304828D01*
X912655Y-1304828D01*
X894654Y-1247554D02*
G01*
X894654Y-1304828D01*
X856472Y-1247554D02*
G01*
X894654Y-1285735D01*
X881019Y-1272100D02*
G01*
X856472Y-1304828D01*
X8242162Y-3214728D02*
G01*
X8251253Y-3205637D01*
X8264890Y-3201090D01*
X8283072Y-3201090D01*
X8296709Y-3205637D01*
X8305800Y-3214728D01*
X8305800Y-3223818D01*
X8301253Y-3232909D01*
X8296709Y-3237453D01*
X8287618Y-3242000D01*
X8260346Y-3251090D01*
X8251253Y-3255637D01*
X8246709Y-3260181D01*
X8242162Y-3269272D01*
X8242162Y-3282909D01*
X8251253Y-3292000D01*
X8264890Y-3296546D01*
X8283072Y-3296546D01*
X8296709Y-3292000D01*
X8305800Y-3282909D01*
X8212162Y-3201090D02*
G01*
X8212162Y-3296546D01*
X8212162Y-3201090D02*
G01*
X8171253Y-3201090D01*
X8157618Y-3205637D01*
X8153072Y-3210181D01*
X8148528Y-3219272D01*
X8148528Y-3228362D01*
X8153072Y-3237453D01*
X8157618Y-3242000D01*
X8171253Y-3246546D01*
X8212162Y-3246546D01*
X8180346Y-3246546D02*
G01*
X8148528Y-3296546D01*
X8082163Y-3201090D02*
G01*
X8118528Y-3296546D01*
X8082163Y-3201090D02*
G01*
X8045800Y-3296546D01*
X8104891Y-3264728D02*
G01*
X8059437Y-3264728D01*
X8015800Y-3201090D02*
G01*
X8015800Y-3296546D01*
X8015800Y-3201090D02*
G01*
X7979437Y-3296546D01*
X7943072Y-3201090D02*
G01*
X7979437Y-3296546D01*
X7943072Y-3201090D02*
G01*
X7943072Y-3296546D01*
X7806710Y-3182909D02*
G01*
X7838528Y-3328362D01*
X7779438Y-3182909D02*
G01*
X7811254Y-3328362D01*
X7838528Y-3242000D02*
G01*
X7774891Y-3242000D01*
X7843072Y-3269272D02*
G01*
X7779438Y-3269272D01*
X7740347Y-3223818D02*
G01*
X7740347Y-3219272D01*
X7735801Y-3210181D01*
X7731254Y-3205637D01*
X7722163Y-3201090D01*
X7703982Y-3201090D01*
X7694891Y-3205637D01*
X7690347Y-3210181D01*
X7685801Y-3219272D01*
X7685801Y-3228362D01*
X7690347Y-3237453D01*
X7699438Y-3251090D01*
X7744891Y-3296546D01*
X7681254Y-3296546D01*
X492617Y-1295400D02*
G01*
X488983Y-1302672D01*
X478073Y-1313581D01*
X554436Y-1313581D01*
X478073Y-1337581D02*
G01*
X554436Y-1337581D01*
X478073Y-1337581D02*
G01*
X554436Y-1366672D01*
X478073Y-1395763D02*
G01*
X554436Y-1366672D01*
X478073Y-1395763D02*
G01*
X554436Y-1395763D01*
X478073Y-1419763D02*
G01*
X554436Y-1419763D01*
X478073Y-1419763D02*
G01*
X478073Y-1452491D01*
X481708Y-1463400D01*
X485345Y-1467035D01*
X492617Y-1470672D01*
X499889Y-1470672D01*
X507164Y-1467035D01*
X510799Y-1463400D01*
X514436Y-1452491D01*
X514436Y-1419763D02*
G01*
X514436Y-1452491D01*
X518073Y-1463400D01*
X521708Y-1467035D01*
X528982Y-1470672D01*
X539889Y-1470672D01*
X547164Y-1467035D01*
X550798Y-1463400D01*
X554436Y-1452491D01*
X554436Y-1419763D01*
D11*
X5143500Y-2030989D02*
G01*
X5143500Y-2139955D01*
X5143500Y-2030989D02*
G01*
X5101843Y-2139955D01*
X5060441Y-2030989D02*
G01*
X5101843Y-2139955D01*
X5060441Y-2030989D02*
G01*
X5060441Y-2139955D01*
X5026152Y-2030989D02*
G01*
X5026152Y-2139955D01*
X5026152Y-2030989D02*
G01*
X4979415Y-2030989D01*
X4963668Y-2036069D01*
X4958588Y-2041403D01*
X4953254Y-2051817D01*
X4953254Y-2062231D01*
X4958588Y-2072645D01*
X4963668Y-2077725D01*
X4979415Y-2082805D01*
X5026152Y-2082805D02*
G01*
X4979415Y-2082805D01*
X4963668Y-2088139D01*
X4958588Y-2093219D01*
X4953254Y-2103633D01*
X4953254Y-2119381D01*
X4958588Y-2129795D01*
X4963668Y-2134875D01*
X4979415Y-2139955D01*
X5026152Y-2139955D01*
X4766309Y-2046483D02*
G01*
X4776724Y-2036069D01*
X4792218Y-2030989D01*
X4813045Y-2030989D01*
X4828540Y-2036069D01*
X4838954Y-2046483D01*
X4838954Y-2056897D01*
X4833874Y-2067311D01*
X4828540Y-2072645D01*
X4818379Y-2077725D01*
X4787138Y-2088139D01*
X4776724Y-2093219D01*
X4771390Y-2098553D01*
X4766309Y-2108967D01*
X4766309Y-2124461D01*
X4776724Y-2134875D01*
X4792218Y-2139955D01*
X4813045Y-2139955D01*
X4828540Y-2134875D01*
X4838954Y-2124461D01*
X4706111Y-2067311D02*
G01*
X4716525Y-2072645D01*
X4726940Y-2082805D01*
X4732020Y-2098553D01*
X4732020Y-2108967D01*
X4726940Y-2124461D01*
X4716525Y-2134875D01*
X4706111Y-2139955D01*
X4690363Y-2139955D01*
X4679950Y-2134875D01*
X4669790Y-2124461D01*
X4664456Y-2108967D01*
X4664456Y-2098553D01*
X4669790Y-2082805D01*
X4679950Y-2072645D01*
X4690363Y-2067311D01*
X4706111Y-2067311D01*
X4567936Y-2082805D02*
G01*
X4578350Y-2072645D01*
X4588509Y-2067311D01*
X4604258Y-2067311D01*
X4614672Y-2072645D01*
X4625086Y-2082805D01*
X4630165Y-2098553D01*
X4630165Y-2108967D01*
X4625086Y-2124461D01*
X4614672Y-2134875D01*
X4604258Y-2139955D01*
X4588509Y-2139955D01*
X4578350Y-2134875D01*
X4567936Y-2124461D01*
X4533645Y-2030989D02*
G01*
X4533645Y-2139955D01*
X4481575Y-2067311D02*
G01*
X4533645Y-2119381D01*
X4512818Y-2098553D02*
G01*
X4476495Y-2139955D01*
X4442206Y-2098553D02*
G01*
X4379722Y-2098553D01*
X4379722Y-2088139D01*
X4385056Y-2077725D01*
X4390136Y-2072645D01*
X4400550Y-2067311D01*
X4416043Y-2067311D01*
X4426458Y-2072645D01*
X4436872Y-2082805D01*
X4442206Y-2098553D01*
X4442206Y-2108967D01*
X4436872Y-2124461D01*
X4426458Y-2134875D01*
X4416043Y-2139955D01*
X4400550Y-2139955D01*
X4390136Y-2134875D01*
X4379722Y-2124461D01*
X4329938Y-2030989D02*
G01*
X4329938Y-2119381D01*
X4324604Y-2134875D01*
X4314190Y-2139955D01*
X4304029Y-2139955D01*
X4345431Y-2067311D02*
G01*
X4309109Y-2067311D01*
X5105400Y-494289D02*
G01*
X5105400Y-603255D01*
X5105400Y-494289D02*
G01*
X5063743Y-603255D01*
X5022341Y-494289D02*
G01*
X5063743Y-603255D01*
X5022341Y-494289D02*
G01*
X5022341Y-603255D01*
X4988052Y-494289D02*
G01*
X4988052Y-603255D01*
X4988052Y-494289D02*
G01*
X4941315Y-494289D01*
X4925568Y-499369D01*
X4920488Y-504703D01*
X4915154Y-515117D01*
X4915154Y-525531D01*
X4920488Y-535945D01*
X4925568Y-541025D01*
X4941315Y-546105D01*
X4988052Y-546105D02*
G01*
X4941315Y-546105D01*
X4925568Y-551439D01*
X4920488Y-556519D01*
X4915154Y-566933D01*
X4915154Y-582681D01*
X4920488Y-593095D01*
X4925568Y-598175D01*
X4941315Y-603255D01*
X4988052Y-603255D01*
X4728209Y-509783D02*
G01*
X4738624Y-499369D01*
X4754118Y-494289D01*
X4774945Y-494289D01*
X4790440Y-499369D01*
X4800854Y-509783D01*
X4800854Y-520197D01*
X4795774Y-530611D01*
X4790440Y-535945D01*
X4780279Y-541025D01*
X4749038Y-551439D01*
X4738624Y-556519D01*
X4733290Y-561853D01*
X4728209Y-572267D01*
X4728209Y-587761D01*
X4738624Y-598175D01*
X4754118Y-603255D01*
X4774945Y-603255D01*
X4790440Y-598175D01*
X4800854Y-587761D01*
X4668011Y-530611D02*
G01*
X4678425Y-535945D01*
X4688840Y-546105D01*
X4693920Y-561853D01*
X4693920Y-572267D01*
X4688840Y-587761D01*
X4678425Y-598175D01*
X4668011Y-603255D01*
X4652263Y-603255D01*
X4641850Y-598175D01*
X4631690Y-587761D01*
X4626356Y-572267D01*
X4626356Y-561853D01*
X4631690Y-546105D01*
X4641850Y-535945D01*
X4652263Y-530611D01*
X4668011Y-530611D01*
X4529836Y-546105D02*
G01*
X4540250Y-535945D01*
X4550409Y-530611D01*
X4566158Y-530611D01*
X4576572Y-535945D01*
X4586986Y-546105D01*
X4592065Y-561853D01*
X4592065Y-572267D01*
X4586986Y-587761D01*
X4576572Y-598175D01*
X4566158Y-603255D01*
X4550409Y-603255D01*
X4540250Y-598175D01*
X4529836Y-587761D01*
X4495545Y-494289D02*
G01*
X4495545Y-603255D01*
X4443475Y-530611D02*
G01*
X4495545Y-582681D01*
X4474718Y-561853D02*
G01*
X4438395Y-603255D01*
X4404106Y-561853D02*
G01*
X4341622Y-561853D01*
X4341622Y-551439D01*
X4346956Y-541025D01*
X4352036Y-535945D01*
X4362450Y-530611D01*
X4377943Y-530611D01*
X4388358Y-535945D01*
X4398772Y-546105D01*
X4404106Y-561853D01*
X4404106Y-572267D01*
X4398772Y-587761D01*
X4388358Y-598175D01*
X4377943Y-603255D01*
X4362450Y-603255D01*
X4352036Y-598175D01*
X4341622Y-587761D01*
X4291838Y-494289D02*
G01*
X4291838Y-582681D01*
X4286504Y-598175D01*
X4276090Y-603255D01*
X4265929Y-603255D01*
X4307331Y-530611D02*
G01*
X4271009Y-530611D01*
X1103028Y-1336456D02*
G01*
X1130300Y-1374637D01*
X1089390Y-1374637D01*
X1103028Y-1336456D02*
G01*
X1103028Y-1393731D01*
X1068664Y-1380093D02*
G01*
X1071389Y-1382821D01*
X1068664Y-1385547D01*
X1065936Y-1382821D01*
X1068664Y-1380093D01*
X1009754Y-1336456D02*
G01*
X1037028Y-1393731D01*
X1047935Y-1336456D02*
G01*
X1009754Y-1336456D01*
X991755Y-1336456D02*
G01*
X991755Y-1393731D01*
X964481Y-1355547D02*
G01*
X991755Y-1382821D01*
X980846Y-1371912D02*
G01*
X961755Y-1393731D01*
X8297468Y-3457199D02*
G01*
X8339124Y-3566165D01*
X8297468Y-3457199D02*
G01*
X8256066Y-3566165D01*
X8323630Y-3529843D02*
G01*
X8271560Y-3529843D01*
X8148878Y-3472693D02*
G01*
X8159292Y-3462279D01*
X8175040Y-3457199D01*
X8195614Y-3457199D01*
X8211362Y-3462279D01*
X8221776Y-3472693D01*
X8221776Y-3483107D01*
X8216442Y-3493521D01*
X8211362Y-3498855D01*
X8200948Y-3503935D01*
X8169706Y-3514349D01*
X8159292Y-3519429D01*
X8154212Y-3524763D01*
X8148878Y-3535177D01*
X8148878Y-3550671D01*
X8159292Y-3561085D01*
X8175040Y-3566165D01*
X8195614Y-3566165D01*
X8211362Y-3561085D01*
X8221776Y-3550671D01*
X8052358Y-3472693D02*
G01*
X8057438Y-3462279D01*
X8073186Y-3457199D01*
X8083600Y-3457199D01*
X8099094Y-3462279D01*
X8109508Y-3478027D01*
X8114588Y-3503935D01*
X8114588Y-3529843D01*
X8109508Y-3550671D01*
X8099094Y-3561085D01*
X8083600Y-3566165D01*
X8078266Y-3566165D01*
X8062772Y-3561085D01*
X8052358Y-3550671D01*
X8047024Y-3535177D01*
X8047024Y-3529843D01*
X8052358Y-3514349D01*
X8062772Y-3503935D01*
X8078266Y-3498855D01*
X8083600Y-3498855D01*
X8099094Y-3503935D01*
X8109508Y-3514349D01*
X8114588Y-3529843D01*
X7935010Y-3483107D02*
G01*
X7940090Y-3472693D01*
X7950504Y-3462279D01*
X7960918Y-3457199D01*
X7981746Y-3457199D01*
X7992160Y-3462279D01*
X8002574Y-3472693D01*
X8007654Y-3483107D01*
X8012734Y-3498855D01*
X8012734Y-3524763D01*
X8007654Y-3540257D01*
X8002574Y-3550671D01*
X7992160Y-3561085D01*
X7981746Y-3566165D01*
X7960918Y-3566165D01*
X7950504Y-3561085D01*
X7940090Y-3550671D01*
X7935010Y-3540257D01*
X7848650Y-3457199D02*
G01*
X7900720Y-3529843D01*
X7822742Y-3529843D01*
X7848650Y-3457199D02*
G01*
X7848650Y-3566165D01*
X7757210Y-3457199D02*
G01*
X7772704Y-3462279D01*
X7783118Y-3478027D01*
X7788452Y-3503935D01*
X7788452Y-3519429D01*
X7783118Y-3545591D01*
X7772704Y-3561085D01*
X7757210Y-3566165D01*
X7746796Y-3566165D01*
X7731302Y-3561085D01*
X7720888Y-3545591D01*
X7715554Y-3519429D01*
X7715554Y-3503935D01*
X7720888Y-3478027D01*
X7731302Y-3462279D01*
X7746796Y-3457199D01*
X7757210Y-3457199D01*
X7650276Y-3457199D02*
G01*
X7665770Y-3462279D01*
X7676184Y-3478027D01*
X7681264Y-3503935D01*
X7681264Y-3519429D01*
X7676184Y-3545591D01*
X7665770Y-3561085D01*
X7650276Y-3566165D01*
X7639862Y-3566165D01*
X7624114Y-3561085D01*
X7613954Y-3545591D01*
X7608620Y-3519429D01*
X7608620Y-3503935D01*
X7613954Y-3478027D01*
X7624114Y-3462279D01*
X7639862Y-3457199D01*
X7650276Y-3457199D01*
X7548422Y-3457199D02*
G01*
X7563916Y-3462279D01*
X7569250Y-3472693D01*
X7569250Y-3483107D01*
X7563916Y-3493521D01*
X7553502Y-3498855D01*
X7532674Y-3503935D01*
X7517180Y-3509015D01*
X7506766Y-3519429D01*
X7501686Y-3529843D01*
X7501686Y-3545591D01*
X7506766Y-3556005D01*
X7512100Y-3561085D01*
X7527594Y-3566165D01*
X7548422Y-3566165D01*
X7563916Y-3561085D01*
X7569250Y-3556005D01*
X7574330Y-3545591D01*
X7574330Y-3529843D01*
X7569250Y-3519429D01*
X7558836Y-3509015D01*
X7543088Y-3503935D01*
X7522514Y-3498855D01*
X7512100Y-3493521D01*
X7506766Y-3483107D01*
X7506766Y-3472693D01*
X7512100Y-3462279D01*
X7527594Y-3457199D01*
X7548422Y-3457199D01*
X7467396Y-3519429D02*
G01*
X7373924Y-3519429D01*
X7277150Y-3457199D02*
G01*
X7329220Y-3457199D01*
X7334300Y-3503935D01*
X7329220Y-3498855D01*
X7313472Y-3493521D01*
X7297978Y-3493521D01*
X7282484Y-3498855D01*
X7272070Y-3509015D01*
X7266736Y-3524763D01*
X7266736Y-3535177D01*
X7272070Y-3550671D01*
X7282484Y-3561085D01*
X7297978Y-3566165D01*
X7313472Y-3566165D01*
X7329220Y-3561085D01*
X7334300Y-3556005D01*
X7339634Y-3545591D01*
X7170216Y-3457199D02*
G01*
X7222032Y-3457199D01*
X7227366Y-3503935D01*
X7222032Y-3498855D01*
X7206538Y-3493521D01*
X7191044Y-3493521D01*
X7175296Y-3498855D01*
X7164882Y-3509015D01*
X7159802Y-3524763D01*
X7159802Y-3535177D01*
X7164882Y-3550671D01*
X7175296Y-3561085D01*
X7191044Y-3566165D01*
X7206538Y-3566165D01*
X7222032Y-3561085D01*
X7227366Y-3556005D01*
X7232446Y-3545591D01*
X7052614Y-3472693D02*
G01*
X7063028Y-3462279D01*
X7078776Y-3457199D01*
X7099604Y-3457199D01*
X7115098Y-3462279D01*
X7125512Y-3472693D01*
X7125512Y-3483107D01*
X7120178Y-3493521D01*
X7115098Y-3498855D01*
X7104684Y-3503935D01*
X7073442Y-3514349D01*
X7063028Y-3519429D01*
X7057948Y-3524763D01*
X7052614Y-3535177D01*
X7052614Y-3550671D01*
X7063028Y-3561085D01*
X7078776Y-3566165D01*
X7099604Y-3566165D01*
X7115098Y-3561085D01*
X7125512Y-3550671D01*
X7018324Y-3457199D02*
G01*
X7018324Y-3566165D01*
X6984034Y-3457199D02*
G01*
X6984034Y-3566165D01*
X6984034Y-3457199D02*
G01*
X6911390Y-3566165D01*
X6911390Y-3457199D02*
G01*
X6911390Y-3566165D01*
X6805929Y-697484D02*
G01*
X6858000Y-770128D01*
X6780022Y-770128D01*
X6805929Y-697484D02*
G01*
X6805929Y-806450D01*
X6740652Y-780542D02*
G01*
X6745731Y-785876D01*
X6740652Y-790956D01*
X6735318Y-785876D01*
X6740652Y-780542D01*
X6628384Y-697484D02*
G01*
X6680200Y-806450D01*
X6701027Y-697484D02*
G01*
X6628384Y-697484D01*
X6594093Y-697484D02*
G01*
X6594093Y-806450D01*
X6542024Y-733806D02*
G01*
X6594093Y-785876D01*
X6573265Y-765048D02*
G01*
X6536943Y-806450D01*
D12*
X787400Y-1409700D02*
G01*
X1295400Y-1409700D01*
X787400Y-1206500D02*
G01*
X1295400Y-1206500D01*
X1295400Y-1409700D01*
X787400Y-1206500D02*
G01*
X787400Y-1409700D01*
D11*
X8436470Y-3875189D02*
G01*
X8436470Y-2830410D01*
X6371729Y-2830410D01*
X6371729Y-3875189D01*
X8436470Y-3875189D01*
D12*
X6426200Y-850900D02*
G01*
X6934200Y-850900D01*
X6426200Y-647700D02*
G01*
X6934200Y-647700D01*
X6934200Y-850900D01*
X6426200Y-647700D02*
G01*
X6426200Y-850900D01*
D13*
G75*
G01
X8371611Y-3799939D02*
G03X8371611Y-3799939I-15011J0D01*
G75*
G01
X8446262Y-4017871D02*
G03X8446262Y-4017871I-15011J0D01*
G36*
X571500Y-1108072D02*
G01*
X622300Y-1108072D01*
X622300Y-1533522D01*
X571500Y-1533522D01*
G37*
D12*
X304800Y-660397D02*
G01*
X5334000Y-660397D01*
X5334000Y-863597D01*
X304800Y-863597D01*
X304800Y-660397D01*
X304800Y-2184397D02*
G01*
X5334000Y-2184397D01*
X5334000Y-2387597D01*
X304800Y-2387597D01*
X304800Y-2184397D01*
M02*
