G04 Layer: TopLayer*
G04 EasyEDA v6.5.51, 2025-09-14 18:22:56*
G04 65470a2a99dd484cb8e495e3fbabed1f,d25947a9a65e436e8dba57a0ec84572b,10*
G04 Gerber Generator version 0.2*
G04 Scale: 100 percent, Rotated: No, Reflected: No *
G04 Dimensions in millimeters *
G04 leading zeros omitted , absolute positions ,4 integer and 5 decimal *
%FSLAX45Y45*%
%MOMM*%

%ADD10C,0.2000*%
%ADD11C,0.5000*%
%ADD12O,0.58801X2.39649*%
%ADD13C,1.5240*%
%ADD14C,1.6000*%
%ADD15R,1.5748X1.5748*%
%ADD16C,1.5748*%
%ADD17C,1.3000*%
%ADD18C,0.0101*%
%ADD19C,1.3716*%
%ADD20C,1.1938*%
%ADD21R,1.5240X1.7000*%
%ADD22C,1.5000*%
%ADD23R,1.6000X1.6000*%
%ADD24C,0.6200*%

%LPD*%
G36*
X4267200Y-3922623D02*
G01*
X4262882Y-3921658D01*
X4259427Y-3918965D01*
X4257395Y-3915105D01*
X4255617Y-3908551D01*
X4251553Y-3899814D01*
X4246016Y-3891940D01*
X4242562Y-3888486D01*
X4240377Y-3885184D01*
X4239615Y-3881272D01*
X4239615Y-3797757D01*
X4238752Y-3789781D01*
X4236466Y-3782669D01*
X4232656Y-3776065D01*
X4228795Y-3771595D01*
X3569055Y-3111855D01*
X3562807Y-3106775D01*
X3556152Y-3103372D01*
X3548786Y-3101390D01*
X3542893Y-3100933D01*
X1149400Y-3100933D01*
X1145489Y-3100171D01*
X1142187Y-3097987D01*
X445262Y-2401062D01*
X443077Y-2397760D01*
X442315Y-2393848D01*
X442315Y-2388311D01*
X443128Y-2384348D01*
X445414Y-2380996D01*
X449376Y-2378608D01*
X461314Y-2372055D01*
X472287Y-2363978D01*
X482092Y-2354478D01*
X490575Y-2343759D01*
X497535Y-2332024D01*
X502818Y-2319477D01*
X506425Y-2306320D01*
X508254Y-2292807D01*
X508254Y-2279192D01*
X506425Y-2265680D01*
X502818Y-2252522D01*
X497535Y-2239975D01*
X490575Y-2228240D01*
X482092Y-2217521D01*
X472287Y-2208022D01*
X461314Y-2199944D01*
X449376Y-2193391D01*
X436626Y-2188514D01*
X423367Y-2185314D01*
X409803Y-2183993D01*
X396189Y-2184450D01*
X382727Y-2186686D01*
X369722Y-2190750D01*
X357327Y-2196490D01*
X353161Y-2199132D01*
X350012Y-2200452D01*
X346608Y-2200656D01*
X343306Y-2199741D01*
X340512Y-2197760D01*
X203962Y-2061210D01*
X201777Y-2057907D01*
X201015Y-2053996D01*
X201015Y-1809902D01*
X201625Y-1806448D01*
X203352Y-1803400D01*
X205994Y-1801164D01*
X210159Y-1798675D01*
X220878Y-1790192D01*
X230378Y-1780387D01*
X238455Y-1769414D01*
X245008Y-1757476D01*
X249885Y-1744725D01*
X253085Y-1731467D01*
X254406Y-1717903D01*
X253949Y-1704289D01*
X251714Y-1690827D01*
X247650Y-1677822D01*
X241909Y-1665427D01*
X234594Y-1653946D01*
X225806Y-1643532D01*
X215646Y-1634388D01*
X204419Y-1626666D01*
X192278Y-1620520D01*
X179374Y-1616049D01*
X166014Y-1613306D01*
X152400Y-1612442D01*
X138785Y-1613306D01*
X125425Y-1616049D01*
X112522Y-1620520D01*
X100380Y-1626666D01*
X89916Y-1633829D01*
X85852Y-1635506D01*
X81483Y-1635251D01*
X77622Y-1633220D01*
X74930Y-1629765D01*
X74015Y-1625447D01*
X74015Y-1149350D01*
X74777Y-1145438D01*
X76962Y-1142136D01*
X359410Y-859739D01*
X362407Y-857656D01*
X365963Y-856792D01*
X369570Y-857250D01*
X382727Y-861314D01*
X396189Y-863600D01*
X409803Y-864006D01*
X423367Y-862685D01*
X436626Y-859485D01*
X449376Y-854608D01*
X461314Y-848055D01*
X472287Y-839978D01*
X482092Y-830478D01*
X490575Y-819759D01*
X497535Y-808024D01*
X502818Y-795477D01*
X506425Y-782320D01*
X508254Y-768807D01*
X508254Y-755192D01*
X506425Y-741680D01*
X502818Y-728522D01*
X497535Y-715975D01*
X490575Y-704240D01*
X482092Y-693521D01*
X472287Y-684022D01*
X461314Y-675944D01*
X449376Y-669391D01*
X436626Y-664514D01*
X423367Y-661314D01*
X409803Y-659993D01*
X396189Y-660450D01*
X382727Y-662686D01*
X369722Y-666750D01*
X357327Y-672490D01*
X353161Y-675132D01*
X350012Y-676452D01*
X346608Y-676656D01*
X343306Y-675741D01*
X340512Y-673760D01*
X203962Y-537210D01*
X201777Y-533908D01*
X201015Y-529996D01*
X201015Y-285902D01*
X201625Y-282448D01*
X203352Y-279400D01*
X205994Y-277164D01*
X210159Y-274675D01*
X220878Y-266192D01*
X230378Y-256387D01*
X238455Y-245414D01*
X245008Y-233476D01*
X249885Y-220725D01*
X253085Y-207467D01*
X254406Y-193903D01*
X253949Y-180289D01*
X251714Y-166827D01*
X247650Y-153822D01*
X241909Y-141427D01*
X234594Y-129946D01*
X225806Y-119532D01*
X215646Y-110388D01*
X204419Y-102666D01*
X192278Y-96520D01*
X179374Y-92049D01*
X166014Y-89306D01*
X152400Y-88442D01*
X138785Y-89306D01*
X125425Y-92049D01*
X123596Y-92659D01*
X119786Y-93218D01*
X116027Y-92303D01*
X112877Y-90017D01*
X110794Y-86715D01*
X110134Y-82905D01*
X110947Y-79095D01*
X113080Y-75895D01*
X160172Y-28854D01*
X163474Y-26619D01*
X167335Y-25857D01*
X7592364Y-25857D01*
X7596225Y-26619D01*
X7599527Y-28854D01*
X7972094Y-401421D01*
X7974330Y-404723D01*
X7975092Y-408584D01*
X7975092Y-837742D01*
X7975396Y-841552D01*
X7977428Y-848614D01*
X7980172Y-853490D01*
X7982966Y-856742D01*
X9026194Y-1900021D01*
X9028430Y-1903323D01*
X9029192Y-1907184D01*
X9029192Y-1968804D01*
X9028430Y-1972716D01*
X9026194Y-1976018D01*
X9022943Y-1978202D01*
X9019032Y-1978964D01*
X9015120Y-1978202D01*
X9011869Y-1976018D01*
X8953855Y-1918055D01*
X8947607Y-1912975D01*
X8940952Y-1909572D01*
X8933586Y-1907590D01*
X8927693Y-1907133D01*
X8312099Y-1907133D01*
X8308238Y-1906371D01*
X8304936Y-1904187D01*
X8014462Y-1613712D01*
X8012277Y-1610410D01*
X8011515Y-1606550D01*
X8011515Y-1250137D01*
X8012277Y-1246276D01*
X8014462Y-1242974D01*
X8017764Y-1240739D01*
X8021675Y-1239977D01*
X8025536Y-1240739D01*
X8028838Y-1242974D01*
X8240725Y-1454912D01*
X8242960Y-1458214D01*
X8243722Y-1462125D01*
X8243722Y-1570634D01*
X8243163Y-1573885D01*
X8241639Y-1576781D01*
X8229346Y-1587855D01*
X8221167Y-1597558D01*
X8214461Y-1608328D01*
X8209280Y-1619910D01*
X8205825Y-1632102D01*
X8204047Y-1644650D01*
X8204047Y-1657350D01*
X8205825Y-1669897D01*
X8209280Y-1682089D01*
X8214461Y-1693672D01*
X8221167Y-1704441D01*
X8229346Y-1714144D01*
X8238744Y-1722628D01*
X8249259Y-1729689D01*
X8260638Y-1735277D01*
X8272729Y-1739188D01*
X8285175Y-1741373D01*
X8297875Y-1741830D01*
X8310473Y-1740509D01*
X8322767Y-1737461D01*
X8334552Y-1732686D01*
X8345525Y-1726336D01*
X8355533Y-1718564D01*
X8364321Y-1709420D01*
X8371789Y-1699158D01*
X8377732Y-1687982D01*
X8382050Y-1676095D01*
X8384743Y-1663293D01*
X8385606Y-1651000D01*
X8384692Y-1638350D01*
X8382050Y-1625955D01*
X8377732Y-1614017D01*
X8371789Y-1602841D01*
X8364321Y-1592580D01*
X8355533Y-1583486D01*
X8349437Y-1578711D01*
X8347354Y-1576476D01*
X8345982Y-1573733D01*
X8345525Y-1570685D01*
X8345525Y-1437030D01*
X8345322Y-1432407D01*
X8344763Y-1427988D01*
X8343798Y-1423670D01*
X8342477Y-1419402D01*
X8340750Y-1415338D01*
X8338718Y-1411376D01*
X8336330Y-1407617D01*
X8333638Y-1404112D01*
X8330488Y-1400657D01*
X7689951Y-759917D01*
X7687716Y-756564D01*
X7686954Y-752602D01*
X7687818Y-748639D01*
X7690154Y-745337D01*
X7693558Y-743204D01*
X7708188Y-741375D01*
X7717383Y-738581D01*
X7726019Y-734212D01*
X7733792Y-728472D01*
X7740446Y-721512D01*
X7745831Y-713536D01*
X7749844Y-704748D01*
X7752232Y-695401D01*
X7753096Y-685800D01*
X7752232Y-676198D01*
X7749844Y-666851D01*
X7745831Y-658063D01*
X7740446Y-650087D01*
X7737195Y-646684D01*
X7735062Y-643382D01*
X7734350Y-639521D01*
X7735163Y-635711D01*
X7737348Y-632460D01*
X7792415Y-577392D01*
X7795615Y-575208D01*
X7799425Y-574395D01*
X7803235Y-575106D01*
X7808417Y-577088D01*
X7821523Y-580186D01*
X7834934Y-581558D01*
X7848396Y-581101D01*
X7861706Y-578866D01*
X7874558Y-574852D01*
X7886801Y-569214D01*
X7898130Y-561949D01*
X7908442Y-553212D01*
X7917484Y-543255D01*
X7925104Y-532130D01*
X7931200Y-520090D01*
X7935620Y-507390D01*
X7938262Y-494182D01*
X7939176Y-480720D01*
X7938262Y-467258D01*
X7935620Y-454050D01*
X7931200Y-441350D01*
X7925104Y-429310D01*
X7917484Y-418185D01*
X7908442Y-408178D01*
X7898130Y-399491D01*
X7886801Y-392226D01*
X7874558Y-386588D01*
X7861706Y-382574D01*
X7848396Y-380339D01*
X7834934Y-379882D01*
X7821523Y-381254D01*
X7808417Y-384352D01*
X7795818Y-389229D01*
X7784033Y-395681D01*
X7773162Y-403656D01*
X7763459Y-413054D01*
X7755128Y-423621D01*
X7748270Y-435203D01*
X7742986Y-447649D01*
X7739430Y-460603D01*
X7737652Y-473964D01*
X7737652Y-487476D01*
X7739430Y-500837D01*
X7742986Y-513791D01*
X7743748Y-515518D01*
X7744510Y-519430D01*
X7743748Y-523341D01*
X7741564Y-526694D01*
X7671206Y-597052D01*
X7666126Y-603300D01*
X7662722Y-609955D01*
X7660741Y-617321D01*
X7660284Y-623214D01*
X7660284Y-637336D01*
X7659370Y-641502D01*
X7656830Y-644956D01*
X7655153Y-646430D01*
X7649057Y-653948D01*
X7644384Y-662381D01*
X7641183Y-671474D01*
X7639558Y-680974D01*
X7639558Y-691489D01*
X7638643Y-695655D01*
X7636154Y-699058D01*
X7631277Y-701548D01*
X7628178Y-702005D01*
X7625130Y-701548D01*
X7620508Y-700074D01*
X7616139Y-699109D01*
X7611770Y-698550D01*
X7607096Y-698347D01*
X7159650Y-698347D01*
X7156399Y-697788D01*
X7153452Y-696264D01*
X7151217Y-693826D01*
X7145223Y-684834D01*
X7136079Y-674420D01*
X7125665Y-665276D01*
X7114133Y-657606D01*
X7101738Y-651459D01*
X7088631Y-647039D01*
X7075017Y-644347D01*
X7061200Y-643432D01*
X7047382Y-644347D01*
X7036765Y-646430D01*
X7033463Y-646531D01*
X7030313Y-645566D01*
X7027621Y-643636D01*
X7000798Y-616813D01*
X6998563Y-613562D01*
X6997801Y-609650D01*
X6997801Y-567994D01*
X6998766Y-563676D01*
X7001509Y-560171D01*
X7005472Y-558139D01*
X7009942Y-558038D01*
X7014006Y-559816D01*
X7022033Y-565759D01*
X7033818Y-572211D01*
X7046417Y-577037D01*
X7059523Y-580186D01*
X7072934Y-581558D01*
X7086396Y-581101D01*
X7099706Y-578866D01*
X7112558Y-574852D01*
X7124801Y-569163D01*
X7136130Y-561949D01*
X7146442Y-553212D01*
X7155484Y-543204D01*
X7163104Y-532130D01*
X7169200Y-520090D01*
X7173620Y-507339D01*
X7176262Y-494131D01*
X7177176Y-480720D01*
X7176262Y-467258D01*
X7173620Y-454050D01*
X7169200Y-441299D01*
X7163104Y-429310D01*
X7155484Y-418185D01*
X7146442Y-408178D01*
X7136130Y-399491D01*
X7124801Y-392226D01*
X7112558Y-386537D01*
X7099706Y-382574D01*
X7086396Y-380339D01*
X7072934Y-379882D01*
X7059523Y-381203D01*
X7046417Y-384352D01*
X7033818Y-389178D01*
X7022033Y-395681D01*
X7012736Y-402488D01*
X7009130Y-404215D01*
X7005116Y-404368D01*
X7001357Y-402945D01*
X6998411Y-400202D01*
X6996785Y-396494D01*
X6996074Y-393192D01*
X6994753Y-388924D01*
X6993026Y-384860D01*
X6990994Y-380898D01*
X6988606Y-377139D01*
X6985914Y-373634D01*
X6982764Y-370179D01*
X6817969Y-205384D01*
X6814515Y-202234D01*
X6811009Y-199542D01*
X6807250Y-197154D01*
X6803288Y-195122D01*
X6799224Y-193395D01*
X6794957Y-192074D01*
X6790639Y-191109D01*
X6786219Y-190550D01*
X6781596Y-190347D01*
X5769051Y-190347D01*
X5764428Y-190550D01*
X5760008Y-191109D01*
X5755690Y-192074D01*
X5751423Y-193395D01*
X5747359Y-195122D01*
X5743397Y-197154D01*
X5739638Y-199542D01*
X5736132Y-202234D01*
X5732678Y-205384D01*
X5561025Y-377037D01*
X5557570Y-379323D01*
X5553506Y-380034D01*
X5548934Y-379882D01*
X5535523Y-381203D01*
X5522417Y-384352D01*
X5509818Y-389178D01*
X5498033Y-395681D01*
X5487162Y-403656D01*
X5477459Y-413054D01*
X5469128Y-423621D01*
X5462270Y-435203D01*
X5456986Y-447598D01*
X5453430Y-460603D01*
X5451652Y-473964D01*
X5451652Y-487426D01*
X5453430Y-500786D01*
X5456986Y-513791D01*
X5462270Y-526186D01*
X5469128Y-537819D01*
X5477459Y-548386D01*
X5487162Y-557733D01*
X5498033Y-565759D01*
X5509818Y-572211D01*
X5522417Y-577037D01*
X5535523Y-580186D01*
X5548934Y-581558D01*
X5562396Y-581101D01*
X5575706Y-578866D01*
X5578297Y-578053D01*
X5581904Y-577596D01*
X5585460Y-578459D01*
X5588457Y-580542D01*
X5635701Y-627684D01*
X5637936Y-630986D01*
X5638698Y-634898D01*
X5638698Y-1126642D01*
X5637936Y-1130503D01*
X5635701Y-1133805D01*
X5632399Y-1136040D01*
X5628538Y-1136802D01*
X5472887Y-1136802D01*
X5466537Y-1137513D01*
X5461101Y-1139444D01*
X5456174Y-1142492D01*
X5452110Y-1146606D01*
X5449011Y-1151483D01*
X5447080Y-1156970D01*
X5446369Y-1163269D01*
X5446369Y-1322120D01*
X5447080Y-1328470D01*
X5449011Y-1333906D01*
X5452110Y-1338834D01*
X5456174Y-1342898D01*
X5461101Y-1345996D01*
X5466537Y-1347876D01*
X5472887Y-1348638D01*
X5628538Y-1348638D01*
X5632399Y-1349400D01*
X5635701Y-1351584D01*
X5637936Y-1354886D01*
X5638698Y-1358798D01*
X5638698Y-1362506D01*
X5637936Y-1366418D01*
X5635701Y-1369669D01*
X5581751Y-1423670D01*
X5579160Y-1425549D01*
X5576112Y-1426514D01*
X5572861Y-1426514D01*
X5562396Y-1424736D01*
X5548934Y-1424279D01*
X5535523Y-1425600D01*
X5522417Y-1428750D01*
X5509818Y-1433576D01*
X5498033Y-1440078D01*
X5487162Y-1448054D01*
X5477459Y-1457452D01*
X5466283Y-1471574D01*
X5463235Y-1473301D01*
X5459780Y-1473911D01*
X5344312Y-1473403D01*
X5341213Y-1472946D01*
X5338419Y-1471523D01*
X5335168Y-1467967D01*
X5326532Y-1459331D01*
X5316778Y-1452016D01*
X5306060Y-1446174D01*
X5294630Y-1441907D01*
X5282692Y-1439316D01*
X5270500Y-1438452D01*
X5258308Y-1439316D01*
X5246370Y-1441907D01*
X5234940Y-1446174D01*
X5224221Y-1452016D01*
X5214467Y-1459331D01*
X5205831Y-1467967D01*
X5198516Y-1477721D01*
X5192674Y-1488440D01*
X5188407Y-1499870D01*
X5185816Y-1511808D01*
X5184952Y-1524000D01*
X5185816Y-1536192D01*
X5188407Y-1548130D01*
X5192674Y-1559560D01*
X5198516Y-1570278D01*
X5205831Y-1580032D01*
X5214467Y-1588668D01*
X5224221Y-1595983D01*
X5234940Y-1601825D01*
X5246370Y-1606092D01*
X5258308Y-1608683D01*
X5270500Y-1609598D01*
X5282692Y-1608683D01*
X5294630Y-1606092D01*
X5306060Y-1601825D01*
X5316778Y-1595983D01*
X5326532Y-1588668D01*
X5337962Y-1577086D01*
X5340807Y-1575714D01*
X5343906Y-1575206D01*
X5459526Y-1575714D01*
X5462981Y-1576324D01*
X5465978Y-1578051D01*
X5477459Y-1592783D01*
X5487162Y-1602130D01*
X5498033Y-1610156D01*
X5509818Y-1616608D01*
X5522417Y-1621434D01*
X5535523Y-1624584D01*
X5548934Y-1625904D01*
X5562396Y-1625498D01*
X5575706Y-1623212D01*
X5588558Y-1619250D01*
X5600801Y-1613560D01*
X5612130Y-1606296D01*
X5622442Y-1597609D01*
X5631484Y-1587601D01*
X5639104Y-1576527D01*
X5645200Y-1564487D01*
X5649620Y-1551736D01*
X5652262Y-1538528D01*
X5653176Y-1525117D01*
X5652262Y-1511655D01*
X5650890Y-1504899D01*
X5650788Y-1501597D01*
X5651754Y-1498396D01*
X5653684Y-1495704D01*
X5725464Y-1423974D01*
X5728614Y-1420520D01*
X5731306Y-1417015D01*
X5733694Y-1413256D01*
X5735726Y-1409293D01*
X5737453Y-1405229D01*
X5738774Y-1400962D01*
X5739739Y-1396644D01*
X5740298Y-1392224D01*
X5740501Y-1387602D01*
X5740501Y-1338580D01*
X5741365Y-1334516D01*
X5743803Y-1331112D01*
X5747410Y-1328978D01*
X5751525Y-1328470D01*
X5755538Y-1329690D01*
X5763818Y-1334211D01*
X5776417Y-1339037D01*
X5789523Y-1342186D01*
X5802934Y-1343558D01*
X5816396Y-1343101D01*
X5829706Y-1340866D01*
X5842558Y-1336852D01*
X5854801Y-1331163D01*
X5866130Y-1323949D01*
X5876442Y-1315212D01*
X5885484Y-1305204D01*
X5893104Y-1294130D01*
X5899200Y-1282090D01*
X5903620Y-1269339D01*
X5906262Y-1256131D01*
X5907176Y-1242720D01*
X5906262Y-1229258D01*
X5903620Y-1216050D01*
X5899200Y-1203299D01*
X5893104Y-1191310D01*
X5885484Y-1180185D01*
X5876442Y-1170178D01*
X5866130Y-1161491D01*
X5854801Y-1154226D01*
X5842558Y-1148537D01*
X5829706Y-1144574D01*
X5816396Y-1142339D01*
X5802934Y-1141882D01*
X5789523Y-1143203D01*
X5776417Y-1146352D01*
X5763818Y-1151178D01*
X5755538Y-1155750D01*
X5751525Y-1156919D01*
X5747410Y-1156462D01*
X5743803Y-1154328D01*
X5741365Y-1150924D01*
X5740501Y-1146810D01*
X5740501Y-609752D01*
X5740298Y-605078D01*
X5739739Y-600710D01*
X5738774Y-596341D01*
X5737453Y-592124D01*
X5735726Y-588010D01*
X5733694Y-584098D01*
X5731256Y-580288D01*
X5728614Y-576834D01*
X5725414Y-573379D01*
X5655106Y-503174D01*
X5652770Y-499567D01*
X5652160Y-495300D01*
X5653176Y-480669D01*
X5652262Y-467258D01*
X5649620Y-454050D01*
X5646115Y-444042D01*
X5645556Y-440334D01*
X5646420Y-436676D01*
X5648553Y-433527D01*
X5786983Y-295148D01*
X5790234Y-292912D01*
X5794146Y-292150D01*
X6756501Y-292150D01*
X6760413Y-292912D01*
X6763664Y-295148D01*
X6831279Y-362712D01*
X6833463Y-366064D01*
X6834225Y-369976D01*
X6833412Y-373938D01*
X6831075Y-377240D01*
X6827672Y-379374D01*
X6823709Y-380034D01*
X6818934Y-379882D01*
X6805523Y-381203D01*
X6792417Y-384352D01*
X6779818Y-389178D01*
X6768033Y-395681D01*
X6757162Y-403656D01*
X6747459Y-413054D01*
X6739128Y-423621D01*
X6732270Y-435203D01*
X6726986Y-447598D01*
X6723430Y-460603D01*
X6721652Y-473964D01*
X6721652Y-487426D01*
X6723430Y-500786D01*
X6726986Y-513791D01*
X6732270Y-526186D01*
X6739128Y-537819D01*
X6747459Y-548386D01*
X6757162Y-557733D01*
X6768033Y-565759D01*
X6779818Y-572211D01*
X6792417Y-577037D01*
X6805523Y-580186D01*
X6818934Y-581558D01*
X6832396Y-581101D01*
X6845706Y-578866D01*
X6858558Y-574852D01*
X6870801Y-569163D01*
X6880352Y-563067D01*
X6884416Y-561543D01*
X6888734Y-561898D01*
X6892493Y-563930D01*
X6895084Y-567385D01*
X6895998Y-571601D01*
X6895998Y-634746D01*
X6896201Y-639368D01*
X6896760Y-643788D01*
X6897725Y-648106D01*
X6899046Y-652373D01*
X6900773Y-656437D01*
X6902805Y-660400D01*
X6905193Y-664159D01*
X6907885Y-667664D01*
X6911035Y-671118D01*
X6955586Y-715619D01*
X6957517Y-718312D01*
X6958482Y-721461D01*
X6958330Y-724763D01*
X6956247Y-735482D01*
X6955332Y-749300D01*
X6956247Y-763117D01*
X6958939Y-776732D01*
X6963359Y-789838D01*
X6969506Y-802233D01*
X6977227Y-813765D01*
X6986320Y-824179D01*
X6996734Y-833323D01*
X7008266Y-840994D01*
X7020661Y-847140D01*
X7033818Y-851560D01*
X7047382Y-854303D01*
X7061200Y-855167D01*
X7075017Y-854303D01*
X7088631Y-851560D01*
X7101738Y-847140D01*
X7114133Y-840994D01*
X7125665Y-833323D01*
X7136079Y-824179D01*
X7145223Y-813765D01*
X7151268Y-804672D01*
X7153554Y-802233D01*
X7156450Y-800709D01*
X7159752Y-800150D01*
X7582001Y-800150D01*
X7585862Y-800912D01*
X7589164Y-803148D01*
X7672527Y-886510D01*
X7674711Y-889812D01*
X7675473Y-893673D01*
X7674711Y-897585D01*
X7672527Y-900887D01*
X7669225Y-903071D01*
X7665313Y-903833D01*
X6991400Y-903833D01*
X6987489Y-903071D01*
X6984187Y-900887D01*
X6807555Y-724255D01*
X6801307Y-719175D01*
X6794652Y-715772D01*
X6787286Y-713790D01*
X6781393Y-713333D01*
X6405575Y-713333D01*
X6401917Y-712673D01*
X6398717Y-710692D01*
X6396482Y-707694D01*
X6390894Y-696366D01*
X6383172Y-684834D01*
X6374079Y-674420D01*
X6363665Y-665276D01*
X6352133Y-657606D01*
X6339738Y-651459D01*
X6326581Y-647039D01*
X6313017Y-644347D01*
X6299200Y-643432D01*
X6285382Y-644347D01*
X6271768Y-647039D01*
X6258661Y-651459D01*
X6246266Y-657606D01*
X6234734Y-665276D01*
X6224320Y-674420D01*
X6215176Y-684834D01*
X6207506Y-696366D01*
X6201359Y-708761D01*
X6196939Y-721918D01*
X6194196Y-735482D01*
X6193282Y-749300D01*
X6194196Y-763117D01*
X6196939Y-776732D01*
X6201359Y-789838D01*
X6207506Y-802233D01*
X6215176Y-813765D01*
X6224320Y-824179D01*
X6234734Y-833323D01*
X6246266Y-840994D01*
X6258661Y-847140D01*
X6271768Y-851560D01*
X6285382Y-854303D01*
X6299200Y-855167D01*
X6313017Y-854303D01*
X6326581Y-851560D01*
X6339738Y-847140D01*
X6352133Y-840994D01*
X6363665Y-833323D01*
X6374079Y-824179D01*
X6383172Y-813765D01*
X6390894Y-802233D01*
X6396532Y-790803D01*
X6398768Y-787806D01*
X6401968Y-785825D01*
X6405626Y-785164D01*
X6762699Y-785164D01*
X6766610Y-785926D01*
X6769912Y-788111D01*
X6946544Y-964742D01*
X6952792Y-969822D01*
X6959447Y-973226D01*
X6966813Y-975207D01*
X6972706Y-975664D01*
X7689748Y-975664D01*
X7693659Y-976426D01*
X7696962Y-978611D01*
X7879181Y-1160881D01*
X7881366Y-1164132D01*
X7882128Y-1168044D01*
X7882128Y-1198880D01*
X7912963Y-1198880D01*
X7916875Y-1199642D01*
X7920177Y-1201826D01*
X7936738Y-1218387D01*
X7938922Y-1221689D01*
X7939684Y-1225600D01*
X7939684Y-1276400D01*
X7938922Y-1280312D01*
X7936738Y-1283614D01*
X7933436Y-1285798D01*
X7929524Y-1286560D01*
X7882128Y-1286560D01*
X7882128Y-1333347D01*
X7886801Y-1331214D01*
X7898130Y-1323949D01*
X7908442Y-1315212D01*
X7917484Y-1305255D01*
X7921142Y-1299870D01*
X7924241Y-1296924D01*
X7928305Y-1295552D01*
X7932521Y-1295908D01*
X7936280Y-1298041D01*
X7938770Y-1301445D01*
X7939684Y-1305610D01*
X7939684Y-1462176D01*
X7938770Y-1466392D01*
X7936280Y-1469796D01*
X7932521Y-1471930D01*
X7928305Y-1472285D01*
X7924241Y-1470863D01*
X7921142Y-1467967D01*
X7917484Y-1462582D01*
X7908442Y-1452575D01*
X7898130Y-1443888D01*
X7886801Y-1436624D01*
X7874558Y-1430985D01*
X7861706Y-1426972D01*
X7848396Y-1424736D01*
X7834934Y-1424279D01*
X7821523Y-1425651D01*
X7808417Y-1428750D01*
X7795818Y-1433576D01*
X7784033Y-1440078D01*
X7773162Y-1448054D01*
X7763459Y-1457452D01*
X7755128Y-1468018D01*
X7748270Y-1479600D01*
X7742986Y-1491996D01*
X7739430Y-1505000D01*
X7737652Y-1518361D01*
X7737652Y-1531874D01*
X7739430Y-1545183D01*
X7742986Y-1558188D01*
X7748270Y-1570634D01*
X7755128Y-1582216D01*
X7763459Y-1592783D01*
X7773162Y-1602130D01*
X7784033Y-1610156D01*
X7795818Y-1616608D01*
X7808417Y-1621485D01*
X7821523Y-1624584D01*
X7834934Y-1625955D01*
X7848396Y-1625498D01*
X7861706Y-1623263D01*
X7874558Y-1619250D01*
X7886801Y-1613560D01*
X7898130Y-1606346D01*
X7908442Y-1597609D01*
X7917484Y-1587652D01*
X7921142Y-1582267D01*
X7924241Y-1579321D01*
X7928305Y-1577949D01*
X7932521Y-1578305D01*
X7936280Y-1580438D01*
X7938770Y-1583842D01*
X7939684Y-1588008D01*
X7939684Y-1625092D01*
X7940548Y-1633067D01*
X7942834Y-1640179D01*
X7946644Y-1646783D01*
X7950504Y-1651304D01*
X8267293Y-1968042D01*
X8273491Y-1973122D01*
X8280196Y-1976526D01*
X8287562Y-1978507D01*
X8293455Y-1978964D01*
X8569198Y-1978964D01*
X8573109Y-1979726D01*
X8576411Y-1981911D01*
X8578596Y-1985213D01*
X8579358Y-1989124D01*
X8578596Y-1992985D01*
X8576411Y-1996287D01*
X8571331Y-2001367D01*
X8564016Y-2011121D01*
X8558530Y-2021230D01*
X8599830Y-2021230D01*
X8599830Y-1989124D01*
X8600592Y-1985213D01*
X8602776Y-1981911D01*
X8606078Y-1979726D01*
X8609990Y-1978964D01*
X8662060Y-1978964D01*
X8665921Y-1979726D01*
X8669223Y-1981911D01*
X8671407Y-1985213D01*
X8672220Y-1989124D01*
X8672220Y-2021230D01*
X8713470Y-2021230D01*
X8707983Y-2011121D01*
X8700668Y-2001367D01*
X8695588Y-1996287D01*
X8693404Y-1992985D01*
X8692642Y-1989124D01*
X8693404Y-1985213D01*
X8695588Y-1981911D01*
X8698890Y-1979726D01*
X8702802Y-1978964D01*
X8823198Y-1978964D01*
X8827109Y-1979726D01*
X8830411Y-1981911D01*
X8832596Y-1985213D01*
X8833358Y-1989124D01*
X8832596Y-1992985D01*
X8830411Y-1996287D01*
X8825331Y-2001367D01*
X8818016Y-2011121D01*
X8812174Y-2021839D01*
X8807907Y-2033270D01*
X8805316Y-2045207D01*
X8804452Y-2057400D01*
X8805011Y-2065375D01*
X8804402Y-2069693D01*
X8802065Y-2073300D01*
X8757564Y-2117750D01*
X8754313Y-2119985D01*
X8750401Y-2120747D01*
X8715502Y-2120747D01*
X8711133Y-2119782D01*
X8707628Y-2116988D01*
X8705646Y-2113026D01*
X8705545Y-2108555D01*
X8707983Y-2103678D01*
X8713470Y-2093620D01*
X8672220Y-2093620D01*
X8672220Y-2110587D01*
X8671407Y-2114448D01*
X8669223Y-2117750D01*
X8665921Y-2119985D01*
X8662060Y-2120747D01*
X8609990Y-2120747D01*
X8606078Y-2119985D01*
X8602776Y-2117750D01*
X8600592Y-2114448D01*
X8599830Y-2110587D01*
X8599830Y-2093620D01*
X8558530Y-2093620D01*
X8564016Y-2103678D01*
X8566454Y-2108555D01*
X8566353Y-2113026D01*
X8564372Y-2116988D01*
X8560866Y-2119782D01*
X8556498Y-2120747D01*
X8483803Y-2120747D01*
X8479180Y-2120950D01*
X8474760Y-2121509D01*
X8470442Y-2122474D01*
X8466175Y-2123795D01*
X8462111Y-2125522D01*
X8458149Y-2127554D01*
X8454390Y-2129942D01*
X8450884Y-2132634D01*
X8447430Y-2135784D01*
X8345779Y-2237435D01*
X8343493Y-2239162D01*
X8340801Y-2240178D01*
X8332470Y-2242007D01*
X8321040Y-2246274D01*
X8310321Y-2252116D01*
X8300567Y-2259431D01*
X8291931Y-2268067D01*
X8284616Y-2277821D01*
X8278774Y-2288540D01*
X8274507Y-2299970D01*
X8271916Y-2311908D01*
X8271052Y-2324100D01*
X8271916Y-2336292D01*
X8274507Y-2348230D01*
X8278774Y-2359660D01*
X8284616Y-2370378D01*
X8291931Y-2380132D01*
X8300567Y-2388768D01*
X8310321Y-2396083D01*
X8321040Y-2401925D01*
X8332470Y-2406192D01*
X8339581Y-2407767D01*
X8343442Y-2409494D01*
X8346236Y-2412644D01*
X8347557Y-2416657D01*
X8347100Y-2420823D01*
X8344966Y-2424480D01*
X8341563Y-2426970D01*
X8337448Y-2427833D01*
X7780070Y-2427833D01*
X7776159Y-2427071D01*
X7772857Y-2424887D01*
X7681010Y-2332990D01*
X7678877Y-2329891D01*
X7678013Y-2326182D01*
X7678572Y-2322474D01*
X7681620Y-2313736D01*
X7684262Y-2300528D01*
X7685176Y-2287117D01*
X7684262Y-2273655D01*
X7681620Y-2260447D01*
X7677200Y-2247696D01*
X7671104Y-2235708D01*
X7663484Y-2224582D01*
X7654442Y-2214575D01*
X7644130Y-2205888D01*
X7632801Y-2198624D01*
X7620558Y-2192934D01*
X7607706Y-2188972D01*
X7594396Y-2186736D01*
X7580934Y-2186279D01*
X7567523Y-2187600D01*
X7554417Y-2190750D01*
X7541818Y-2195576D01*
X7530033Y-2202078D01*
X7519162Y-2210054D01*
X7505750Y-2222754D01*
X7501737Y-2223922D01*
X7497622Y-2223414D01*
X7494066Y-2221280D01*
X7491679Y-2217877D01*
X7490815Y-2213813D01*
X7490815Y-1598371D01*
X7491679Y-1594307D01*
X7494066Y-1590903D01*
X7497622Y-1588770D01*
X7501737Y-1588262D01*
X7505750Y-1589430D01*
X7519162Y-1602130D01*
X7530033Y-1610156D01*
X7541818Y-1616608D01*
X7554417Y-1621434D01*
X7567523Y-1624584D01*
X7580934Y-1625904D01*
X7594396Y-1625498D01*
X7607706Y-1623212D01*
X7620558Y-1619250D01*
X7632801Y-1613560D01*
X7644130Y-1606296D01*
X7654442Y-1597609D01*
X7663484Y-1587601D01*
X7671104Y-1576527D01*
X7677200Y-1564487D01*
X7681620Y-1551736D01*
X7684262Y-1538528D01*
X7685176Y-1525117D01*
X7684262Y-1511655D01*
X7681620Y-1498447D01*
X7677200Y-1485696D01*
X7671104Y-1473708D01*
X7663484Y-1462582D01*
X7654442Y-1452575D01*
X7644130Y-1443888D01*
X7632801Y-1436624D01*
X7620558Y-1430934D01*
X7607706Y-1426972D01*
X7594396Y-1424736D01*
X7580934Y-1424279D01*
X7567523Y-1425600D01*
X7554417Y-1428750D01*
X7541818Y-1433576D01*
X7530033Y-1440078D01*
X7519162Y-1448054D01*
X7505750Y-1460754D01*
X7501737Y-1461922D01*
X7497622Y-1461414D01*
X7494066Y-1459280D01*
X7491679Y-1455877D01*
X7490815Y-1451813D01*
X7490815Y-1315974D01*
X7491679Y-1311910D01*
X7494066Y-1308557D01*
X7497622Y-1306372D01*
X7501737Y-1305864D01*
X7505750Y-1307033D01*
X7519162Y-1319733D01*
X7530033Y-1327759D01*
X7541818Y-1334211D01*
X7554417Y-1339037D01*
X7567523Y-1342186D01*
X7580934Y-1343507D01*
X7594396Y-1343101D01*
X7607706Y-1340815D01*
X7620558Y-1336852D01*
X7632801Y-1331163D01*
X7644130Y-1323898D01*
X7654442Y-1315212D01*
X7663484Y-1305204D01*
X7671104Y-1294130D01*
X7677200Y-1282090D01*
X7681620Y-1269339D01*
X7684262Y-1256131D01*
X7685176Y-1242720D01*
X7684262Y-1229258D01*
X7681620Y-1216050D01*
X7677200Y-1203299D01*
X7671104Y-1191310D01*
X7663484Y-1180185D01*
X7654442Y-1170178D01*
X7644130Y-1161491D01*
X7632801Y-1154226D01*
X7620558Y-1148537D01*
X7607706Y-1144574D01*
X7594396Y-1142339D01*
X7580934Y-1141882D01*
X7567523Y-1143203D01*
X7554417Y-1146352D01*
X7541818Y-1151178D01*
X7530033Y-1157681D01*
X7519162Y-1165656D01*
X7509459Y-1175054D01*
X7507731Y-1177188D01*
X7504379Y-1179982D01*
X7500162Y-1181049D01*
X7495895Y-1180287D01*
X7492339Y-1177798D01*
X7490104Y-1174038D01*
X7487666Y-1166469D01*
X7483856Y-1159865D01*
X7479995Y-1155395D01*
X7379055Y-1054455D01*
X7372807Y-1049375D01*
X7366152Y-1045971D01*
X7358786Y-1043990D01*
X7352893Y-1043533D01*
X6343700Y-1043533D01*
X6339789Y-1042771D01*
X6336487Y-1040587D01*
X6099048Y-803148D01*
X6096863Y-799846D01*
X6096101Y-795934D01*
X6096101Y-581558D01*
X6096812Y-577799D01*
X6098895Y-574548D01*
X6101994Y-572312D01*
X6108801Y-569163D01*
X6120130Y-561949D01*
X6130442Y-553212D01*
X6139484Y-543204D01*
X6147104Y-532130D01*
X6153200Y-520090D01*
X6157620Y-507339D01*
X6160262Y-494131D01*
X6161176Y-480720D01*
X6160262Y-467258D01*
X6157620Y-454050D01*
X6153200Y-441299D01*
X6147104Y-429310D01*
X6139484Y-418185D01*
X6130442Y-408178D01*
X6120130Y-399491D01*
X6108801Y-392226D01*
X6096558Y-386537D01*
X6083706Y-382574D01*
X6070396Y-380339D01*
X6056934Y-379882D01*
X6043523Y-381203D01*
X6030417Y-384352D01*
X6017818Y-389178D01*
X6006033Y-395681D01*
X5995162Y-403656D01*
X5985459Y-413054D01*
X5977128Y-423621D01*
X5970270Y-435203D01*
X5964986Y-447598D01*
X5961430Y-460603D01*
X5959652Y-473964D01*
X5959652Y-487426D01*
X5961430Y-500786D01*
X5964986Y-513791D01*
X5970270Y-526186D01*
X5977128Y-537819D01*
X5985459Y-548386D01*
X5995162Y-557733D01*
X6005982Y-565708D01*
X6018936Y-572719D01*
X6021781Y-575005D01*
X6023610Y-578104D01*
X6024270Y-581660D01*
X6024270Y-814527D01*
X6025134Y-822502D01*
X6027420Y-829614D01*
X6031230Y-836218D01*
X6035090Y-840689D01*
X6298844Y-1104442D01*
X6305092Y-1109522D01*
X6311747Y-1112926D01*
X6319113Y-1114907D01*
X6325006Y-1115364D01*
X7334199Y-1115364D01*
X7338110Y-1116126D01*
X7341412Y-1118311D01*
X7348067Y-1125016D01*
X7350302Y-1128318D01*
X7351014Y-1132281D01*
X7350201Y-1136243D01*
X7347915Y-1139494D01*
X7344511Y-1141679D01*
X7340549Y-1142339D01*
X7326934Y-1141882D01*
X7313523Y-1143203D01*
X7300417Y-1146352D01*
X7287818Y-1151178D01*
X7276033Y-1157681D01*
X7265162Y-1165656D01*
X7255459Y-1175054D01*
X7247128Y-1185621D01*
X7240270Y-1197203D01*
X7234986Y-1209598D01*
X7231430Y-1222603D01*
X7229652Y-1235964D01*
X7229652Y-1249426D01*
X7231430Y-1262786D01*
X7234986Y-1275791D01*
X7240270Y-1288186D01*
X7247128Y-1299819D01*
X7255459Y-1310386D01*
X7265162Y-1319733D01*
X7276033Y-1327759D01*
X7287818Y-1334211D01*
X7300417Y-1339037D01*
X7313523Y-1342186D01*
X7326934Y-1343558D01*
X7340396Y-1343101D01*
X7353706Y-1340866D01*
X7366558Y-1336852D01*
X7378801Y-1331163D01*
X7390130Y-1323949D01*
X7404557Y-1311859D01*
X7408468Y-1310944D01*
X7412481Y-1311605D01*
X7415885Y-1313789D01*
X7418171Y-1317091D01*
X7418984Y-1321104D01*
X7418984Y-1446733D01*
X7418171Y-1450695D01*
X7415885Y-1454048D01*
X7412481Y-1456182D01*
X7408468Y-1456893D01*
X7404557Y-1455928D01*
X7390130Y-1443888D01*
X7378801Y-1436624D01*
X7366558Y-1430934D01*
X7353706Y-1426972D01*
X7340396Y-1424736D01*
X7326934Y-1424279D01*
X7313523Y-1425600D01*
X7300417Y-1428750D01*
X7287818Y-1433576D01*
X7276033Y-1440078D01*
X7265670Y-1447647D01*
X7261606Y-1449476D01*
X7257186Y-1449324D01*
X7253224Y-1447342D01*
X7250480Y-1443837D01*
X7249515Y-1439468D01*
X7249515Y-1380693D01*
X7248652Y-1372717D01*
X7246366Y-1365605D01*
X7242556Y-1359001D01*
X7238695Y-1354531D01*
X7172959Y-1288745D01*
X7170826Y-1285646D01*
X7169962Y-1281938D01*
X7170521Y-1278229D01*
X7173620Y-1269339D01*
X7176262Y-1256131D01*
X7177176Y-1242720D01*
X7176262Y-1229258D01*
X7173620Y-1216050D01*
X7169200Y-1203299D01*
X7163104Y-1191310D01*
X7155484Y-1180185D01*
X7146442Y-1170178D01*
X7136130Y-1161491D01*
X7124801Y-1154226D01*
X7112558Y-1148537D01*
X7099706Y-1144574D01*
X7086396Y-1142339D01*
X7072934Y-1141882D01*
X7059523Y-1143203D01*
X7046417Y-1146352D01*
X7033818Y-1151178D01*
X7022033Y-1157681D01*
X7011162Y-1165656D01*
X7001459Y-1175054D01*
X6993128Y-1185621D01*
X6986270Y-1197203D01*
X6980986Y-1209598D01*
X6977430Y-1222603D01*
X6975652Y-1235964D01*
X6975652Y-1249426D01*
X6977430Y-1262786D01*
X6980986Y-1275791D01*
X6986270Y-1288186D01*
X6993128Y-1299819D01*
X7001459Y-1310386D01*
X7011162Y-1319733D01*
X7022033Y-1327759D01*
X7033818Y-1334211D01*
X7046417Y-1339037D01*
X7059523Y-1342186D01*
X7072934Y-1343558D01*
X7086396Y-1343101D01*
X7099706Y-1340866D01*
X7112000Y-1337005D01*
X7115606Y-1336598D01*
X7119162Y-1337462D01*
X7122159Y-1339545D01*
X7174738Y-1392072D01*
X7176922Y-1395374D01*
X7177684Y-1399286D01*
X7177684Y-1462176D01*
X7176770Y-1466342D01*
X7174280Y-1469796D01*
X7170521Y-1471879D01*
X7166305Y-1472285D01*
X7162241Y-1470863D01*
X7159142Y-1467916D01*
X7155484Y-1462582D01*
X7146442Y-1452575D01*
X7136130Y-1443888D01*
X7124801Y-1436624D01*
X7112558Y-1430934D01*
X7099706Y-1426972D01*
X7086396Y-1424736D01*
X7072934Y-1424279D01*
X7059523Y-1425600D01*
X7046417Y-1428750D01*
X7033818Y-1433576D01*
X7022033Y-1440078D01*
X7011162Y-1448054D01*
X7001459Y-1457452D01*
X6997750Y-1460754D01*
X6993737Y-1461922D01*
X6989622Y-1461414D01*
X6986066Y-1459280D01*
X6983679Y-1455877D01*
X6982815Y-1451813D01*
X6982815Y-1359662D01*
X6981952Y-1351635D01*
X6979666Y-1344523D01*
X6975856Y-1337919D01*
X6971995Y-1333449D01*
X6921093Y-1282496D01*
X6918959Y-1279398D01*
X6918147Y-1275740D01*
X6918655Y-1271981D01*
X6919620Y-1269339D01*
X6922262Y-1256131D01*
X6923176Y-1242720D01*
X6922262Y-1229258D01*
X6919620Y-1216050D01*
X6915200Y-1203299D01*
X6909104Y-1191310D01*
X6901484Y-1180185D01*
X6892442Y-1170178D01*
X6882130Y-1161491D01*
X6870801Y-1154226D01*
X6858558Y-1148537D01*
X6845706Y-1144574D01*
X6832396Y-1142339D01*
X6818934Y-1141882D01*
X6805523Y-1143203D01*
X6792417Y-1146352D01*
X6779818Y-1151178D01*
X6768033Y-1157681D01*
X6757162Y-1165656D01*
X6747459Y-1175054D01*
X6739128Y-1185621D01*
X6732270Y-1197203D01*
X6726986Y-1209598D01*
X6723430Y-1222603D01*
X6721652Y-1235964D01*
X6721652Y-1249426D01*
X6723430Y-1262786D01*
X6726986Y-1275791D01*
X6732270Y-1288186D01*
X6739128Y-1299819D01*
X6747459Y-1310386D01*
X6757162Y-1319733D01*
X6768033Y-1327759D01*
X6779818Y-1334211D01*
X6792417Y-1339037D01*
X6805523Y-1342186D01*
X6818934Y-1343558D01*
X6832396Y-1343101D01*
X6845706Y-1340866D01*
X6858558Y-1336852D01*
X6862572Y-1334973D01*
X6866585Y-1334058D01*
X6870598Y-1334770D01*
X6874052Y-1337005D01*
X6908038Y-1370990D01*
X6910222Y-1374292D01*
X6910984Y-1378204D01*
X6910984Y-1446733D01*
X6910171Y-1450695D01*
X6907885Y-1454048D01*
X6904481Y-1456182D01*
X6900468Y-1456893D01*
X6896557Y-1455928D01*
X6882130Y-1443888D01*
X6870801Y-1436624D01*
X6858558Y-1430934D01*
X6845706Y-1426972D01*
X6832396Y-1424736D01*
X6818934Y-1424279D01*
X6805523Y-1425600D01*
X6792417Y-1428750D01*
X6779818Y-1433576D01*
X6768033Y-1440078D01*
X6757162Y-1448054D01*
X6747459Y-1457452D01*
X6743750Y-1460754D01*
X6739737Y-1461922D01*
X6735622Y-1461414D01*
X6732066Y-1459280D01*
X6729679Y-1455877D01*
X6728815Y-1451813D01*
X6728815Y-1367993D01*
X6727952Y-1360017D01*
X6725666Y-1352905D01*
X6721856Y-1346301D01*
X6717995Y-1341831D01*
X6664959Y-1288745D01*
X6662826Y-1285646D01*
X6661962Y-1281938D01*
X6662521Y-1278229D01*
X6665620Y-1269339D01*
X6668262Y-1256131D01*
X6669176Y-1242720D01*
X6668262Y-1229258D01*
X6665620Y-1216050D01*
X6661200Y-1203299D01*
X6655104Y-1191310D01*
X6647484Y-1180185D01*
X6638442Y-1170178D01*
X6628130Y-1161491D01*
X6616801Y-1154226D01*
X6604558Y-1148537D01*
X6591706Y-1144574D01*
X6578396Y-1142339D01*
X6564934Y-1141882D01*
X6551523Y-1143203D01*
X6538417Y-1146352D01*
X6525818Y-1151178D01*
X6514033Y-1157681D01*
X6503162Y-1165656D01*
X6493459Y-1175054D01*
X6485128Y-1185621D01*
X6478270Y-1197203D01*
X6472986Y-1209598D01*
X6469430Y-1222603D01*
X6467652Y-1235964D01*
X6467652Y-1249426D01*
X6469430Y-1262786D01*
X6472986Y-1275791D01*
X6478270Y-1288186D01*
X6485128Y-1299819D01*
X6493459Y-1310386D01*
X6503162Y-1319733D01*
X6514033Y-1327759D01*
X6525818Y-1334211D01*
X6538417Y-1339037D01*
X6551523Y-1342186D01*
X6564934Y-1343558D01*
X6578396Y-1343101D01*
X6591706Y-1340866D01*
X6604000Y-1337005D01*
X6607606Y-1336598D01*
X6611162Y-1337462D01*
X6614159Y-1339545D01*
X6654038Y-1379372D01*
X6656222Y-1382674D01*
X6656984Y-1386586D01*
X6656984Y-1446733D01*
X6656171Y-1450695D01*
X6653885Y-1454048D01*
X6650481Y-1456182D01*
X6646468Y-1456893D01*
X6642557Y-1455928D01*
X6628130Y-1443888D01*
X6616801Y-1436624D01*
X6604558Y-1430934D01*
X6591706Y-1426972D01*
X6578396Y-1424736D01*
X6564934Y-1424279D01*
X6551523Y-1425600D01*
X6538417Y-1428750D01*
X6525818Y-1433576D01*
X6514033Y-1440078D01*
X6503162Y-1448054D01*
X6493459Y-1457452D01*
X6489750Y-1460754D01*
X6485737Y-1461922D01*
X6481622Y-1461414D01*
X6478066Y-1459280D01*
X6475679Y-1455877D01*
X6474815Y-1451813D01*
X6474815Y-1367993D01*
X6473952Y-1360017D01*
X6471666Y-1352905D01*
X6467856Y-1346301D01*
X6463995Y-1341831D01*
X6410960Y-1288745D01*
X6408826Y-1285646D01*
X6407962Y-1281938D01*
X6408521Y-1278229D01*
X6411620Y-1269339D01*
X6414262Y-1256131D01*
X6415176Y-1242720D01*
X6414262Y-1229258D01*
X6411620Y-1216050D01*
X6407200Y-1203299D01*
X6401104Y-1191310D01*
X6393484Y-1180185D01*
X6384442Y-1170178D01*
X6374130Y-1161491D01*
X6362801Y-1154226D01*
X6350558Y-1148537D01*
X6337706Y-1144574D01*
X6324396Y-1142339D01*
X6310934Y-1141882D01*
X6297523Y-1143203D01*
X6284417Y-1146352D01*
X6271818Y-1151178D01*
X6260033Y-1157681D01*
X6248450Y-1166215D01*
X6244996Y-1167892D01*
X6241186Y-1168146D01*
X6237579Y-1166977D01*
X6234633Y-1164539D01*
X6232753Y-1161186D01*
X6230366Y-1153769D01*
X6226556Y-1147165D01*
X6222695Y-1142695D01*
X5845048Y-765048D01*
X5842863Y-761746D01*
X5842101Y-757834D01*
X5842101Y-581558D01*
X5842812Y-577799D01*
X5844895Y-574548D01*
X5847994Y-572312D01*
X5854801Y-569163D01*
X5866130Y-561949D01*
X5876442Y-553212D01*
X5885484Y-543204D01*
X5893104Y-532130D01*
X5899200Y-520090D01*
X5903620Y-507339D01*
X5906262Y-494131D01*
X5907176Y-480720D01*
X5906262Y-467258D01*
X5903620Y-454050D01*
X5899200Y-441299D01*
X5893104Y-429310D01*
X5885484Y-418185D01*
X5876442Y-408178D01*
X5866130Y-399491D01*
X5854801Y-392226D01*
X5842558Y-386537D01*
X5829706Y-382574D01*
X5816396Y-380339D01*
X5802934Y-379882D01*
X5789523Y-381203D01*
X5776417Y-384352D01*
X5763818Y-389178D01*
X5752033Y-395681D01*
X5741162Y-403656D01*
X5731459Y-413054D01*
X5723128Y-423621D01*
X5716270Y-435203D01*
X5710986Y-447598D01*
X5707430Y-460603D01*
X5705652Y-473964D01*
X5705652Y-487426D01*
X5707430Y-500786D01*
X5710986Y-513791D01*
X5716270Y-526186D01*
X5723128Y-537819D01*
X5731459Y-548386D01*
X5741162Y-557733D01*
X5751982Y-565708D01*
X5764936Y-572719D01*
X5767781Y-575005D01*
X5769610Y-578104D01*
X5770270Y-581660D01*
X5770270Y-776427D01*
X5771134Y-784402D01*
X5773420Y-791514D01*
X5777230Y-798118D01*
X5781090Y-802589D01*
X6112916Y-1134414D01*
X6115100Y-1137767D01*
X6115862Y-1141730D01*
X6114999Y-1145641D01*
X6112713Y-1148943D01*
X6109309Y-1151128D01*
X6105347Y-1151737D01*
X6101435Y-1150823D01*
X6096558Y-1148537D01*
X6083706Y-1144574D01*
X6070396Y-1142339D01*
X6056934Y-1141882D01*
X6043523Y-1143203D01*
X6030417Y-1146352D01*
X6017818Y-1151178D01*
X6006033Y-1157681D01*
X5995162Y-1165656D01*
X5985459Y-1175054D01*
X5977128Y-1185621D01*
X5970270Y-1197203D01*
X5964986Y-1209598D01*
X5961430Y-1222603D01*
X5959652Y-1235964D01*
X5959652Y-1249426D01*
X5961430Y-1262786D01*
X5966358Y-1281023D01*
X5965596Y-1284935D01*
X5963412Y-1288288D01*
X5905906Y-1345793D01*
X5900826Y-1352042D01*
X5897422Y-1358696D01*
X5895441Y-1366062D01*
X5894984Y-1371955D01*
X5894984Y-1446733D01*
X5894171Y-1450695D01*
X5891885Y-1454048D01*
X5888482Y-1456182D01*
X5884468Y-1456893D01*
X5880557Y-1455928D01*
X5866130Y-1443888D01*
X5854801Y-1436624D01*
X5842558Y-1430934D01*
X5829706Y-1426972D01*
X5816396Y-1424736D01*
X5802934Y-1424279D01*
X5789523Y-1425600D01*
X5776417Y-1428750D01*
X5763818Y-1433576D01*
X5752033Y-1440078D01*
X5741162Y-1448054D01*
X5731459Y-1457452D01*
X5723128Y-1468018D01*
X5716270Y-1479600D01*
X5710986Y-1491996D01*
X5707430Y-1505000D01*
X5705652Y-1518361D01*
X5705652Y-1531823D01*
X5707430Y-1545183D01*
X5710986Y-1558188D01*
X5716270Y-1570583D01*
X5723128Y-1582216D01*
X5731459Y-1592783D01*
X5741162Y-1602130D01*
X5752033Y-1610156D01*
X5763818Y-1616608D01*
X5776417Y-1621434D01*
X5789523Y-1624584D01*
X5802934Y-1625904D01*
X5816396Y-1625498D01*
X5829706Y-1623212D01*
X5842558Y-1619250D01*
X5854801Y-1613560D01*
X5866130Y-1606296D01*
X5880557Y-1594256D01*
X5884468Y-1593342D01*
X5888482Y-1594002D01*
X5891885Y-1596186D01*
X5894171Y-1599488D01*
X5894984Y-1603502D01*
X5894984Y-1796948D01*
X5894222Y-1800860D01*
X5892038Y-1804162D01*
X5588812Y-2107387D01*
X5585510Y-2109571D01*
X5581599Y-2110333D01*
X5372608Y-2110333D01*
X5364632Y-2111197D01*
X5357520Y-2113483D01*
X5350916Y-2117293D01*
X5346446Y-2121154D01*
X5285638Y-2181910D01*
X5282336Y-2184095D01*
X5278475Y-2184908D01*
X5274564Y-2184095D01*
X5271262Y-2181910D01*
X5269077Y-2178608D01*
X5268315Y-2174748D01*
X5268315Y-2108657D01*
X5267452Y-2100681D01*
X5265166Y-2093569D01*
X5261356Y-2086965D01*
X5257495Y-2082495D01*
X5029962Y-1854962D01*
X5027777Y-1851660D01*
X5027015Y-1847748D01*
X5027015Y-1809902D01*
X5027625Y-1806448D01*
X5029352Y-1803400D01*
X5031994Y-1801164D01*
X5036159Y-1798675D01*
X5046878Y-1790192D01*
X5056378Y-1780387D01*
X5064455Y-1769414D01*
X5071008Y-1757476D01*
X5075885Y-1744725D01*
X5079085Y-1731467D01*
X5080406Y-1717903D01*
X5079949Y-1704289D01*
X5077714Y-1690827D01*
X5073650Y-1677822D01*
X5067909Y-1665427D01*
X5060594Y-1653946D01*
X5051806Y-1643532D01*
X5041646Y-1634388D01*
X5030419Y-1626666D01*
X5018278Y-1620520D01*
X5005374Y-1616049D01*
X4992014Y-1613306D01*
X4978400Y-1612442D01*
X4964785Y-1613306D01*
X4951425Y-1616049D01*
X4938522Y-1620520D01*
X4926380Y-1626666D01*
X4915154Y-1634388D01*
X4904282Y-1644243D01*
X4900980Y-1646275D01*
X4897170Y-1646885D01*
X4893360Y-1646021D01*
X4890160Y-1643786D01*
X4888026Y-1640535D01*
X4887315Y-1636725D01*
X4887315Y-1397457D01*
X4886452Y-1389481D01*
X4884166Y-1382369D01*
X4880356Y-1375765D01*
X4876495Y-1371295D01*
X4534255Y-1029055D01*
X4528007Y-1023975D01*
X4521352Y-1020571D01*
X4513986Y-1018590D01*
X4508093Y-1018133D01*
X3229152Y-1018133D01*
X3225241Y-1017371D01*
X3221939Y-1015187D01*
X3034639Y-827887D01*
X3032252Y-824128D01*
X3031744Y-819708D01*
X3033115Y-815492D01*
X3037535Y-808024D01*
X3042818Y-795477D01*
X3046425Y-782320D01*
X3048254Y-768807D01*
X3048254Y-755192D01*
X3046425Y-741680D01*
X3042818Y-728522D01*
X3037535Y-715975D01*
X3030575Y-704240D01*
X3022092Y-693521D01*
X3012287Y-684022D01*
X3001314Y-675944D01*
X2989376Y-669391D01*
X2976626Y-664514D01*
X2963367Y-661314D01*
X2949803Y-659993D01*
X2936189Y-660450D01*
X2922727Y-662686D01*
X2909722Y-666750D01*
X2897327Y-672490D01*
X2893161Y-675132D01*
X2890012Y-676452D01*
X2886608Y-676656D01*
X2883306Y-675741D01*
X2880512Y-673760D01*
X2743962Y-537210D01*
X2741777Y-533908D01*
X2741015Y-529996D01*
X2741015Y-285902D01*
X2741625Y-282448D01*
X2743352Y-279400D01*
X2745994Y-277164D01*
X2750159Y-274675D01*
X2760878Y-266192D01*
X2770378Y-256387D01*
X2778455Y-245414D01*
X2785008Y-233476D01*
X2789885Y-220725D01*
X2793085Y-207467D01*
X2794406Y-193903D01*
X2793949Y-180289D01*
X2791714Y-166827D01*
X2787650Y-153822D01*
X2781909Y-141427D01*
X2774594Y-129946D01*
X2765806Y-119532D01*
X2755646Y-110388D01*
X2744419Y-102666D01*
X2732278Y-96520D01*
X2719374Y-92049D01*
X2706014Y-89306D01*
X2692400Y-88442D01*
X2678785Y-89306D01*
X2665425Y-92049D01*
X2652522Y-96520D01*
X2640380Y-102666D01*
X2629154Y-110388D01*
X2618994Y-119532D01*
X2610205Y-129946D01*
X2602890Y-141427D01*
X2597150Y-153822D01*
X2593086Y-166827D01*
X2590850Y-180289D01*
X2590393Y-193903D01*
X2591714Y-207467D01*
X2594914Y-220725D01*
X2599791Y-233476D01*
X2606344Y-245414D01*
X2614422Y-256387D01*
X2623921Y-266192D01*
X2634640Y-274675D01*
X2646375Y-281635D01*
X2658922Y-286918D01*
X2661716Y-287731D01*
X2665577Y-289763D01*
X2668270Y-293217D01*
X2669184Y-297484D01*
X2669184Y-548589D01*
X2670048Y-556564D01*
X2672334Y-563676D01*
X2676144Y-570280D01*
X2680004Y-574751D01*
X2842768Y-737565D01*
X2844698Y-740257D01*
X2845663Y-743458D01*
X2844292Y-762000D01*
X2845206Y-775614D01*
X2847949Y-788974D01*
X2852420Y-801878D01*
X2858566Y-814019D01*
X2866288Y-825246D01*
X2875432Y-835406D01*
X2885846Y-844194D01*
X2897327Y-851509D01*
X2909722Y-857250D01*
X2922727Y-861314D01*
X2936189Y-863600D01*
X2949803Y-864006D01*
X2962656Y-862736D01*
X2967126Y-863295D01*
X2970885Y-865682D01*
X3184296Y-1079042D01*
X3190544Y-1084122D01*
X3197199Y-1087526D01*
X3204565Y-1089507D01*
X3210458Y-1089964D01*
X4489399Y-1089964D01*
X4493310Y-1090726D01*
X4496612Y-1092911D01*
X4812538Y-1408836D01*
X4814722Y-1412138D01*
X4815484Y-1416050D01*
X4815484Y-1636725D01*
X4814773Y-1640535D01*
X4812639Y-1643786D01*
X4809439Y-1646021D01*
X4805629Y-1646885D01*
X4801819Y-1646275D01*
X4798517Y-1644243D01*
X4787646Y-1634388D01*
X4776419Y-1626666D01*
X4764278Y-1620520D01*
X4751374Y-1616049D01*
X4738014Y-1613306D01*
X4724400Y-1612442D01*
X4710785Y-1613306D01*
X4697425Y-1616049D01*
X4684522Y-1620520D01*
X4672380Y-1626666D01*
X4661154Y-1634388D01*
X4650282Y-1644243D01*
X4646980Y-1646275D01*
X4643170Y-1646885D01*
X4639360Y-1646021D01*
X4636160Y-1643786D01*
X4634026Y-1640535D01*
X4633315Y-1636725D01*
X4633315Y-1397457D01*
X4632452Y-1389481D01*
X4630166Y-1382369D01*
X4626356Y-1375765D01*
X4622495Y-1371295D01*
X4381855Y-1130655D01*
X4375607Y-1125575D01*
X4368952Y-1122172D01*
X4361586Y-1120190D01*
X4355693Y-1119733D01*
X3076752Y-1119733D01*
X3072841Y-1118971D01*
X3069539Y-1116787D01*
X2780639Y-827887D01*
X2778252Y-824128D01*
X2777744Y-819708D01*
X2779115Y-815492D01*
X2783535Y-808024D01*
X2788818Y-795477D01*
X2792425Y-782320D01*
X2794254Y-768807D01*
X2794254Y-755192D01*
X2792425Y-741680D01*
X2788818Y-728522D01*
X2783535Y-715975D01*
X2776575Y-704240D01*
X2768092Y-693521D01*
X2758287Y-684022D01*
X2747314Y-675944D01*
X2735376Y-669391D01*
X2722626Y-664514D01*
X2709367Y-661314D01*
X2695803Y-659993D01*
X2682189Y-660450D01*
X2668727Y-662686D01*
X2655722Y-666750D01*
X2643327Y-672490D01*
X2639161Y-675132D01*
X2636012Y-676452D01*
X2632608Y-676656D01*
X2629306Y-675741D01*
X2626512Y-673760D01*
X2489962Y-537210D01*
X2487777Y-533908D01*
X2487015Y-529996D01*
X2487015Y-285902D01*
X2487625Y-282448D01*
X2489352Y-279400D01*
X2491994Y-277164D01*
X2496159Y-274675D01*
X2506878Y-266192D01*
X2516378Y-256387D01*
X2524455Y-245414D01*
X2531008Y-233476D01*
X2535885Y-220725D01*
X2539085Y-207467D01*
X2540406Y-193903D01*
X2539949Y-180289D01*
X2537714Y-166827D01*
X2533650Y-153822D01*
X2527909Y-141427D01*
X2520594Y-129946D01*
X2511806Y-119532D01*
X2501646Y-110388D01*
X2490419Y-102666D01*
X2478278Y-96520D01*
X2465374Y-92049D01*
X2452014Y-89306D01*
X2438400Y-88442D01*
X2424785Y-89306D01*
X2411425Y-92049D01*
X2398522Y-96520D01*
X2386380Y-102666D01*
X2375154Y-110388D01*
X2364994Y-119532D01*
X2356205Y-129946D01*
X2348890Y-141427D01*
X2343150Y-153822D01*
X2339086Y-166827D01*
X2336850Y-180289D01*
X2336393Y-193903D01*
X2337714Y-207467D01*
X2340914Y-220725D01*
X2345791Y-233476D01*
X2352344Y-245414D01*
X2360422Y-256387D01*
X2369921Y-266192D01*
X2380640Y-274675D01*
X2392375Y-281635D01*
X2404922Y-286918D01*
X2407716Y-287731D01*
X2411577Y-289763D01*
X2414270Y-293217D01*
X2415184Y-297484D01*
X2415184Y-548589D01*
X2416048Y-556564D01*
X2418334Y-563676D01*
X2422144Y-570280D01*
X2426004Y-574751D01*
X2588768Y-737565D01*
X2590698Y-740257D01*
X2591663Y-743458D01*
X2590292Y-762000D01*
X2591206Y-775614D01*
X2593949Y-788974D01*
X2598420Y-801878D01*
X2604566Y-814019D01*
X2612288Y-825246D01*
X2621432Y-835406D01*
X2631846Y-844194D01*
X2643327Y-851509D01*
X2655722Y-857250D01*
X2668727Y-861314D01*
X2682189Y-863600D01*
X2695803Y-864006D01*
X2708656Y-862736D01*
X2713126Y-863295D01*
X2716885Y-865682D01*
X3031896Y-1180642D01*
X3038144Y-1185722D01*
X3044799Y-1189126D01*
X3052165Y-1191107D01*
X3058058Y-1191564D01*
X4336999Y-1191564D01*
X4340910Y-1192326D01*
X4344212Y-1194511D01*
X4558538Y-1408836D01*
X4560722Y-1412138D01*
X4561484Y-1416050D01*
X4561484Y-1636725D01*
X4560773Y-1640535D01*
X4558639Y-1643786D01*
X4555439Y-1646021D01*
X4551629Y-1646885D01*
X4547819Y-1646275D01*
X4544517Y-1644243D01*
X4533646Y-1634388D01*
X4522419Y-1626666D01*
X4510278Y-1620520D01*
X4497374Y-1616049D01*
X4484014Y-1613306D01*
X4470400Y-1612442D01*
X4456785Y-1613306D01*
X4443425Y-1616049D01*
X4430522Y-1620520D01*
X4418380Y-1626666D01*
X4407916Y-1633829D01*
X4403852Y-1635506D01*
X4399483Y-1635251D01*
X4395622Y-1633220D01*
X4392930Y-1629765D01*
X4392015Y-1625447D01*
X4392015Y-1397457D01*
X4391152Y-1389481D01*
X4388866Y-1382369D01*
X4385056Y-1375765D01*
X4381195Y-1371295D01*
X4254855Y-1244955D01*
X4248607Y-1239875D01*
X4241952Y-1236472D01*
X4234586Y-1234490D01*
X4228693Y-1234033D01*
X2937052Y-1234033D01*
X2933141Y-1233271D01*
X2929839Y-1231087D01*
X2526639Y-827887D01*
X2524252Y-824128D01*
X2523744Y-819708D01*
X2525115Y-815492D01*
X2529535Y-808024D01*
X2534818Y-795477D01*
X2538425Y-782320D01*
X2540254Y-768807D01*
X2540254Y-755192D01*
X2538425Y-741680D01*
X2534818Y-728522D01*
X2529535Y-715975D01*
X2522575Y-704240D01*
X2514092Y-693521D01*
X2504287Y-684022D01*
X2493314Y-675944D01*
X2481376Y-669391D01*
X2468626Y-664514D01*
X2455367Y-661314D01*
X2441803Y-659993D01*
X2428189Y-660450D01*
X2414727Y-662686D01*
X2401722Y-666750D01*
X2389327Y-672490D01*
X2385161Y-675132D01*
X2382012Y-676452D01*
X2378608Y-676656D01*
X2375306Y-675741D01*
X2372512Y-673760D01*
X2235962Y-537210D01*
X2233777Y-533908D01*
X2233015Y-529996D01*
X2233015Y-285902D01*
X2233625Y-282448D01*
X2235352Y-279400D01*
X2237994Y-277164D01*
X2242159Y-274675D01*
X2252878Y-266192D01*
X2262378Y-256387D01*
X2270455Y-245414D01*
X2277008Y-233476D01*
X2281885Y-220725D01*
X2285085Y-207467D01*
X2286406Y-193903D01*
X2285949Y-180289D01*
X2283714Y-166827D01*
X2279650Y-153822D01*
X2273909Y-141427D01*
X2266594Y-129946D01*
X2257806Y-119532D01*
X2247646Y-110388D01*
X2236419Y-102666D01*
X2224278Y-96520D01*
X2211374Y-92049D01*
X2198014Y-89306D01*
X2184400Y-88442D01*
X2170785Y-89306D01*
X2157425Y-92049D01*
X2144522Y-96520D01*
X2132380Y-102666D01*
X2121154Y-110388D01*
X2110994Y-119532D01*
X2102205Y-129946D01*
X2094890Y-141427D01*
X2089150Y-153822D01*
X2085086Y-166827D01*
X2082850Y-180289D01*
X2082393Y-193903D01*
X2083714Y-207467D01*
X2086914Y-220725D01*
X2091791Y-233476D01*
X2098344Y-245414D01*
X2106422Y-256387D01*
X2115921Y-266192D01*
X2126640Y-274675D01*
X2138375Y-281635D01*
X2150922Y-286918D01*
X2153716Y-287731D01*
X2157577Y-289763D01*
X2160270Y-293217D01*
X2161184Y-297484D01*
X2161184Y-548589D01*
X2162048Y-556564D01*
X2164334Y-563676D01*
X2168144Y-570280D01*
X2172004Y-574751D01*
X2334768Y-737565D01*
X2336698Y-740257D01*
X2337663Y-743458D01*
X2336292Y-762000D01*
X2337206Y-775614D01*
X2339949Y-788974D01*
X2344420Y-801878D01*
X2350566Y-814019D01*
X2358288Y-825246D01*
X2367432Y-835406D01*
X2377846Y-844194D01*
X2389327Y-851509D01*
X2401722Y-857250D01*
X2414727Y-861314D01*
X2428189Y-863600D01*
X2441803Y-864006D01*
X2454656Y-862736D01*
X2459126Y-863295D01*
X2462885Y-865682D01*
X2892196Y-1294942D01*
X2898444Y-1300022D01*
X2905099Y-1303426D01*
X2912465Y-1305407D01*
X2918358Y-1305864D01*
X4017010Y-1305864D01*
X4021124Y-1306728D01*
X4024528Y-1309166D01*
X4026662Y-1312773D01*
X4027119Y-1316990D01*
X4025900Y-1320952D01*
X4024884Y-1322781D01*
X4021683Y-1331874D01*
X4020058Y-1341374D01*
X4020058Y-1351026D01*
X4021683Y-1360525D01*
X4024884Y-1369618D01*
X4029557Y-1378051D01*
X4035653Y-1385570D01*
X4037329Y-1387043D01*
X4039870Y-1390497D01*
X4040784Y-1394663D01*
X4040784Y-1625447D01*
X4039870Y-1629765D01*
X4037177Y-1633220D01*
X4033316Y-1635251D01*
X4028948Y-1635506D01*
X4024884Y-1633829D01*
X4014419Y-1626666D01*
X4002278Y-1620520D01*
X3989374Y-1616049D01*
X3976014Y-1613306D01*
X3962400Y-1612442D01*
X3948785Y-1613306D01*
X3935425Y-1616049D01*
X3922522Y-1620520D01*
X3910380Y-1626666D01*
X3899154Y-1634388D01*
X3888994Y-1643532D01*
X3880205Y-1653946D01*
X3872890Y-1665427D01*
X3867150Y-1677822D01*
X3863086Y-1690827D01*
X3860850Y-1704289D01*
X3860393Y-1717903D01*
X3861714Y-1731467D01*
X3864914Y-1744725D01*
X3869791Y-1757476D01*
X3876344Y-1769414D01*
X3884422Y-1780387D01*
X3893921Y-1790192D01*
X3904640Y-1798675D01*
X3916375Y-1805635D01*
X3928922Y-1810918D01*
X3931716Y-1811731D01*
X3935577Y-1813763D01*
X3938270Y-1817217D01*
X3939184Y-1821484D01*
X3939184Y-1980590D01*
X3940048Y-1988616D01*
X3942334Y-1995728D01*
X3946144Y-2002332D01*
X3950004Y-2006803D01*
X4143501Y-2200351D01*
X4145686Y-2203551D01*
X4146499Y-2207260D01*
X4145838Y-2211070D01*
X4143857Y-2214372D01*
X4136288Y-2222754D01*
X4128566Y-2233980D01*
X4122420Y-2246172D01*
X4117949Y-2259025D01*
X4115206Y-2272385D01*
X4114292Y-2286000D01*
X4115206Y-2299614D01*
X4117949Y-2312974D01*
X4122420Y-2325878D01*
X4128566Y-2338019D01*
X4136288Y-2349246D01*
X4145432Y-2359406D01*
X4155846Y-2368194D01*
X4160265Y-2371039D01*
X4163364Y-2374087D01*
X4164888Y-2378100D01*
X4164584Y-2382418D01*
X4162501Y-2386228D01*
X4159046Y-2388819D01*
X4154830Y-2389733D01*
X4024223Y-2389733D01*
X4020108Y-2388870D01*
X4016705Y-2386380D01*
X4014571Y-2382774D01*
X4014114Y-2378557D01*
X4015384Y-2374544D01*
X4018229Y-2371394D01*
X4028287Y-2363978D01*
X4038092Y-2354478D01*
X4046575Y-2343759D01*
X4053535Y-2332024D01*
X4058818Y-2319477D01*
X4062425Y-2306320D01*
X4064254Y-2292807D01*
X4064254Y-2279192D01*
X4062425Y-2265680D01*
X4058818Y-2252522D01*
X4053535Y-2239975D01*
X4046575Y-2228240D01*
X4038092Y-2217521D01*
X4028287Y-2208022D01*
X4017314Y-2199944D01*
X4005376Y-2193391D01*
X3992626Y-2188514D01*
X3979367Y-2185314D01*
X3965194Y-2183892D01*
X3961841Y-2182977D01*
X3959047Y-2180996D01*
X3759962Y-1981962D01*
X3757777Y-1978660D01*
X3757015Y-1974748D01*
X3757015Y-1809902D01*
X3757625Y-1806448D01*
X3759352Y-1803400D01*
X3761994Y-1801164D01*
X3766159Y-1798675D01*
X3776878Y-1790192D01*
X3786378Y-1780387D01*
X3794455Y-1769414D01*
X3801008Y-1757476D01*
X3805885Y-1744725D01*
X3809085Y-1731467D01*
X3810406Y-1717903D01*
X3809949Y-1704289D01*
X3807714Y-1690827D01*
X3803650Y-1677822D01*
X3797909Y-1665427D01*
X3790594Y-1653946D01*
X3781806Y-1643532D01*
X3771646Y-1634388D01*
X3760419Y-1626666D01*
X3748278Y-1620520D01*
X3735374Y-1616049D01*
X3722014Y-1613306D01*
X3708400Y-1612442D01*
X3694785Y-1613306D01*
X3681425Y-1616049D01*
X3668522Y-1620520D01*
X3656380Y-1626666D01*
X3645154Y-1634388D01*
X3634994Y-1643532D01*
X3626205Y-1653946D01*
X3618890Y-1665427D01*
X3613150Y-1677822D01*
X3609086Y-1690827D01*
X3606850Y-1704289D01*
X3606393Y-1717903D01*
X3607714Y-1731467D01*
X3610914Y-1744725D01*
X3615791Y-1757476D01*
X3622344Y-1769414D01*
X3630422Y-1780387D01*
X3639921Y-1790192D01*
X3650640Y-1798675D01*
X3662375Y-1805635D01*
X3674922Y-1810918D01*
X3677716Y-1811731D01*
X3681577Y-1813763D01*
X3684270Y-1817217D01*
X3685184Y-1821484D01*
X3685184Y-1993290D01*
X3686048Y-2001316D01*
X3688334Y-2008428D01*
X3692144Y-2015032D01*
X3696004Y-2019503D01*
X3883507Y-2207006D01*
X3885641Y-2210206D01*
X3886454Y-2213965D01*
X3885844Y-2217724D01*
X3883863Y-2221026D01*
X3882288Y-2222754D01*
X3874566Y-2233980D01*
X3868420Y-2246172D01*
X3863949Y-2259025D01*
X3861206Y-2272385D01*
X3860292Y-2286000D01*
X3861206Y-2299614D01*
X3863949Y-2312974D01*
X3868420Y-2325878D01*
X3874566Y-2338019D01*
X3882288Y-2349246D01*
X3891432Y-2359406D01*
X3901846Y-2368194D01*
X3906265Y-2371039D01*
X3909364Y-2374087D01*
X3910888Y-2378100D01*
X3910584Y-2382418D01*
X3908501Y-2386228D01*
X3905046Y-2388819D01*
X3900830Y-2389733D01*
X3770223Y-2389733D01*
X3766108Y-2388870D01*
X3762705Y-2386380D01*
X3760571Y-2382774D01*
X3760114Y-2378557D01*
X3761384Y-2374544D01*
X3764229Y-2371394D01*
X3774287Y-2363978D01*
X3784092Y-2354478D01*
X3792575Y-2343759D01*
X3799535Y-2332024D01*
X3804818Y-2319477D01*
X3808425Y-2306320D01*
X3810254Y-2292807D01*
X3810254Y-2279192D01*
X3808425Y-2265680D01*
X3804818Y-2252522D01*
X3799535Y-2239975D01*
X3792575Y-2228240D01*
X3784092Y-2217521D01*
X3774287Y-2208022D01*
X3763314Y-2199944D01*
X3750818Y-2193188D01*
X3747414Y-2191004D01*
X3745128Y-2187651D01*
X3744315Y-2183688D01*
X3744315Y-2172157D01*
X3743451Y-2164181D01*
X3741165Y-2157069D01*
X3737356Y-2150465D01*
X3733495Y-2145995D01*
X3505962Y-1918462D01*
X3503777Y-1915160D01*
X3503015Y-1911248D01*
X3503015Y-1809902D01*
X3503625Y-1806448D01*
X3505352Y-1803400D01*
X3507994Y-1801164D01*
X3512159Y-1798675D01*
X3522878Y-1790192D01*
X3532378Y-1780387D01*
X3540455Y-1769414D01*
X3547008Y-1757476D01*
X3551885Y-1744725D01*
X3555085Y-1731467D01*
X3556406Y-1717903D01*
X3555949Y-1704289D01*
X3553714Y-1690827D01*
X3549650Y-1677822D01*
X3543909Y-1665427D01*
X3536594Y-1653946D01*
X3527806Y-1643532D01*
X3517646Y-1634388D01*
X3506419Y-1626666D01*
X3494278Y-1620520D01*
X3481374Y-1616049D01*
X3468014Y-1613306D01*
X3454400Y-1612442D01*
X3440785Y-1613306D01*
X3427425Y-1616049D01*
X3414522Y-1620520D01*
X3402380Y-1626666D01*
X3391154Y-1634388D01*
X3380994Y-1643532D01*
X3372205Y-1653946D01*
X3364890Y-1665427D01*
X3359150Y-1677822D01*
X3355086Y-1690827D01*
X3352850Y-1704289D01*
X3352393Y-1717903D01*
X3353714Y-1731467D01*
X3356914Y-1744725D01*
X3361791Y-1757476D01*
X3368344Y-1769414D01*
X3376422Y-1780387D01*
X3385921Y-1790192D01*
X3396640Y-1798675D01*
X3408375Y-1805635D01*
X3420922Y-1810918D01*
X3423716Y-1811731D01*
X3427577Y-1813763D01*
X3430270Y-1817217D01*
X3431184Y-1821484D01*
X3431184Y-1929790D01*
X3432048Y-1937816D01*
X3434334Y-1944928D01*
X3438144Y-1951532D01*
X3442004Y-1956003D01*
X3664864Y-2178862D01*
X3666998Y-2182114D01*
X3667810Y-2185873D01*
X3667150Y-2189734D01*
X3665067Y-2192985D01*
X3661918Y-2195271D01*
X3659327Y-2196490D01*
X3647846Y-2203805D01*
X3637432Y-2212644D01*
X3628288Y-2222754D01*
X3620566Y-2233980D01*
X3614420Y-2246172D01*
X3609949Y-2259025D01*
X3607206Y-2272385D01*
X3606292Y-2286000D01*
X3607206Y-2299614D01*
X3609949Y-2312974D01*
X3614420Y-2325878D01*
X3620566Y-2338019D01*
X3628288Y-2349246D01*
X3637432Y-2359406D01*
X3647846Y-2368194D01*
X3652265Y-2371039D01*
X3655364Y-2374087D01*
X3656888Y-2378100D01*
X3656584Y-2382418D01*
X3654501Y-2386228D01*
X3651046Y-2388819D01*
X3646830Y-2389733D01*
X3516223Y-2389733D01*
X3512108Y-2388870D01*
X3508705Y-2386380D01*
X3506571Y-2382774D01*
X3506114Y-2378557D01*
X3507384Y-2374544D01*
X3510229Y-2371394D01*
X3520287Y-2363978D01*
X3530092Y-2354478D01*
X3538575Y-2343759D01*
X3545535Y-2332024D01*
X3550818Y-2319477D01*
X3554425Y-2306320D01*
X3556254Y-2292807D01*
X3556254Y-2279192D01*
X3554425Y-2265680D01*
X3550818Y-2252522D01*
X3545535Y-2239975D01*
X3538575Y-2228240D01*
X3530092Y-2217521D01*
X3520287Y-2208022D01*
X3509314Y-2199944D01*
X3497376Y-2193391D01*
X3484626Y-2188514D01*
X3471367Y-2185314D01*
X3457803Y-2183993D01*
X3444189Y-2184450D01*
X3430727Y-2186686D01*
X3417722Y-2190750D01*
X3405327Y-2196490D01*
X3393846Y-2203805D01*
X3383432Y-2212644D01*
X3380994Y-2215286D01*
X3377742Y-2217724D01*
X3373831Y-2218639D01*
X3369818Y-2217978D01*
X3366414Y-2215794D01*
X3364128Y-2212441D01*
X3363315Y-2208479D01*
X3363315Y-2184857D01*
X3362451Y-2176881D01*
X3360165Y-2169769D01*
X3356356Y-2163165D01*
X3352495Y-2158695D01*
X3112262Y-1918462D01*
X3110077Y-1915160D01*
X3109315Y-1911248D01*
X3109315Y-1791970D01*
X3110077Y-1788058D01*
X3112312Y-1784705D01*
X3115665Y-1782521D01*
X3119577Y-1781810D01*
X3123488Y-1782622D01*
X3126790Y-1784908D01*
X3131921Y-1790192D01*
X3142640Y-1798675D01*
X3154375Y-1805635D01*
X3166922Y-1810918D01*
X3180080Y-1814525D01*
X3193592Y-1816354D01*
X3207207Y-1816354D01*
X3220720Y-1814525D01*
X3233877Y-1810918D01*
X3246424Y-1805635D01*
X3258159Y-1798675D01*
X3268878Y-1790192D01*
X3278378Y-1780387D01*
X3286455Y-1769414D01*
X3293008Y-1757476D01*
X3297885Y-1744725D01*
X3301085Y-1731467D01*
X3302406Y-1717903D01*
X3301949Y-1704289D01*
X3299714Y-1690827D01*
X3295650Y-1677822D01*
X3289909Y-1665427D01*
X3282594Y-1653946D01*
X3273806Y-1643532D01*
X3263646Y-1634388D01*
X3252419Y-1626666D01*
X3240278Y-1620520D01*
X3227374Y-1616049D01*
X3214014Y-1613306D01*
X3200400Y-1612442D01*
X3186785Y-1613306D01*
X3173425Y-1616049D01*
X3160522Y-1620520D01*
X3148380Y-1626666D01*
X3137154Y-1634388D01*
X3126994Y-1643532D01*
X3125419Y-1645412D01*
X3122015Y-1648053D01*
X3117850Y-1649018D01*
X3113633Y-1648206D01*
X3110128Y-1645716D01*
X3107994Y-1642008D01*
X3106166Y-1636369D01*
X3102356Y-1629765D01*
X3098495Y-1625295D01*
X2282088Y-808837D01*
X2279853Y-805535D01*
X2279091Y-801624D01*
X2279904Y-797712D01*
X2280818Y-795477D01*
X2284425Y-782320D01*
X2286254Y-768807D01*
X2286254Y-755192D01*
X2284425Y-741680D01*
X2280818Y-728522D01*
X2275535Y-715975D01*
X2268575Y-704240D01*
X2260092Y-693521D01*
X2250287Y-684022D01*
X2239314Y-675944D01*
X2227376Y-669391D01*
X2224328Y-668223D01*
X2220671Y-665784D01*
X2218385Y-662025D01*
X2217166Y-658520D01*
X2213356Y-651865D01*
X2209495Y-647395D01*
X1981962Y-419862D01*
X1979777Y-416559D01*
X1979015Y-412648D01*
X1979015Y-285902D01*
X1979625Y-282448D01*
X1981352Y-279400D01*
X1983993Y-277164D01*
X1988159Y-274675D01*
X1998878Y-266192D01*
X2008378Y-256387D01*
X2016455Y-245414D01*
X2023008Y-233476D01*
X2027885Y-220725D01*
X2031085Y-207467D01*
X2032406Y-193903D01*
X2031949Y-180289D01*
X2029714Y-166827D01*
X2025650Y-153822D01*
X2019909Y-141427D01*
X2012594Y-129946D01*
X2003806Y-119532D01*
X1993646Y-110388D01*
X1982419Y-102666D01*
X1970278Y-96520D01*
X1957374Y-92049D01*
X1944014Y-89306D01*
X1930400Y-88442D01*
X1916785Y-89306D01*
X1903425Y-92049D01*
X1890522Y-96520D01*
X1878380Y-102666D01*
X1867154Y-110388D01*
X1856993Y-119532D01*
X1848205Y-129946D01*
X1840890Y-141427D01*
X1835150Y-153822D01*
X1831086Y-166827D01*
X1828850Y-180289D01*
X1828393Y-193903D01*
X1829714Y-207467D01*
X1832914Y-220725D01*
X1837791Y-233476D01*
X1844344Y-245414D01*
X1852422Y-256387D01*
X1861921Y-266192D01*
X1872640Y-274675D01*
X1884375Y-281635D01*
X1896922Y-286918D01*
X1899716Y-287731D01*
X1903577Y-289763D01*
X1906270Y-293217D01*
X1907184Y-297484D01*
X1907184Y-431190D01*
X1908048Y-439216D01*
X1910334Y-446328D01*
X1914143Y-452932D01*
X1918004Y-457403D01*
X2125014Y-664413D01*
X2127300Y-667918D01*
X2127961Y-672033D01*
X2126945Y-676097D01*
X2124354Y-679348D01*
X2113432Y-688644D01*
X2104288Y-698754D01*
X2096566Y-709980D01*
X2090420Y-722172D01*
X2085949Y-735025D01*
X2083206Y-748385D01*
X2082292Y-762000D01*
X2083206Y-775614D01*
X2085949Y-788974D01*
X2090420Y-801878D01*
X2096566Y-814019D01*
X2104288Y-825246D01*
X2113432Y-835406D01*
X2123846Y-844194D01*
X2135327Y-851509D01*
X2147722Y-857250D01*
X2160727Y-861314D01*
X2174189Y-863600D01*
X2187803Y-864006D01*
X2201367Y-862685D01*
X2214626Y-859485D01*
X2220417Y-857300D01*
X2224227Y-856589D01*
X2228037Y-857402D01*
X2231237Y-859586D01*
X2967685Y-1595983D01*
X2969920Y-1599387D01*
X2970631Y-1603400D01*
X2969717Y-1607362D01*
X2967329Y-1610664D01*
X2963824Y-1612747D01*
X2959811Y-1613306D01*
X2946400Y-1612442D01*
X2932785Y-1613306D01*
X2919425Y-1616049D01*
X2906522Y-1620520D01*
X2894380Y-1626666D01*
X2883154Y-1634388D01*
X2872994Y-1643532D01*
X2871419Y-1645412D01*
X2868015Y-1648053D01*
X2863850Y-1649018D01*
X2859633Y-1648206D01*
X2856128Y-1645716D01*
X2853994Y-1642008D01*
X2852166Y-1636369D01*
X2848356Y-1629765D01*
X2844495Y-1625295D01*
X2028088Y-808837D01*
X2025853Y-805535D01*
X2025091Y-801624D01*
X2025904Y-797712D01*
X2026818Y-795477D01*
X2030425Y-782320D01*
X2032254Y-768807D01*
X2032254Y-755192D01*
X2030425Y-741680D01*
X2026818Y-728522D01*
X2021535Y-715975D01*
X2014575Y-704240D01*
X2006092Y-693521D01*
X1996287Y-684022D01*
X1985314Y-675944D01*
X1972818Y-669188D01*
X1969414Y-667004D01*
X1967128Y-663651D01*
X1966315Y-659688D01*
X1966315Y-635457D01*
X1965452Y-627481D01*
X1963166Y-620369D01*
X1959356Y-613765D01*
X1955495Y-609295D01*
X1727962Y-381762D01*
X1725777Y-378460D01*
X1725015Y-374548D01*
X1725015Y-285902D01*
X1725625Y-282448D01*
X1727352Y-279400D01*
X1729993Y-277164D01*
X1734159Y-274675D01*
X1744878Y-266192D01*
X1754378Y-256387D01*
X1762455Y-245414D01*
X1769008Y-233476D01*
X1773885Y-220725D01*
X1777085Y-207467D01*
X1778406Y-193903D01*
X1777949Y-180289D01*
X1775714Y-166827D01*
X1771650Y-153822D01*
X1765909Y-141427D01*
X1758594Y-129946D01*
X1749806Y-119532D01*
X1739646Y-110388D01*
X1728419Y-102666D01*
X1716278Y-96520D01*
X1703374Y-92049D01*
X1690014Y-89306D01*
X1676400Y-88442D01*
X1662785Y-89306D01*
X1649425Y-92049D01*
X1636522Y-96520D01*
X1624380Y-102666D01*
X1613154Y-110388D01*
X1602994Y-119532D01*
X1594205Y-129946D01*
X1586890Y-141427D01*
X1581150Y-153822D01*
X1577086Y-166827D01*
X1574850Y-180289D01*
X1574393Y-193903D01*
X1575714Y-207467D01*
X1578914Y-220725D01*
X1583791Y-233476D01*
X1590344Y-245414D01*
X1598422Y-256387D01*
X1607921Y-266192D01*
X1618640Y-274675D01*
X1630375Y-281635D01*
X1642922Y-286918D01*
X1645716Y-287731D01*
X1649577Y-289763D01*
X1652270Y-293217D01*
X1653184Y-297484D01*
X1653184Y-393090D01*
X1654048Y-401116D01*
X1656334Y-408228D01*
X1660143Y-414832D01*
X1664004Y-419303D01*
X1891538Y-646836D01*
X1893722Y-650138D01*
X1894484Y-654050D01*
X1894484Y-659892D01*
X1893773Y-663651D01*
X1891690Y-666851D01*
X1888591Y-669086D01*
X1881327Y-672490D01*
X1869846Y-679805D01*
X1859432Y-688644D01*
X1850288Y-698754D01*
X1842566Y-709980D01*
X1836420Y-722172D01*
X1831949Y-735025D01*
X1829206Y-748385D01*
X1828292Y-762000D01*
X1829206Y-775614D01*
X1831949Y-788974D01*
X1836420Y-801878D01*
X1842566Y-814019D01*
X1850288Y-825246D01*
X1859432Y-835406D01*
X1869846Y-844194D01*
X1881327Y-851509D01*
X1893722Y-857250D01*
X1906727Y-861314D01*
X1920189Y-863600D01*
X1933803Y-864006D01*
X1947367Y-862685D01*
X1960625Y-859485D01*
X1966417Y-857300D01*
X1970227Y-856589D01*
X1974037Y-857402D01*
X1977237Y-859586D01*
X2713685Y-1595983D01*
X2715920Y-1599387D01*
X2716631Y-1603400D01*
X2715717Y-1607362D01*
X2713329Y-1610664D01*
X2709824Y-1612747D01*
X2705811Y-1613306D01*
X2692400Y-1612442D01*
X2678785Y-1613306D01*
X2665425Y-1616049D01*
X2652522Y-1620520D01*
X2640380Y-1626666D01*
X2629154Y-1634388D01*
X2618994Y-1643532D01*
X2610205Y-1653946D01*
X2602890Y-1665427D01*
X2597150Y-1677822D01*
X2593086Y-1690827D01*
X2590850Y-1704289D01*
X2590393Y-1717903D01*
X2591714Y-1731467D01*
X2594914Y-1744725D01*
X2599791Y-1757476D01*
X2606344Y-1769414D01*
X2614422Y-1780387D01*
X2623921Y-1790192D01*
X2634640Y-1798675D01*
X2646375Y-1805635D01*
X2648000Y-1806295D01*
X2651252Y-1808530D01*
X2653436Y-1811782D01*
X2654198Y-1815642D01*
X2654198Y-2032711D01*
X2653436Y-2036622D01*
X2651201Y-2039924D01*
X2647899Y-2042109D01*
X2644038Y-2042871D01*
X2640126Y-2042109D01*
X2636824Y-2039924D01*
X2489962Y-1893062D01*
X2487777Y-1889760D01*
X2487015Y-1885848D01*
X2487015Y-1809902D01*
X2487625Y-1806448D01*
X2489352Y-1803400D01*
X2491994Y-1801164D01*
X2496159Y-1798675D01*
X2506878Y-1790192D01*
X2516378Y-1780387D01*
X2524455Y-1769414D01*
X2531008Y-1757476D01*
X2535885Y-1744725D01*
X2539085Y-1731467D01*
X2540406Y-1717903D01*
X2539949Y-1704289D01*
X2537714Y-1690827D01*
X2533650Y-1677822D01*
X2527909Y-1665427D01*
X2520594Y-1653946D01*
X2511806Y-1643532D01*
X2501646Y-1634388D01*
X2490419Y-1626666D01*
X2478278Y-1620520D01*
X2465374Y-1616049D01*
X2452014Y-1613306D01*
X2438400Y-1612442D01*
X2424785Y-1613306D01*
X2411425Y-1616049D01*
X2398522Y-1620520D01*
X2386380Y-1626666D01*
X2375154Y-1634388D01*
X2364994Y-1643532D01*
X2356205Y-1653946D01*
X2348890Y-1665427D01*
X2343150Y-1677822D01*
X2339086Y-1690827D01*
X2336850Y-1704289D01*
X2336393Y-1717903D01*
X2337714Y-1731467D01*
X2340914Y-1744725D01*
X2345791Y-1757476D01*
X2352344Y-1769414D01*
X2360422Y-1780387D01*
X2369921Y-1790192D01*
X2380640Y-1798675D01*
X2392375Y-1805635D01*
X2404922Y-1810918D01*
X2407716Y-1811731D01*
X2411577Y-1813763D01*
X2414270Y-1817217D01*
X2415184Y-1821484D01*
X2415184Y-1904390D01*
X2416048Y-1912416D01*
X2418334Y-1919528D01*
X2422144Y-1926132D01*
X2426004Y-1930603D01*
X2653538Y-2158136D01*
X2655722Y-2161438D01*
X2656484Y-2165350D01*
X2656484Y-2183892D01*
X2655773Y-2187651D01*
X2653690Y-2190851D01*
X2650591Y-2193086D01*
X2643327Y-2196490D01*
X2631846Y-2203805D01*
X2621432Y-2212644D01*
X2612288Y-2222754D01*
X2604566Y-2233980D01*
X2598420Y-2246172D01*
X2593949Y-2259025D01*
X2591206Y-2272385D01*
X2590292Y-2286000D01*
X2591206Y-2299614D01*
X2593949Y-2312974D01*
X2598420Y-2325878D01*
X2604566Y-2338019D01*
X2612288Y-2349246D01*
X2621432Y-2359406D01*
X2631846Y-2368194D01*
X2643327Y-2375509D01*
X2655722Y-2381250D01*
X2668727Y-2385314D01*
X2682189Y-2387600D01*
X2695803Y-2388006D01*
X2709367Y-2386685D01*
X2722626Y-2383485D01*
X2728417Y-2381300D01*
X2732227Y-2380589D01*
X2736037Y-2381402D01*
X2739237Y-2383586D01*
X3174644Y-2818942D01*
X3180892Y-2824022D01*
X3187547Y-2827426D01*
X3194913Y-2829407D01*
X3200806Y-2829864D01*
X4057599Y-2829864D01*
X4061510Y-2830626D01*
X4064812Y-2832811D01*
X4177944Y-2945942D01*
X4184192Y-2951022D01*
X4190847Y-2954426D01*
X4198213Y-2956407D01*
X4204106Y-2956864D01*
X5650992Y-2956864D01*
X5658967Y-2956001D01*
X5666079Y-2953715D01*
X5672683Y-2949905D01*
X5677154Y-2946044D01*
X5718810Y-2904439D01*
X5722315Y-2902153D01*
X5726430Y-2901442D01*
X5730138Y-2901645D01*
X5739688Y-2900375D01*
X5748883Y-2897581D01*
X5757519Y-2893212D01*
X5765292Y-2887472D01*
X5771946Y-2880512D01*
X5777331Y-2872536D01*
X5781446Y-2863291D01*
X5783376Y-2859481D01*
X5786678Y-2856788D01*
X5790844Y-2855722D01*
X5795060Y-2856433D01*
X5798616Y-2858820D01*
X5800852Y-2862478D01*
X5802884Y-2868218D01*
X5807557Y-2876651D01*
X5813653Y-2884170D01*
X5820867Y-2890520D01*
X5829096Y-2895600D01*
X5838037Y-2899156D01*
X5847486Y-2901188D01*
X5856986Y-2901594D01*
X5860643Y-2902458D01*
X5863742Y-2904591D01*
X6068161Y-3109010D01*
X6070346Y-3112312D01*
X6071158Y-3116173D01*
X6070346Y-3120085D01*
X6068161Y-3123387D01*
X6064859Y-3125571D01*
X6060998Y-3126333D01*
X5537708Y-3126333D01*
X5529732Y-3127197D01*
X5522620Y-3129483D01*
X5516016Y-3133293D01*
X5511546Y-3137154D01*
X4845862Y-3802786D01*
X4842611Y-3804970D01*
X4838700Y-3805783D01*
X4834788Y-3804970D01*
X4831537Y-3802786D01*
X4051655Y-3022955D01*
X4045407Y-3017875D01*
X4038752Y-3014472D01*
X4031386Y-3012490D01*
X4025493Y-3012033D01*
X3900474Y-3012033D01*
X3896106Y-3011068D01*
X3892600Y-3008325D01*
X3890619Y-3004312D01*
X3890518Y-2999841D01*
X3892346Y-2995777D01*
X3894683Y-2992678D01*
X3900170Y-2982620D01*
X3858920Y-2982620D01*
X3858920Y-3001873D01*
X3858107Y-3005785D01*
X3855923Y-3009087D01*
X3852621Y-3011271D01*
X3848709Y-3012033D01*
X3796690Y-3012033D01*
X3792778Y-3011271D01*
X3789476Y-3009087D01*
X3787292Y-3005785D01*
X3786530Y-3001873D01*
X3786530Y-2982620D01*
X3761536Y-2982620D01*
X3757625Y-2981807D01*
X3754374Y-2979623D01*
X3683355Y-2908655D01*
X3677107Y-2903575D01*
X3670452Y-2900172D01*
X3663086Y-2898190D01*
X3657193Y-2897733D01*
X1644700Y-2897733D01*
X1640789Y-2896971D01*
X1637487Y-2894787D01*
X1147165Y-2404414D01*
X1144828Y-2400858D01*
X1144168Y-2396642D01*
X1145286Y-2392578D01*
X1147978Y-2389276D01*
X1151788Y-2387396D01*
X1156004Y-2387193D01*
X1158189Y-2387600D01*
X1171803Y-2388006D01*
X1185367Y-2386685D01*
X1198626Y-2383485D01*
X1211376Y-2378608D01*
X1223314Y-2372055D01*
X1234287Y-2363978D01*
X1244092Y-2354478D01*
X1252575Y-2343759D01*
X1259535Y-2332024D01*
X1264818Y-2319477D01*
X1268425Y-2306320D01*
X1270254Y-2292807D01*
X1270254Y-2279192D01*
X1268425Y-2265680D01*
X1264818Y-2252522D01*
X1259535Y-2239975D01*
X1252575Y-2228240D01*
X1244092Y-2217521D01*
X1234287Y-2208022D01*
X1223314Y-2199944D01*
X1210818Y-2193188D01*
X1207414Y-2191004D01*
X1205128Y-2187651D01*
X1204315Y-2183688D01*
X1204315Y-2159457D01*
X1203452Y-2151481D01*
X1201166Y-2144369D01*
X1197356Y-2137765D01*
X1193495Y-2133295D01*
X965962Y-1905762D01*
X963777Y-1902460D01*
X963015Y-1898548D01*
X963015Y-1809902D01*
X963625Y-1806448D01*
X965352Y-1803400D01*
X967994Y-1801164D01*
X972159Y-1798675D01*
X982878Y-1790192D01*
X992378Y-1780387D01*
X1000455Y-1769414D01*
X1007008Y-1757476D01*
X1011885Y-1744725D01*
X1015085Y-1731467D01*
X1016406Y-1717903D01*
X1015949Y-1704289D01*
X1013714Y-1690827D01*
X1009650Y-1677822D01*
X1003909Y-1665427D01*
X996594Y-1653946D01*
X987806Y-1643532D01*
X977646Y-1634388D01*
X966419Y-1626666D01*
X954278Y-1620520D01*
X941374Y-1616049D01*
X928014Y-1613306D01*
X914400Y-1612442D01*
X900785Y-1613306D01*
X887425Y-1616049D01*
X874521Y-1620520D01*
X862380Y-1626666D01*
X851153Y-1634388D01*
X840282Y-1644243D01*
X836980Y-1646275D01*
X833170Y-1646885D01*
X829360Y-1646021D01*
X826160Y-1643786D01*
X824026Y-1640535D01*
X823315Y-1636725D01*
X823315Y-1613357D01*
X822452Y-1605381D01*
X820166Y-1598269D01*
X816356Y-1591665D01*
X812495Y-1587195D01*
X752043Y-1526743D01*
X749909Y-1523593D01*
X749096Y-1519885D01*
X749655Y-1516126D01*
X751382Y-1511401D01*
X753973Y-1498752D01*
X754888Y-1485900D01*
X753973Y-1473047D01*
X751382Y-1460398D01*
X749655Y-1455572D01*
X749046Y-1451813D01*
X749909Y-1448155D01*
X752043Y-1445006D01*
X939393Y-1257604D01*
X944473Y-1251356D01*
X947877Y-1244701D01*
X949858Y-1237335D01*
X950315Y-1231442D01*
X950315Y-864311D01*
X951128Y-860348D01*
X953414Y-856996D01*
X957376Y-854608D01*
X969314Y-848055D01*
X980287Y-839978D01*
X990092Y-830478D01*
X998575Y-819759D01*
X1005535Y-808024D01*
X1010818Y-795477D01*
X1014425Y-782320D01*
X1016253Y-768807D01*
X1016253Y-755192D01*
X1014425Y-741680D01*
X1010818Y-728522D01*
X1005535Y-715975D01*
X998575Y-704240D01*
X990092Y-693521D01*
X980287Y-684022D01*
X969314Y-675944D01*
X957376Y-669391D01*
X944626Y-664514D01*
X931367Y-661314D01*
X917803Y-659993D01*
X904189Y-660450D01*
X890727Y-662686D01*
X877722Y-666750D01*
X865327Y-672490D01*
X861161Y-675132D01*
X858012Y-676452D01*
X854608Y-676656D01*
X851306Y-675741D01*
X848512Y-673760D01*
X711962Y-537210D01*
X709777Y-533908D01*
X709015Y-529996D01*
X709015Y-285902D01*
X709625Y-282448D01*
X711352Y-279400D01*
X713994Y-277164D01*
X718159Y-274675D01*
X728878Y-266192D01*
X738378Y-256387D01*
X746455Y-245414D01*
X753008Y-233476D01*
X757885Y-220725D01*
X761085Y-207467D01*
X762406Y-193903D01*
X761949Y-180289D01*
X759714Y-166827D01*
X755650Y-153822D01*
X749909Y-141427D01*
X742594Y-129946D01*
X733806Y-119532D01*
X723646Y-110388D01*
X712419Y-102666D01*
X700278Y-96520D01*
X687374Y-92049D01*
X674014Y-89306D01*
X660400Y-88442D01*
X646785Y-89306D01*
X633425Y-92049D01*
X620522Y-96520D01*
X608380Y-102666D01*
X597154Y-110388D01*
X586994Y-119532D01*
X578205Y-129946D01*
X570890Y-141427D01*
X565150Y-153822D01*
X561086Y-166827D01*
X558850Y-180289D01*
X558393Y-193903D01*
X559714Y-207467D01*
X562914Y-220725D01*
X567791Y-233476D01*
X574344Y-245414D01*
X582422Y-256387D01*
X591921Y-266192D01*
X602640Y-274675D01*
X614375Y-281635D01*
X626922Y-286918D01*
X629716Y-287731D01*
X633577Y-289763D01*
X636270Y-293217D01*
X637184Y-297484D01*
X637184Y-548589D01*
X638048Y-556564D01*
X640334Y-563676D01*
X644144Y-570280D01*
X648004Y-574751D01*
X810768Y-737565D01*
X812698Y-740257D01*
X813663Y-743458D01*
X812292Y-762000D01*
X813206Y-775614D01*
X815949Y-788974D01*
X820419Y-801878D01*
X826566Y-814019D01*
X834288Y-825246D01*
X843432Y-835406D01*
X853846Y-844194D01*
X865327Y-851509D01*
X872591Y-854913D01*
X875690Y-857148D01*
X877773Y-860348D01*
X878484Y-864108D01*
X878484Y-1212748D01*
X877722Y-1216660D01*
X875537Y-1219962D01*
X783437Y-1312011D01*
X780237Y-1314196D01*
X776478Y-1315008D01*
X772668Y-1314348D01*
X769366Y-1312367D01*
X767080Y-1309268D01*
X766114Y-1305509D01*
X765352Y-1294282D01*
X762660Y-1280718D01*
X758240Y-1267561D01*
X752094Y-1255166D01*
X744372Y-1243634D01*
X735279Y-1233220D01*
X724865Y-1224076D01*
X713333Y-1216406D01*
X700938Y-1210259D01*
X687781Y-1205839D01*
X674217Y-1203147D01*
X660400Y-1202232D01*
X646582Y-1203147D01*
X632968Y-1205839D01*
X619861Y-1210259D01*
X607466Y-1216406D01*
X595934Y-1224076D01*
X585520Y-1233220D01*
X576376Y-1243634D01*
X568706Y-1255166D01*
X562559Y-1267561D01*
X558139Y-1280718D01*
X555396Y-1294282D01*
X554482Y-1308100D01*
X555396Y-1321917D01*
X558139Y-1335532D01*
X562559Y-1348638D01*
X568706Y-1361033D01*
X576376Y-1372565D01*
X585520Y-1382979D01*
X595934Y-1392123D01*
X601218Y-1395628D01*
X603910Y-1398270D01*
X605434Y-1401724D01*
X605586Y-1405483D01*
X604418Y-1409090D01*
X601980Y-1411935D01*
X595934Y-1416862D01*
X587146Y-1426311D01*
X579678Y-1436827D01*
X573735Y-1448257D01*
X569417Y-1460398D01*
X566826Y-1473047D01*
X565912Y-1485900D01*
X566826Y-1498752D01*
X569417Y-1511401D01*
X573735Y-1523542D01*
X579678Y-1534972D01*
X587146Y-1545539D01*
X595934Y-1554937D01*
X605942Y-1563065D01*
X616915Y-1569770D01*
X628751Y-1574901D01*
X641197Y-1578406D01*
X653948Y-1580134D01*
X666851Y-1580134D01*
X679602Y-1578406D01*
X691489Y-1575054D01*
X695045Y-1574698D01*
X698500Y-1575612D01*
X701446Y-1577644D01*
X748538Y-1624736D01*
X750824Y-1628292D01*
X751484Y-1632457D01*
X751230Y-1636979D01*
X750366Y-1640636D01*
X748182Y-1643786D01*
X744982Y-1645818D01*
X741273Y-1646631D01*
X737514Y-1645970D01*
X734263Y-1643989D01*
X723646Y-1634388D01*
X712419Y-1626666D01*
X700278Y-1620520D01*
X687374Y-1616049D01*
X674014Y-1613306D01*
X660400Y-1612442D01*
X646785Y-1613306D01*
X633425Y-1616049D01*
X620522Y-1620520D01*
X608380Y-1626666D01*
X597154Y-1634388D01*
X586994Y-1643532D01*
X578205Y-1653946D01*
X570890Y-1665427D01*
X565150Y-1677822D01*
X561086Y-1690827D01*
X558850Y-1704289D01*
X558393Y-1717903D01*
X559714Y-1731467D01*
X562914Y-1744725D01*
X567791Y-1757476D01*
X574344Y-1769414D01*
X582422Y-1780387D01*
X591921Y-1790192D01*
X602640Y-1798675D01*
X614375Y-1805635D01*
X626922Y-1810918D01*
X629716Y-1811731D01*
X633577Y-1813763D01*
X636270Y-1817217D01*
X637184Y-1821484D01*
X637184Y-2072589D01*
X638048Y-2080564D01*
X640334Y-2087676D01*
X644144Y-2094280D01*
X648004Y-2098751D01*
X810768Y-2261565D01*
X812698Y-2264257D01*
X813663Y-2267458D01*
X812292Y-2286000D01*
X813206Y-2299614D01*
X815949Y-2312974D01*
X820419Y-2325878D01*
X826566Y-2338019D01*
X834288Y-2349246D01*
X843432Y-2359406D01*
X853846Y-2368194D01*
X865327Y-2375509D01*
X872591Y-2378913D01*
X875690Y-2381148D01*
X877773Y-2384348D01*
X878484Y-2388108D01*
X878484Y-2527249D01*
X879348Y-2535224D01*
X881634Y-2542336D01*
X885444Y-2548940D01*
X889304Y-2553462D01*
X1396644Y-3060293D01*
X1402892Y-3065322D01*
X1409547Y-3068726D01*
X1416964Y-3070707D01*
X1422806Y-3071164D01*
X3611118Y-3071164D01*
X3614928Y-3071876D01*
X3618179Y-3074009D01*
X3988054Y-3429203D01*
X3992219Y-3432708D01*
X3998772Y-3436416D01*
X4005884Y-3438702D01*
X4008120Y-3439109D01*
X4013555Y-3439464D01*
X4209999Y-3439464D01*
X4213910Y-3440226D01*
X4217212Y-3442411D01*
X4662220Y-3887470D01*
X4664506Y-3890924D01*
X4665218Y-3894937D01*
X4664252Y-3898950D01*
X4659782Y-3908551D01*
X4658004Y-3915105D01*
X4655972Y-3918965D01*
X4652518Y-3921658D01*
X4648200Y-3922623D01*
X4643882Y-3921658D01*
X4640427Y-3918965D01*
X4638395Y-3915105D01*
X4636617Y-3908551D01*
X4632553Y-3899814D01*
X4627016Y-3891940D01*
X4620209Y-3885133D01*
X4612335Y-3879596D01*
X4603597Y-3875532D01*
X4594301Y-3873042D01*
X4584700Y-3872179D01*
X4575098Y-3873042D01*
X4565802Y-3875532D01*
X4557064Y-3879596D01*
X4549190Y-3885133D01*
X4542383Y-3891940D01*
X4536846Y-3899814D01*
X4532782Y-3908551D01*
X4531004Y-3915105D01*
X4528972Y-3918965D01*
X4525518Y-3921658D01*
X4521200Y-3922623D01*
X4516882Y-3921658D01*
X4513427Y-3918965D01*
X4511395Y-3915105D01*
X4509617Y-3908551D01*
X4505553Y-3899814D01*
X4500016Y-3891940D01*
X4493209Y-3885133D01*
X4485335Y-3879596D01*
X4476597Y-3875532D01*
X4467301Y-3873042D01*
X4457700Y-3872179D01*
X4448098Y-3873042D01*
X4438802Y-3875532D01*
X4430064Y-3879596D01*
X4422190Y-3885133D01*
X4415383Y-3891940D01*
X4409846Y-3899814D01*
X4405782Y-3908551D01*
X4404004Y-3915105D01*
X4401972Y-3918965D01*
X4398518Y-3921658D01*
X4394200Y-3922623D01*
X4389882Y-3921658D01*
X4386427Y-3918965D01*
X4384395Y-3915105D01*
X4382617Y-3908551D01*
X4378553Y-3899814D01*
X4373016Y-3891940D01*
X4366209Y-3885133D01*
X4358335Y-3879596D01*
X4349597Y-3875532D01*
X4340301Y-3873042D01*
X4330700Y-3872179D01*
X4321098Y-3873042D01*
X4311802Y-3875532D01*
X4303064Y-3879596D01*
X4295190Y-3885133D01*
X4288383Y-3891940D01*
X4282846Y-3899814D01*
X4278782Y-3908551D01*
X4277004Y-3915105D01*
X4274972Y-3918965D01*
X4271518Y-3921658D01*
G37*

%LPC*%
G36*
X3745229Y-2910230D02*
G01*
X3786530Y-2910230D01*
X3786530Y-2868930D01*
X3776421Y-2874416D01*
X3766667Y-2881731D01*
X3758031Y-2890367D01*
X3750716Y-2900121D01*
G37*
G36*
X3858920Y-2910230D02*
G01*
X3900170Y-2910230D01*
X3894683Y-2900121D01*
X3887368Y-2890367D01*
X3878732Y-2881731D01*
X3868978Y-2874416D01*
X3858920Y-2868930D01*
G37*
G36*
X8138820Y-2401570D02*
G01*
X8148878Y-2396083D01*
X8158632Y-2388768D01*
X8167268Y-2380132D01*
X8174583Y-2370378D01*
X8180070Y-2360320D01*
X8138820Y-2360320D01*
G37*
G36*
X8066430Y-2401570D02*
G01*
X8066430Y-2360320D01*
X8025130Y-2360320D01*
X8030616Y-2370378D01*
X8037931Y-2380132D01*
X8046567Y-2388768D01*
X8056321Y-2396083D01*
G37*
G36*
X2187803Y-2388006D02*
G01*
X2201367Y-2386685D01*
X2214626Y-2383485D01*
X2227376Y-2378608D01*
X2239314Y-2372055D01*
X2250287Y-2363978D01*
X2260092Y-2354478D01*
X2268575Y-2343759D01*
X2275535Y-2332024D01*
X2280818Y-2319477D01*
X2284425Y-2306320D01*
X2286254Y-2292807D01*
X2286254Y-2279192D01*
X2284425Y-2265680D01*
X2280818Y-2252522D01*
X2275535Y-2239975D01*
X2268575Y-2228240D01*
X2260092Y-2217521D01*
X2250287Y-2208022D01*
X2239314Y-2199944D01*
X2226818Y-2193188D01*
X2223414Y-2191004D01*
X2221128Y-2187651D01*
X2220315Y-2183688D01*
X2220315Y-2146757D01*
X2219452Y-2138781D01*
X2217166Y-2131669D01*
X2213356Y-2125065D01*
X2209495Y-2120595D01*
X1981962Y-1893062D01*
X1979777Y-1889760D01*
X1979015Y-1885848D01*
X1979015Y-1809902D01*
X1979625Y-1806448D01*
X1981352Y-1803400D01*
X1983993Y-1801164D01*
X1988159Y-1798675D01*
X1998878Y-1790192D01*
X2008378Y-1780387D01*
X2016455Y-1769414D01*
X2023008Y-1757476D01*
X2027885Y-1744725D01*
X2031085Y-1731467D01*
X2032406Y-1717903D01*
X2031949Y-1704289D01*
X2029714Y-1690827D01*
X2025650Y-1677822D01*
X2019909Y-1665427D01*
X2012594Y-1653946D01*
X2003806Y-1643532D01*
X1993646Y-1634388D01*
X1982419Y-1626666D01*
X1970278Y-1620520D01*
X1957374Y-1616049D01*
X1944014Y-1613306D01*
X1930400Y-1612442D01*
X1916785Y-1613306D01*
X1903425Y-1616049D01*
X1890522Y-1620520D01*
X1878380Y-1626666D01*
X1867154Y-1634388D01*
X1856993Y-1643532D01*
X1848205Y-1653946D01*
X1840890Y-1665427D01*
X1835150Y-1677822D01*
X1831086Y-1690827D01*
X1828850Y-1704289D01*
X1828393Y-1717903D01*
X1829714Y-1731467D01*
X1832914Y-1744725D01*
X1837791Y-1757476D01*
X1844344Y-1769414D01*
X1852422Y-1780387D01*
X1861921Y-1790192D01*
X1872640Y-1798675D01*
X1884375Y-1805635D01*
X1896922Y-1810918D01*
X1899716Y-1811731D01*
X1903577Y-1813763D01*
X1906270Y-1817217D01*
X1907184Y-1821484D01*
X1907184Y-1904390D01*
X1908048Y-1912416D01*
X1910334Y-1919528D01*
X1914143Y-1926132D01*
X1918004Y-1930603D01*
X2145538Y-2158136D01*
X2147722Y-2161438D01*
X2148484Y-2165350D01*
X2148484Y-2183892D01*
X2147773Y-2187651D01*
X2145690Y-2190851D01*
X2142591Y-2193086D01*
X2135327Y-2196490D01*
X2123846Y-2203805D01*
X2113432Y-2212644D01*
X2104288Y-2222754D01*
X2096566Y-2233980D01*
X2090420Y-2246172D01*
X2085949Y-2259025D01*
X2083206Y-2272385D01*
X2082292Y-2286000D01*
X2083206Y-2299614D01*
X2085949Y-2312974D01*
X2090420Y-2325878D01*
X2096566Y-2338019D01*
X2104288Y-2349246D01*
X2113432Y-2359406D01*
X2123846Y-2368194D01*
X2135327Y-2375509D01*
X2147722Y-2381250D01*
X2160727Y-2385314D01*
X2174189Y-2387600D01*
G37*
G36*
X2441803Y-2388006D02*
G01*
X2455367Y-2386685D01*
X2468626Y-2383485D01*
X2481376Y-2378608D01*
X2493314Y-2372055D01*
X2504287Y-2363978D01*
X2514092Y-2354478D01*
X2522575Y-2343759D01*
X2529535Y-2332024D01*
X2534818Y-2319477D01*
X2538425Y-2306320D01*
X2540254Y-2292807D01*
X2540254Y-2279192D01*
X2538425Y-2265680D01*
X2534818Y-2252522D01*
X2529535Y-2239975D01*
X2522575Y-2228240D01*
X2514092Y-2217521D01*
X2504287Y-2208022D01*
X2493314Y-2199944D01*
X2480818Y-2193188D01*
X2477414Y-2191004D01*
X2475128Y-2187651D01*
X2474315Y-2183688D01*
X2474315Y-2159457D01*
X2473452Y-2151481D01*
X2471166Y-2144369D01*
X2467356Y-2137765D01*
X2463495Y-2133295D01*
X2235962Y-1905762D01*
X2233777Y-1902460D01*
X2233015Y-1898548D01*
X2233015Y-1809902D01*
X2233625Y-1806448D01*
X2235352Y-1803400D01*
X2237994Y-1801164D01*
X2242159Y-1798675D01*
X2252878Y-1790192D01*
X2262378Y-1780387D01*
X2270455Y-1769414D01*
X2277008Y-1757476D01*
X2281885Y-1744725D01*
X2285085Y-1731467D01*
X2286406Y-1717903D01*
X2285949Y-1704289D01*
X2283714Y-1690827D01*
X2279650Y-1677822D01*
X2273909Y-1665427D01*
X2266594Y-1653946D01*
X2257806Y-1643532D01*
X2247646Y-1634388D01*
X2236419Y-1626666D01*
X2224278Y-1620520D01*
X2211374Y-1616049D01*
X2198014Y-1613306D01*
X2184400Y-1612442D01*
X2170785Y-1613306D01*
X2157425Y-1616049D01*
X2144522Y-1620520D01*
X2132380Y-1626666D01*
X2121154Y-1634388D01*
X2110994Y-1643532D01*
X2102205Y-1653946D01*
X2094890Y-1665427D01*
X2089150Y-1677822D01*
X2085086Y-1690827D01*
X2082850Y-1704289D01*
X2082393Y-1717903D01*
X2083714Y-1731467D01*
X2086914Y-1744725D01*
X2091791Y-1757476D01*
X2098344Y-1769414D01*
X2106422Y-1780387D01*
X2115921Y-1790192D01*
X2126640Y-1798675D01*
X2138375Y-1805635D01*
X2150922Y-1810918D01*
X2153716Y-1811731D01*
X2157577Y-1813763D01*
X2160270Y-1817217D01*
X2161184Y-1821484D01*
X2161184Y-1917090D01*
X2162048Y-1925116D01*
X2164334Y-1932228D01*
X2168144Y-1938832D01*
X2172004Y-1943303D01*
X2399538Y-2170836D01*
X2401722Y-2174138D01*
X2402484Y-2178050D01*
X2402484Y-2183892D01*
X2401773Y-2187651D01*
X2399690Y-2190851D01*
X2396591Y-2193086D01*
X2389327Y-2196490D01*
X2377846Y-2203805D01*
X2367432Y-2212644D01*
X2358288Y-2222754D01*
X2350566Y-2233980D01*
X2344420Y-2246172D01*
X2339949Y-2259025D01*
X2337206Y-2272385D01*
X2336292Y-2286000D01*
X2337206Y-2299614D01*
X2339949Y-2312974D01*
X2344420Y-2325878D01*
X2350566Y-2338019D01*
X2358288Y-2349246D01*
X2367432Y-2359406D01*
X2377846Y-2368194D01*
X2389327Y-2375509D01*
X2401722Y-2381250D01*
X2414727Y-2385314D01*
X2428189Y-2387600D01*
G37*
G36*
X1933803Y-2388006D02*
G01*
X1947367Y-2386685D01*
X1960625Y-2383485D01*
X1973376Y-2378608D01*
X1985314Y-2372055D01*
X1996287Y-2363978D01*
X2006092Y-2354478D01*
X2014575Y-2343759D01*
X2021535Y-2332024D01*
X2026818Y-2319477D01*
X2030425Y-2306320D01*
X2032254Y-2292807D01*
X2032254Y-2279192D01*
X2030425Y-2265680D01*
X2026818Y-2252522D01*
X2021535Y-2239975D01*
X2014575Y-2228240D01*
X2006092Y-2217521D01*
X1996287Y-2208022D01*
X1985314Y-2199944D01*
X1972818Y-2193188D01*
X1969414Y-2191004D01*
X1967128Y-2187651D01*
X1966315Y-2183688D01*
X1966315Y-2146757D01*
X1965452Y-2138781D01*
X1963166Y-2131669D01*
X1959356Y-2125065D01*
X1955495Y-2120595D01*
X1727962Y-1893062D01*
X1725777Y-1889760D01*
X1725015Y-1885848D01*
X1725015Y-1809902D01*
X1725625Y-1806448D01*
X1727352Y-1803400D01*
X1729993Y-1801164D01*
X1734159Y-1798675D01*
X1744878Y-1790192D01*
X1754378Y-1780387D01*
X1762455Y-1769414D01*
X1769008Y-1757476D01*
X1773885Y-1744725D01*
X1777085Y-1731467D01*
X1778406Y-1717903D01*
X1777949Y-1704289D01*
X1775714Y-1690827D01*
X1771650Y-1677822D01*
X1765909Y-1665427D01*
X1758594Y-1653946D01*
X1749806Y-1643532D01*
X1739646Y-1634388D01*
X1728419Y-1626666D01*
X1716278Y-1620520D01*
X1703374Y-1616049D01*
X1690014Y-1613306D01*
X1676400Y-1612442D01*
X1662785Y-1613306D01*
X1649425Y-1616049D01*
X1636522Y-1620520D01*
X1624380Y-1626666D01*
X1613154Y-1634388D01*
X1602994Y-1643532D01*
X1594205Y-1653946D01*
X1586890Y-1665427D01*
X1581150Y-1677822D01*
X1577086Y-1690827D01*
X1574850Y-1704289D01*
X1574393Y-1717903D01*
X1575714Y-1731467D01*
X1578914Y-1744725D01*
X1583791Y-1757476D01*
X1590344Y-1769414D01*
X1598422Y-1780387D01*
X1607921Y-1790192D01*
X1618640Y-1798675D01*
X1630375Y-1805635D01*
X1642922Y-1810918D01*
X1645716Y-1811731D01*
X1649577Y-1813763D01*
X1652270Y-1817217D01*
X1653184Y-1821484D01*
X1653184Y-1904390D01*
X1654048Y-1912416D01*
X1656334Y-1919528D01*
X1660143Y-1926132D01*
X1664004Y-1930603D01*
X1891538Y-2158136D01*
X1893722Y-2161438D01*
X1894484Y-2165350D01*
X1894484Y-2183892D01*
X1893773Y-2187651D01*
X1891690Y-2190851D01*
X1888591Y-2193086D01*
X1881327Y-2196490D01*
X1869846Y-2203805D01*
X1859432Y-2212644D01*
X1850288Y-2222754D01*
X1842566Y-2233980D01*
X1836420Y-2246172D01*
X1831949Y-2259025D01*
X1829206Y-2272385D01*
X1828292Y-2286000D01*
X1829206Y-2299614D01*
X1831949Y-2312974D01*
X1836420Y-2325878D01*
X1842566Y-2338019D01*
X1850288Y-2349246D01*
X1859432Y-2359406D01*
X1869846Y-2368194D01*
X1881327Y-2375509D01*
X1893722Y-2381250D01*
X1906727Y-2385314D01*
X1920189Y-2387600D01*
G37*
G36*
X1679803Y-2388006D02*
G01*
X1693367Y-2386685D01*
X1706625Y-2383485D01*
X1719376Y-2378608D01*
X1731314Y-2372055D01*
X1742287Y-2363978D01*
X1752092Y-2354478D01*
X1760575Y-2343759D01*
X1767535Y-2332024D01*
X1772818Y-2319477D01*
X1776425Y-2306320D01*
X1778254Y-2292807D01*
X1778254Y-2279192D01*
X1776425Y-2265680D01*
X1772818Y-2252522D01*
X1767535Y-2239975D01*
X1760575Y-2228240D01*
X1752092Y-2217521D01*
X1742287Y-2208022D01*
X1731314Y-2199944D01*
X1718818Y-2193188D01*
X1715414Y-2191004D01*
X1713128Y-2187651D01*
X1712315Y-2183688D01*
X1712315Y-2134057D01*
X1711452Y-2126081D01*
X1709166Y-2118969D01*
X1705356Y-2112365D01*
X1701495Y-2107895D01*
X1473962Y-1880362D01*
X1471777Y-1877060D01*
X1471015Y-1873148D01*
X1471015Y-1809902D01*
X1471625Y-1806448D01*
X1473352Y-1803400D01*
X1475994Y-1801164D01*
X1480159Y-1798675D01*
X1490878Y-1790192D01*
X1500378Y-1780387D01*
X1508455Y-1769414D01*
X1515008Y-1757476D01*
X1519885Y-1744725D01*
X1523085Y-1731467D01*
X1524406Y-1717903D01*
X1523949Y-1704289D01*
X1521714Y-1690827D01*
X1517650Y-1677822D01*
X1511909Y-1665427D01*
X1504594Y-1653946D01*
X1495806Y-1643532D01*
X1485646Y-1634388D01*
X1474419Y-1626666D01*
X1462278Y-1620520D01*
X1449374Y-1616049D01*
X1436014Y-1613306D01*
X1422400Y-1612442D01*
X1408785Y-1613306D01*
X1395425Y-1616049D01*
X1382522Y-1620520D01*
X1370380Y-1626666D01*
X1359154Y-1634388D01*
X1348994Y-1643532D01*
X1340205Y-1653946D01*
X1332890Y-1665427D01*
X1327150Y-1677822D01*
X1323086Y-1690827D01*
X1320850Y-1704289D01*
X1320393Y-1717903D01*
X1321714Y-1731467D01*
X1324914Y-1744725D01*
X1329791Y-1757476D01*
X1336344Y-1769414D01*
X1344422Y-1780387D01*
X1353921Y-1790192D01*
X1364640Y-1798675D01*
X1376375Y-1805635D01*
X1388922Y-1810918D01*
X1391716Y-1811731D01*
X1395577Y-1813763D01*
X1398270Y-1817217D01*
X1399184Y-1821484D01*
X1399184Y-1891690D01*
X1400048Y-1899716D01*
X1402334Y-1906828D01*
X1406144Y-1913432D01*
X1410004Y-1917903D01*
X1637538Y-2145436D01*
X1639722Y-2148738D01*
X1640484Y-2152650D01*
X1640484Y-2183892D01*
X1639773Y-2187651D01*
X1637690Y-2190851D01*
X1634591Y-2193086D01*
X1627327Y-2196490D01*
X1615846Y-2203805D01*
X1605432Y-2212644D01*
X1596288Y-2222754D01*
X1588566Y-2233980D01*
X1582420Y-2246172D01*
X1577949Y-2259025D01*
X1575206Y-2272385D01*
X1574292Y-2286000D01*
X1575206Y-2299614D01*
X1577949Y-2312974D01*
X1582420Y-2325878D01*
X1588566Y-2338019D01*
X1596288Y-2349246D01*
X1605432Y-2359406D01*
X1615846Y-2368194D01*
X1627327Y-2375509D01*
X1639722Y-2381250D01*
X1652727Y-2385314D01*
X1666189Y-2387600D01*
G37*
G36*
X1425803Y-2388006D02*
G01*
X1439367Y-2386685D01*
X1452626Y-2383485D01*
X1465376Y-2378608D01*
X1477314Y-2372055D01*
X1488287Y-2363978D01*
X1498092Y-2354478D01*
X1506575Y-2343759D01*
X1513535Y-2332024D01*
X1518818Y-2319477D01*
X1522425Y-2306320D01*
X1524254Y-2292807D01*
X1524254Y-2279192D01*
X1522425Y-2265680D01*
X1518818Y-2252522D01*
X1513535Y-2239975D01*
X1506575Y-2228240D01*
X1498092Y-2217521D01*
X1488287Y-2208022D01*
X1477314Y-2199944D01*
X1464818Y-2193188D01*
X1461414Y-2191004D01*
X1459128Y-2187651D01*
X1458315Y-2183688D01*
X1458315Y-2172157D01*
X1457452Y-2164181D01*
X1455166Y-2157069D01*
X1451356Y-2150465D01*
X1447495Y-2145995D01*
X1219962Y-1918462D01*
X1217777Y-1915160D01*
X1217015Y-1911248D01*
X1217015Y-1809902D01*
X1217625Y-1806448D01*
X1219352Y-1803400D01*
X1221994Y-1801164D01*
X1226159Y-1798675D01*
X1236878Y-1790192D01*
X1246378Y-1780387D01*
X1254455Y-1769414D01*
X1261008Y-1757476D01*
X1265885Y-1744725D01*
X1269085Y-1731467D01*
X1270406Y-1717903D01*
X1269949Y-1704289D01*
X1267714Y-1690827D01*
X1263650Y-1677822D01*
X1257909Y-1665427D01*
X1250594Y-1653946D01*
X1241806Y-1643532D01*
X1231646Y-1634388D01*
X1220419Y-1626666D01*
X1208278Y-1620520D01*
X1195374Y-1616049D01*
X1182014Y-1613306D01*
X1168400Y-1612442D01*
X1154785Y-1613306D01*
X1141425Y-1616049D01*
X1128522Y-1620520D01*
X1116380Y-1626666D01*
X1105154Y-1634388D01*
X1094994Y-1643532D01*
X1086205Y-1653946D01*
X1078890Y-1665427D01*
X1073150Y-1677822D01*
X1069086Y-1690827D01*
X1066850Y-1704289D01*
X1066393Y-1717903D01*
X1067714Y-1731467D01*
X1070914Y-1744725D01*
X1075791Y-1757476D01*
X1082344Y-1769414D01*
X1090422Y-1780387D01*
X1099921Y-1790192D01*
X1110640Y-1798675D01*
X1122375Y-1805635D01*
X1134922Y-1810918D01*
X1137716Y-1811731D01*
X1141577Y-1813763D01*
X1144270Y-1817217D01*
X1145184Y-1821484D01*
X1145184Y-1929790D01*
X1146048Y-1937816D01*
X1148334Y-1944928D01*
X1152144Y-1951532D01*
X1156004Y-1956003D01*
X1378864Y-2178862D01*
X1380998Y-2182114D01*
X1381810Y-2185873D01*
X1381150Y-2189734D01*
X1379067Y-2192985D01*
X1375918Y-2195271D01*
X1373327Y-2196490D01*
X1361846Y-2203805D01*
X1351432Y-2212644D01*
X1342288Y-2222754D01*
X1334566Y-2233980D01*
X1328420Y-2246172D01*
X1323949Y-2259025D01*
X1321206Y-2272385D01*
X1320292Y-2286000D01*
X1321206Y-2299614D01*
X1323949Y-2312974D01*
X1328420Y-2325878D01*
X1334566Y-2338019D01*
X1342288Y-2349246D01*
X1351432Y-2359406D01*
X1361846Y-2368194D01*
X1373327Y-2375509D01*
X1385722Y-2381250D01*
X1398727Y-2385314D01*
X1412189Y-2387600D01*
G37*
G36*
X663803Y-2388006D02*
G01*
X677367Y-2386685D01*
X690626Y-2383485D01*
X703376Y-2378608D01*
X715314Y-2372055D01*
X726287Y-2363978D01*
X736092Y-2354478D01*
X744575Y-2343759D01*
X751535Y-2332024D01*
X756818Y-2319477D01*
X760425Y-2306320D01*
X762254Y-2292807D01*
X762254Y-2279192D01*
X760425Y-2265680D01*
X756818Y-2252522D01*
X751535Y-2239975D01*
X744575Y-2228240D01*
X736092Y-2217521D01*
X726287Y-2208022D01*
X715314Y-2199944D01*
X703376Y-2193391D01*
X690626Y-2188514D01*
X677367Y-2185314D01*
X663803Y-2183993D01*
X650189Y-2184450D01*
X636727Y-2186686D01*
X623722Y-2190750D01*
X611327Y-2196490D01*
X607161Y-2199132D01*
X604012Y-2200452D01*
X600608Y-2200656D01*
X597306Y-2199741D01*
X594512Y-2197760D01*
X457962Y-2061210D01*
X455777Y-2057907D01*
X455015Y-2053996D01*
X455015Y-1809902D01*
X455625Y-1806448D01*
X457352Y-1803400D01*
X459993Y-1801164D01*
X464159Y-1798675D01*
X474878Y-1790192D01*
X484378Y-1780387D01*
X492455Y-1769414D01*
X499008Y-1757476D01*
X503885Y-1744725D01*
X507085Y-1731467D01*
X508406Y-1717903D01*
X507949Y-1704289D01*
X505714Y-1690827D01*
X501650Y-1677822D01*
X495909Y-1665427D01*
X488594Y-1653946D01*
X479806Y-1643532D01*
X469646Y-1634388D01*
X458419Y-1626666D01*
X446278Y-1620520D01*
X433374Y-1616049D01*
X420014Y-1613306D01*
X406400Y-1612442D01*
X392785Y-1613306D01*
X379425Y-1616049D01*
X366522Y-1620520D01*
X354380Y-1626666D01*
X343154Y-1634388D01*
X332994Y-1643532D01*
X324205Y-1653946D01*
X316890Y-1665427D01*
X311150Y-1677822D01*
X307086Y-1690827D01*
X304850Y-1704289D01*
X304393Y-1717903D01*
X305714Y-1731467D01*
X308914Y-1744725D01*
X313791Y-1757476D01*
X320344Y-1769414D01*
X328422Y-1780387D01*
X337921Y-1790192D01*
X348640Y-1798675D01*
X360375Y-1805635D01*
X372922Y-1810918D01*
X375716Y-1811731D01*
X379577Y-1813763D01*
X382270Y-1817217D01*
X383184Y-1821484D01*
X383184Y-2072589D01*
X384048Y-2080564D01*
X386334Y-2087676D01*
X390144Y-2094280D01*
X394004Y-2098751D01*
X556768Y-2261565D01*
X558698Y-2264257D01*
X559663Y-2267458D01*
X558292Y-2286000D01*
X559206Y-2299614D01*
X561949Y-2312974D01*
X566420Y-2325878D01*
X572566Y-2338019D01*
X580288Y-2349246D01*
X589432Y-2359406D01*
X599846Y-2368194D01*
X611327Y-2375509D01*
X623722Y-2381250D01*
X636727Y-2385314D01*
X650189Y-2387600D01*
G37*
G36*
X7794447Y-2377846D02*
G01*
X7794447Y-2330958D01*
X7747558Y-2330958D01*
X7748270Y-2332634D01*
X7755128Y-2344216D01*
X7763459Y-2354783D01*
X7773162Y-2364130D01*
X7784033Y-2372156D01*
G37*
G36*
X7882128Y-2377744D02*
G01*
X7886801Y-2375560D01*
X7898130Y-2368346D01*
X7908442Y-2359609D01*
X7917484Y-2349652D01*
X7925104Y-2338527D01*
X7928914Y-2330958D01*
X7882128Y-2330958D01*
G37*
G36*
X8138820Y-2287930D02*
G01*
X8180070Y-2287930D01*
X8174583Y-2277821D01*
X8167268Y-2268067D01*
X8158632Y-2259431D01*
X8148878Y-2252116D01*
X8138820Y-2246630D01*
G37*
G36*
X8025130Y-2287930D02*
G01*
X8066430Y-2287930D01*
X8066430Y-2246630D01*
X8056321Y-2252116D01*
X8046567Y-2259431D01*
X8037931Y-2268067D01*
X8030616Y-2277821D01*
G37*
G36*
X7882128Y-2243277D02*
G01*
X7928914Y-2243277D01*
X7925104Y-2235708D01*
X7917484Y-2224582D01*
X7908442Y-2214575D01*
X7898130Y-2205888D01*
X7886801Y-2198624D01*
X7882128Y-2196490D01*
G37*
G36*
X7747558Y-2243277D02*
G01*
X7794447Y-2243277D01*
X7794447Y-2196338D01*
X7784033Y-2202078D01*
X7773162Y-2210054D01*
X7763459Y-2219452D01*
X7755128Y-2230018D01*
X7748270Y-2241600D01*
G37*
G36*
X8533536Y-1733092D02*
G01*
X8534552Y-1732686D01*
X8545525Y-1726336D01*
X8555532Y-1718564D01*
X8564321Y-1709420D01*
X8571788Y-1699158D01*
X8576716Y-1689862D01*
X8533536Y-1689862D01*
G37*
G36*
X8455863Y-1732940D02*
G01*
X8455863Y-1689862D01*
X8412734Y-1689862D01*
X8414461Y-1693672D01*
X8421166Y-1704441D01*
X8429345Y-1714144D01*
X8438743Y-1722628D01*
X8449259Y-1729689D01*
G37*
G36*
X8412734Y-1612138D02*
G01*
X8455863Y-1612138D01*
X8455863Y-1569059D01*
X8449259Y-1572310D01*
X8438743Y-1579372D01*
X8429345Y-1587855D01*
X8421166Y-1597558D01*
X8414461Y-1608328D01*
G37*
G36*
X8533536Y-1612138D02*
G01*
X8576716Y-1612138D01*
X8571788Y-1602841D01*
X8564321Y-1592580D01*
X8555532Y-1583486D01*
X8545525Y-1575663D01*
X8534552Y-1569313D01*
X8533536Y-1568907D01*
G37*
G36*
X1422400Y-1413967D02*
G01*
X1436217Y-1413103D01*
X1449832Y-1410360D01*
X1462938Y-1405940D01*
X1475333Y-1399794D01*
X1486865Y-1392123D01*
X1497279Y-1382979D01*
X1506423Y-1372565D01*
X1514094Y-1361033D01*
X1520240Y-1348638D01*
X1524711Y-1335532D01*
X1527403Y-1321917D01*
X1528318Y-1308100D01*
X1527403Y-1294282D01*
X1524711Y-1280718D01*
X1520240Y-1267561D01*
X1514094Y-1255166D01*
X1506423Y-1243634D01*
X1497279Y-1233220D01*
X1486865Y-1224076D01*
X1475333Y-1216406D01*
X1462938Y-1210259D01*
X1449832Y-1205839D01*
X1436217Y-1203147D01*
X1422400Y-1202232D01*
X1408582Y-1203147D01*
X1395018Y-1205839D01*
X1381861Y-1210259D01*
X1369466Y-1216406D01*
X1357934Y-1224076D01*
X1347520Y-1233220D01*
X1338427Y-1243634D01*
X1330706Y-1255166D01*
X1324559Y-1267561D01*
X1320139Y-1280718D01*
X1317447Y-1294282D01*
X1316532Y-1308100D01*
X1317447Y-1321917D01*
X1320139Y-1335532D01*
X1324559Y-1348638D01*
X1330706Y-1361033D01*
X1338427Y-1372565D01*
X1347520Y-1382979D01*
X1357934Y-1392123D01*
X1369466Y-1399794D01*
X1381861Y-1405940D01*
X1395018Y-1410360D01*
X1408582Y-1413103D01*
G37*
G36*
X5306720Y-1347470D02*
G01*
X5316778Y-1341983D01*
X5326532Y-1334668D01*
X5335168Y-1326032D01*
X5342483Y-1316278D01*
X5347970Y-1306220D01*
X5306720Y-1306220D01*
G37*
G36*
X5234330Y-1347470D02*
G01*
X5234330Y-1306220D01*
X5193030Y-1306220D01*
X5198516Y-1316278D01*
X5205831Y-1326032D01*
X5214467Y-1334668D01*
X5224221Y-1341983D01*
G37*
G36*
X7794447Y-1333449D02*
G01*
X7794447Y-1286560D01*
X7747558Y-1286560D01*
X7748270Y-1288237D01*
X7755128Y-1299819D01*
X7763459Y-1310386D01*
X7773162Y-1319784D01*
X7784033Y-1327759D01*
G37*
G36*
X5193030Y-1233830D02*
G01*
X5234330Y-1233830D01*
X5234330Y-1192530D01*
X5224221Y-1198016D01*
X5214467Y-1205331D01*
X5205831Y-1213967D01*
X5198516Y-1223721D01*
G37*
G36*
X5306720Y-1233830D02*
G01*
X5347970Y-1233830D01*
X5342483Y-1223721D01*
X5335168Y-1213967D01*
X5326532Y-1205331D01*
X5316778Y-1198016D01*
X5306720Y-1192530D01*
G37*
G36*
X7747558Y-1198880D02*
G01*
X7794447Y-1198880D01*
X7794447Y-1151940D01*
X7784033Y-1157681D01*
X7773162Y-1165656D01*
X7763459Y-1175054D01*
X7755128Y-1185621D01*
X7748270Y-1197203D01*
G37*
G36*
X4727803Y-864006D02*
G01*
X4741367Y-862685D01*
X4754626Y-859485D01*
X4767376Y-854608D01*
X4779314Y-848055D01*
X4790287Y-839978D01*
X4800092Y-830478D01*
X4808575Y-819759D01*
X4815535Y-808024D01*
X4820818Y-795477D01*
X4824425Y-782320D01*
X4826254Y-768807D01*
X4826254Y-755192D01*
X4824425Y-741680D01*
X4820818Y-728522D01*
X4815535Y-715975D01*
X4808575Y-704240D01*
X4800092Y-693521D01*
X4790287Y-684022D01*
X4779314Y-675944D01*
X4767376Y-669391D01*
X4754626Y-664514D01*
X4741367Y-661314D01*
X4727803Y-659993D01*
X4714189Y-660450D01*
X4700727Y-662686D01*
X4687722Y-666750D01*
X4675327Y-672490D01*
X4671161Y-675132D01*
X4668012Y-676452D01*
X4664608Y-676656D01*
X4661306Y-675741D01*
X4658512Y-673760D01*
X4521962Y-537210D01*
X4519777Y-533908D01*
X4519015Y-529996D01*
X4519015Y-285902D01*
X4519625Y-282448D01*
X4521352Y-279400D01*
X4523994Y-277164D01*
X4528159Y-274675D01*
X4538878Y-266192D01*
X4548378Y-256387D01*
X4556455Y-245414D01*
X4563008Y-233476D01*
X4567885Y-220725D01*
X4571085Y-207467D01*
X4572406Y-193903D01*
X4571949Y-180289D01*
X4569714Y-166827D01*
X4565650Y-153822D01*
X4559909Y-141427D01*
X4552594Y-129946D01*
X4543806Y-119532D01*
X4533646Y-110388D01*
X4522419Y-102666D01*
X4510278Y-96520D01*
X4497374Y-92049D01*
X4484014Y-89306D01*
X4470400Y-88442D01*
X4456785Y-89306D01*
X4443425Y-92049D01*
X4430522Y-96520D01*
X4418380Y-102666D01*
X4407154Y-110388D01*
X4396994Y-119532D01*
X4388205Y-129946D01*
X4380890Y-141427D01*
X4375150Y-153822D01*
X4371086Y-166827D01*
X4368850Y-180289D01*
X4368393Y-193903D01*
X4369714Y-207467D01*
X4372914Y-220725D01*
X4377791Y-233476D01*
X4384344Y-245414D01*
X4392422Y-256387D01*
X4401921Y-266192D01*
X4412640Y-274675D01*
X4424375Y-281635D01*
X4436922Y-286918D01*
X4439716Y-287731D01*
X4443577Y-289763D01*
X4446270Y-293217D01*
X4447184Y-297484D01*
X4447184Y-548589D01*
X4448048Y-556564D01*
X4450334Y-563676D01*
X4454144Y-570280D01*
X4458004Y-574751D01*
X4620768Y-737565D01*
X4622698Y-740257D01*
X4623663Y-743458D01*
X4622292Y-762000D01*
X4623206Y-775614D01*
X4625949Y-788974D01*
X4630420Y-801878D01*
X4636566Y-814019D01*
X4644288Y-825246D01*
X4653432Y-835406D01*
X4663846Y-844194D01*
X4675327Y-851509D01*
X4687722Y-857250D01*
X4700727Y-861314D01*
X4714189Y-863600D01*
G37*
G36*
X3711803Y-864006D02*
G01*
X3725367Y-862685D01*
X3738626Y-859485D01*
X3751376Y-854608D01*
X3763314Y-848055D01*
X3774287Y-839978D01*
X3784092Y-830478D01*
X3792575Y-819759D01*
X3799535Y-808024D01*
X3804818Y-795477D01*
X3808425Y-782320D01*
X3810254Y-768807D01*
X3810254Y-755192D01*
X3808425Y-741680D01*
X3804818Y-728522D01*
X3799535Y-715975D01*
X3792575Y-704240D01*
X3784092Y-693521D01*
X3774287Y-684022D01*
X3763314Y-675944D01*
X3751376Y-669391D01*
X3738626Y-664514D01*
X3725367Y-661314D01*
X3711803Y-659993D01*
X3698189Y-660450D01*
X3684727Y-662686D01*
X3671722Y-666750D01*
X3659327Y-672490D01*
X3655161Y-675132D01*
X3652012Y-676452D01*
X3648608Y-676656D01*
X3645306Y-675741D01*
X3642512Y-673760D01*
X3505962Y-537210D01*
X3503777Y-533908D01*
X3503015Y-529996D01*
X3503015Y-285902D01*
X3503625Y-282448D01*
X3505352Y-279400D01*
X3507994Y-277164D01*
X3512159Y-274675D01*
X3522878Y-266192D01*
X3532378Y-256387D01*
X3540455Y-245414D01*
X3547008Y-233476D01*
X3551885Y-220725D01*
X3555085Y-207467D01*
X3556406Y-193903D01*
X3555949Y-180289D01*
X3553714Y-166827D01*
X3549650Y-153822D01*
X3543909Y-141427D01*
X3536594Y-129946D01*
X3527806Y-119532D01*
X3517646Y-110388D01*
X3506419Y-102666D01*
X3494278Y-96520D01*
X3481374Y-92049D01*
X3468014Y-89306D01*
X3454400Y-88442D01*
X3440785Y-89306D01*
X3427425Y-92049D01*
X3414522Y-96520D01*
X3402380Y-102666D01*
X3391154Y-110388D01*
X3380994Y-119532D01*
X3372205Y-129946D01*
X3364890Y-141427D01*
X3359150Y-153822D01*
X3355086Y-166827D01*
X3352850Y-180289D01*
X3352393Y-193903D01*
X3353714Y-207467D01*
X3356914Y-220725D01*
X3361791Y-233476D01*
X3368344Y-245414D01*
X3376422Y-256387D01*
X3385921Y-266192D01*
X3396640Y-274675D01*
X3408375Y-281635D01*
X3420922Y-286918D01*
X3423716Y-287731D01*
X3427577Y-289763D01*
X3430270Y-293217D01*
X3431184Y-297484D01*
X3431184Y-548589D01*
X3432048Y-556564D01*
X3434334Y-563676D01*
X3438144Y-570280D01*
X3442004Y-574751D01*
X3604768Y-737565D01*
X3606698Y-740257D01*
X3607663Y-743458D01*
X3606292Y-762000D01*
X3607206Y-775614D01*
X3609949Y-788974D01*
X3614420Y-801878D01*
X3620566Y-814019D01*
X3628288Y-825246D01*
X3637432Y-835406D01*
X3647846Y-844194D01*
X3659327Y-851509D01*
X3671722Y-857250D01*
X3684727Y-861314D01*
X3698189Y-863600D01*
G37*
G36*
X4981803Y-864006D02*
G01*
X4995367Y-862685D01*
X5008626Y-859485D01*
X5021376Y-854608D01*
X5033314Y-848055D01*
X5044287Y-839978D01*
X5054092Y-830478D01*
X5062575Y-819759D01*
X5069535Y-808024D01*
X5074818Y-795477D01*
X5078425Y-782320D01*
X5080254Y-768807D01*
X5080254Y-755192D01*
X5078425Y-741680D01*
X5074818Y-728522D01*
X5069535Y-715975D01*
X5062575Y-704240D01*
X5054092Y-693521D01*
X5044287Y-684022D01*
X5033314Y-675944D01*
X5021376Y-669391D01*
X5008626Y-664514D01*
X4995367Y-661314D01*
X4981803Y-659993D01*
X4968189Y-660450D01*
X4954727Y-662686D01*
X4941722Y-666750D01*
X4929327Y-672490D01*
X4925161Y-675132D01*
X4922012Y-676452D01*
X4918608Y-676656D01*
X4915306Y-675741D01*
X4912512Y-673760D01*
X4775962Y-537210D01*
X4773777Y-533908D01*
X4773015Y-529996D01*
X4773015Y-285902D01*
X4773625Y-282448D01*
X4775352Y-279400D01*
X4777994Y-277164D01*
X4782159Y-274675D01*
X4792878Y-266192D01*
X4802378Y-256387D01*
X4810455Y-245414D01*
X4817008Y-233476D01*
X4821885Y-220725D01*
X4825085Y-207467D01*
X4826406Y-193903D01*
X4825949Y-180289D01*
X4823714Y-166827D01*
X4819650Y-153822D01*
X4813909Y-141427D01*
X4806594Y-129946D01*
X4797806Y-119532D01*
X4787646Y-110388D01*
X4776419Y-102666D01*
X4764278Y-96520D01*
X4751374Y-92049D01*
X4738014Y-89306D01*
X4724400Y-88442D01*
X4710785Y-89306D01*
X4697425Y-92049D01*
X4684522Y-96520D01*
X4672380Y-102666D01*
X4661154Y-110388D01*
X4650994Y-119532D01*
X4642205Y-129946D01*
X4634890Y-141427D01*
X4629150Y-153822D01*
X4625086Y-166827D01*
X4622850Y-180289D01*
X4622393Y-193903D01*
X4623714Y-207467D01*
X4626914Y-220725D01*
X4631791Y-233476D01*
X4638344Y-245414D01*
X4646422Y-256387D01*
X4655921Y-266192D01*
X4666640Y-274675D01*
X4678375Y-281635D01*
X4690922Y-286918D01*
X4693716Y-287731D01*
X4697577Y-289763D01*
X4700270Y-293217D01*
X4701184Y-297484D01*
X4701184Y-548589D01*
X4702048Y-556564D01*
X4704334Y-563676D01*
X4708144Y-570280D01*
X4712004Y-574751D01*
X4874768Y-737565D01*
X4876698Y-740257D01*
X4877663Y-743458D01*
X4876292Y-762000D01*
X4877206Y-775614D01*
X4879949Y-788974D01*
X4884420Y-801878D01*
X4890566Y-814019D01*
X4898288Y-825246D01*
X4907432Y-835406D01*
X4917846Y-844194D01*
X4929327Y-851509D01*
X4941722Y-857250D01*
X4954727Y-861314D01*
X4968189Y-863600D01*
G37*
G36*
X4219803Y-864006D02*
G01*
X4233367Y-862685D01*
X4246626Y-859485D01*
X4259376Y-854608D01*
X4271314Y-848055D01*
X4282287Y-839978D01*
X4292092Y-830478D01*
X4300575Y-819759D01*
X4307535Y-808024D01*
X4312818Y-795477D01*
X4316425Y-782320D01*
X4318254Y-768807D01*
X4318254Y-755192D01*
X4316425Y-741680D01*
X4312818Y-728522D01*
X4307535Y-715975D01*
X4300575Y-704240D01*
X4292092Y-693521D01*
X4282287Y-684022D01*
X4271314Y-675944D01*
X4259376Y-669391D01*
X4246626Y-664514D01*
X4233367Y-661314D01*
X4219803Y-659993D01*
X4206189Y-660450D01*
X4192727Y-662686D01*
X4179722Y-666750D01*
X4167327Y-672490D01*
X4163161Y-675132D01*
X4160012Y-676452D01*
X4156608Y-676656D01*
X4153306Y-675741D01*
X4150512Y-673760D01*
X4013962Y-537210D01*
X4011777Y-533908D01*
X4011015Y-529996D01*
X4011015Y-285902D01*
X4011625Y-282448D01*
X4013352Y-279400D01*
X4015994Y-277164D01*
X4020159Y-274675D01*
X4030878Y-266192D01*
X4040378Y-256387D01*
X4048455Y-245414D01*
X4055008Y-233476D01*
X4059885Y-220725D01*
X4063085Y-207467D01*
X4064406Y-193903D01*
X4063949Y-180289D01*
X4061714Y-166827D01*
X4057650Y-153822D01*
X4051909Y-141427D01*
X4044594Y-129946D01*
X4035806Y-119532D01*
X4025646Y-110388D01*
X4014419Y-102666D01*
X4002278Y-96520D01*
X3989374Y-92049D01*
X3976014Y-89306D01*
X3962400Y-88442D01*
X3948785Y-89306D01*
X3935425Y-92049D01*
X3922522Y-96520D01*
X3910380Y-102666D01*
X3899154Y-110388D01*
X3888994Y-119532D01*
X3880205Y-129946D01*
X3872890Y-141427D01*
X3867150Y-153822D01*
X3863086Y-166827D01*
X3860850Y-180289D01*
X3860393Y-193903D01*
X3861714Y-207467D01*
X3864914Y-220725D01*
X3869791Y-233476D01*
X3876344Y-245414D01*
X3884422Y-256387D01*
X3893921Y-266192D01*
X3904640Y-274675D01*
X3916375Y-281635D01*
X3928922Y-286918D01*
X3931716Y-287731D01*
X3935577Y-289763D01*
X3938270Y-293217D01*
X3939184Y-297484D01*
X3939184Y-548589D01*
X3940048Y-556564D01*
X3942334Y-563676D01*
X3946144Y-570280D01*
X3950004Y-574751D01*
X4112768Y-737565D01*
X4114698Y-740257D01*
X4115663Y-743458D01*
X4114292Y-762000D01*
X4115206Y-775614D01*
X4117949Y-788974D01*
X4122420Y-801878D01*
X4128566Y-814019D01*
X4136288Y-825246D01*
X4145432Y-835406D01*
X4155846Y-844194D01*
X4167327Y-851509D01*
X4179722Y-857250D01*
X4192727Y-861314D01*
X4206189Y-863600D01*
G37*
G36*
X4473803Y-864006D02*
G01*
X4487367Y-862685D01*
X4500626Y-859485D01*
X4513376Y-854608D01*
X4525314Y-848055D01*
X4536287Y-839978D01*
X4546092Y-830478D01*
X4554575Y-819759D01*
X4561535Y-808024D01*
X4566818Y-795477D01*
X4570425Y-782320D01*
X4572254Y-768807D01*
X4572254Y-755192D01*
X4570425Y-741680D01*
X4566818Y-728522D01*
X4561535Y-715975D01*
X4554575Y-704240D01*
X4546092Y-693521D01*
X4536287Y-684022D01*
X4525314Y-675944D01*
X4513376Y-669391D01*
X4500626Y-664514D01*
X4487367Y-661314D01*
X4473803Y-659993D01*
X4460189Y-660450D01*
X4446727Y-662686D01*
X4433722Y-666750D01*
X4421327Y-672490D01*
X4417161Y-675132D01*
X4414012Y-676452D01*
X4410608Y-676656D01*
X4407306Y-675741D01*
X4404512Y-673760D01*
X4267962Y-537210D01*
X4265777Y-533908D01*
X4265015Y-529996D01*
X4265015Y-285902D01*
X4265625Y-282448D01*
X4267352Y-279400D01*
X4269994Y-277164D01*
X4274159Y-274675D01*
X4284878Y-266192D01*
X4294378Y-256387D01*
X4302455Y-245414D01*
X4309008Y-233476D01*
X4313885Y-220725D01*
X4317085Y-207467D01*
X4318406Y-193903D01*
X4317949Y-180289D01*
X4315714Y-166827D01*
X4311650Y-153822D01*
X4305909Y-141427D01*
X4298594Y-129946D01*
X4289806Y-119532D01*
X4279646Y-110388D01*
X4268419Y-102666D01*
X4256278Y-96520D01*
X4243374Y-92049D01*
X4230014Y-89306D01*
X4216400Y-88442D01*
X4202785Y-89306D01*
X4189425Y-92049D01*
X4176522Y-96520D01*
X4164380Y-102666D01*
X4153154Y-110388D01*
X4142994Y-119532D01*
X4134205Y-129946D01*
X4126890Y-141427D01*
X4121150Y-153822D01*
X4117086Y-166827D01*
X4114850Y-180289D01*
X4114393Y-193903D01*
X4115714Y-207467D01*
X4118914Y-220725D01*
X4123791Y-233476D01*
X4130344Y-245414D01*
X4138422Y-256387D01*
X4147921Y-266192D01*
X4158640Y-274675D01*
X4170375Y-281635D01*
X4182922Y-286918D01*
X4185716Y-287731D01*
X4189577Y-289763D01*
X4192270Y-293217D01*
X4193184Y-297484D01*
X4193184Y-548589D01*
X4194048Y-556564D01*
X4196334Y-563676D01*
X4200144Y-570280D01*
X4204004Y-574751D01*
X4366768Y-737565D01*
X4368698Y-740257D01*
X4369663Y-743458D01*
X4368292Y-762000D01*
X4369206Y-775614D01*
X4371949Y-788974D01*
X4376420Y-801878D01*
X4382566Y-814019D01*
X4390288Y-825246D01*
X4399432Y-835406D01*
X4409846Y-844194D01*
X4421327Y-851509D01*
X4433722Y-857250D01*
X4446727Y-861314D01*
X4460189Y-863600D01*
G37*
G36*
X3457803Y-864006D02*
G01*
X3471367Y-862685D01*
X3484626Y-859485D01*
X3497376Y-854608D01*
X3509314Y-848055D01*
X3520287Y-839978D01*
X3530092Y-830478D01*
X3538575Y-819759D01*
X3545535Y-808024D01*
X3550818Y-795477D01*
X3554425Y-782320D01*
X3556254Y-768807D01*
X3556254Y-755192D01*
X3554425Y-741680D01*
X3550818Y-728522D01*
X3545535Y-715975D01*
X3538575Y-704240D01*
X3530092Y-693521D01*
X3520287Y-684022D01*
X3509314Y-675944D01*
X3497376Y-669391D01*
X3484626Y-664514D01*
X3471367Y-661314D01*
X3457803Y-659993D01*
X3444189Y-660450D01*
X3430727Y-662686D01*
X3417722Y-666750D01*
X3405327Y-672490D01*
X3401161Y-675132D01*
X3398012Y-676452D01*
X3394608Y-676656D01*
X3391306Y-675741D01*
X3388512Y-673760D01*
X3251962Y-537210D01*
X3249777Y-533908D01*
X3249015Y-529996D01*
X3249015Y-285902D01*
X3249625Y-282448D01*
X3251352Y-279400D01*
X3253994Y-277164D01*
X3258159Y-274675D01*
X3268878Y-266192D01*
X3278378Y-256387D01*
X3286455Y-245414D01*
X3293008Y-233476D01*
X3297885Y-220725D01*
X3301085Y-207467D01*
X3302406Y-193903D01*
X3301949Y-180289D01*
X3299714Y-166827D01*
X3295650Y-153822D01*
X3289909Y-141427D01*
X3282594Y-129946D01*
X3273806Y-119532D01*
X3263646Y-110388D01*
X3252419Y-102666D01*
X3240278Y-96520D01*
X3227374Y-92049D01*
X3214014Y-89306D01*
X3200400Y-88442D01*
X3186785Y-89306D01*
X3173425Y-92049D01*
X3160522Y-96520D01*
X3148380Y-102666D01*
X3137154Y-110388D01*
X3126994Y-119532D01*
X3118205Y-129946D01*
X3110890Y-141427D01*
X3105150Y-153822D01*
X3101086Y-166827D01*
X3098850Y-180289D01*
X3098393Y-193903D01*
X3099714Y-207467D01*
X3102914Y-220725D01*
X3107791Y-233476D01*
X3114344Y-245414D01*
X3122422Y-256387D01*
X3131921Y-266192D01*
X3142640Y-274675D01*
X3154375Y-281635D01*
X3166922Y-286918D01*
X3169716Y-287731D01*
X3173577Y-289763D01*
X3176270Y-293217D01*
X3177184Y-297484D01*
X3177184Y-548589D01*
X3178048Y-556564D01*
X3180334Y-563676D01*
X3184144Y-570280D01*
X3188004Y-574751D01*
X3350768Y-737565D01*
X3352698Y-740257D01*
X3353663Y-743458D01*
X3352292Y-762000D01*
X3353206Y-775614D01*
X3355949Y-788974D01*
X3360420Y-801878D01*
X3366566Y-814019D01*
X3374288Y-825246D01*
X3383432Y-835406D01*
X3393846Y-844194D01*
X3405327Y-851509D01*
X3417722Y-857250D01*
X3430727Y-861314D01*
X3444189Y-863600D01*
G37*
G36*
X3965803Y-864006D02*
G01*
X3979367Y-862685D01*
X3992626Y-859485D01*
X4005376Y-854608D01*
X4017314Y-848055D01*
X4028287Y-839978D01*
X4038092Y-830478D01*
X4046575Y-819759D01*
X4053535Y-808024D01*
X4058818Y-795477D01*
X4062425Y-782320D01*
X4064254Y-768807D01*
X4064254Y-755192D01*
X4062425Y-741680D01*
X4058818Y-728522D01*
X4053535Y-715975D01*
X4046575Y-704240D01*
X4038092Y-693521D01*
X4028287Y-684022D01*
X4017314Y-675944D01*
X4005376Y-669391D01*
X3992626Y-664514D01*
X3979367Y-661314D01*
X3965803Y-659993D01*
X3952189Y-660450D01*
X3938727Y-662686D01*
X3925722Y-666750D01*
X3913327Y-672490D01*
X3909161Y-675132D01*
X3906012Y-676452D01*
X3902608Y-676656D01*
X3899306Y-675741D01*
X3896512Y-673760D01*
X3759962Y-537210D01*
X3757777Y-533908D01*
X3757015Y-529996D01*
X3757015Y-285902D01*
X3757625Y-282448D01*
X3759352Y-279400D01*
X3761994Y-277164D01*
X3766159Y-274675D01*
X3776878Y-266192D01*
X3786378Y-256387D01*
X3794455Y-245414D01*
X3801008Y-233476D01*
X3805885Y-220725D01*
X3809085Y-207467D01*
X3810406Y-193903D01*
X3809949Y-180289D01*
X3807714Y-166827D01*
X3803650Y-153822D01*
X3797909Y-141427D01*
X3790594Y-129946D01*
X3781806Y-119532D01*
X3771646Y-110388D01*
X3760419Y-102666D01*
X3748278Y-96520D01*
X3735374Y-92049D01*
X3722014Y-89306D01*
X3708400Y-88442D01*
X3694785Y-89306D01*
X3681425Y-92049D01*
X3668522Y-96520D01*
X3656380Y-102666D01*
X3645154Y-110388D01*
X3634994Y-119532D01*
X3626205Y-129946D01*
X3618890Y-141427D01*
X3613150Y-153822D01*
X3609086Y-166827D01*
X3606850Y-180289D01*
X3606393Y-193903D01*
X3607714Y-207467D01*
X3610914Y-220725D01*
X3615791Y-233476D01*
X3622344Y-245414D01*
X3630422Y-256387D01*
X3639921Y-266192D01*
X3650640Y-274675D01*
X3662375Y-281635D01*
X3674922Y-286918D01*
X3677716Y-287731D01*
X3681577Y-289763D01*
X3684270Y-293217D01*
X3685184Y-297484D01*
X3685184Y-548589D01*
X3686048Y-556564D01*
X3688334Y-563676D01*
X3692144Y-570280D01*
X3696004Y-574751D01*
X3858768Y-737565D01*
X3860698Y-740257D01*
X3861663Y-743458D01*
X3860292Y-762000D01*
X3861206Y-775614D01*
X3863949Y-788974D01*
X3868420Y-801878D01*
X3874566Y-814019D01*
X3882288Y-825246D01*
X3891432Y-835406D01*
X3901846Y-844194D01*
X3913327Y-851509D01*
X3925722Y-857250D01*
X3938727Y-861314D01*
X3952189Y-863600D01*
G37*
G36*
X5235803Y-864006D02*
G01*
X5249367Y-862685D01*
X5262626Y-859485D01*
X5275376Y-854608D01*
X5287314Y-848055D01*
X5298287Y-839978D01*
X5308092Y-830478D01*
X5316575Y-819759D01*
X5323535Y-808024D01*
X5328818Y-795477D01*
X5332425Y-782320D01*
X5334254Y-768807D01*
X5334254Y-755192D01*
X5332425Y-741680D01*
X5328818Y-728522D01*
X5323535Y-715975D01*
X5316575Y-704240D01*
X5308092Y-693521D01*
X5298287Y-684022D01*
X5287314Y-675944D01*
X5275376Y-669391D01*
X5262626Y-664514D01*
X5249367Y-661314D01*
X5235803Y-659993D01*
X5222189Y-660450D01*
X5208727Y-662686D01*
X5195722Y-666750D01*
X5183327Y-672490D01*
X5179161Y-675132D01*
X5176012Y-676452D01*
X5172608Y-676656D01*
X5169306Y-675741D01*
X5166512Y-673760D01*
X5029962Y-537210D01*
X5027777Y-533908D01*
X5027015Y-529996D01*
X5027015Y-285902D01*
X5027625Y-282448D01*
X5029352Y-279400D01*
X5031994Y-277164D01*
X5036159Y-274675D01*
X5046878Y-266192D01*
X5056378Y-256387D01*
X5064455Y-245414D01*
X5071008Y-233476D01*
X5075885Y-220725D01*
X5079085Y-207467D01*
X5080406Y-193903D01*
X5079949Y-180289D01*
X5077714Y-166827D01*
X5073650Y-153822D01*
X5067909Y-141427D01*
X5060594Y-129946D01*
X5051806Y-119532D01*
X5041646Y-110388D01*
X5030419Y-102666D01*
X5018278Y-96520D01*
X5005374Y-92049D01*
X4992014Y-89306D01*
X4978400Y-88442D01*
X4964785Y-89306D01*
X4951425Y-92049D01*
X4938522Y-96520D01*
X4926380Y-102666D01*
X4915154Y-110388D01*
X4904994Y-119532D01*
X4896205Y-129946D01*
X4888890Y-141427D01*
X4883150Y-153822D01*
X4879086Y-166827D01*
X4876850Y-180289D01*
X4876393Y-193903D01*
X4877714Y-207467D01*
X4880914Y-220725D01*
X4885791Y-233476D01*
X4892344Y-245414D01*
X4900422Y-256387D01*
X4909921Y-266192D01*
X4920640Y-274675D01*
X4932375Y-281635D01*
X4944922Y-286918D01*
X4947716Y-287731D01*
X4951577Y-289763D01*
X4954270Y-293217D01*
X4955184Y-297484D01*
X4955184Y-548589D01*
X4956048Y-556564D01*
X4958334Y-563676D01*
X4962144Y-570280D01*
X4966004Y-574751D01*
X5128768Y-737565D01*
X5130698Y-740257D01*
X5131663Y-743458D01*
X5130292Y-762000D01*
X5131206Y-775614D01*
X5133949Y-788974D01*
X5138420Y-801878D01*
X5144566Y-814019D01*
X5152288Y-825246D01*
X5161432Y-835406D01*
X5171846Y-844194D01*
X5183327Y-851509D01*
X5195722Y-857250D01*
X5208727Y-861314D01*
X5222189Y-863600D01*
G37*
G36*
X1425803Y-864006D02*
G01*
X1439367Y-862685D01*
X1452626Y-859485D01*
X1465376Y-854608D01*
X1477314Y-848055D01*
X1488287Y-839978D01*
X1498092Y-830478D01*
X1506575Y-819759D01*
X1513535Y-808024D01*
X1518818Y-795477D01*
X1522425Y-782320D01*
X1524254Y-768807D01*
X1524254Y-755192D01*
X1522425Y-741680D01*
X1518818Y-728522D01*
X1513535Y-715975D01*
X1506575Y-704240D01*
X1498092Y-693521D01*
X1488287Y-684022D01*
X1477314Y-675944D01*
X1465376Y-669391D01*
X1452626Y-664514D01*
X1439367Y-661314D01*
X1425803Y-659993D01*
X1412189Y-660450D01*
X1398727Y-662686D01*
X1385722Y-666750D01*
X1373327Y-672490D01*
X1369161Y-675132D01*
X1366012Y-676452D01*
X1362608Y-676656D01*
X1359306Y-675741D01*
X1356512Y-673760D01*
X1219962Y-537210D01*
X1217777Y-533908D01*
X1217015Y-529996D01*
X1217015Y-285902D01*
X1217625Y-282448D01*
X1219352Y-279400D01*
X1221994Y-277164D01*
X1226159Y-274675D01*
X1236878Y-266192D01*
X1246378Y-256387D01*
X1254455Y-245414D01*
X1261008Y-233476D01*
X1265885Y-220725D01*
X1269085Y-207467D01*
X1270406Y-193903D01*
X1269949Y-180289D01*
X1267714Y-166827D01*
X1263650Y-153822D01*
X1257909Y-141427D01*
X1250594Y-129946D01*
X1241806Y-119532D01*
X1231646Y-110388D01*
X1220419Y-102666D01*
X1208278Y-96520D01*
X1195374Y-92049D01*
X1182014Y-89306D01*
X1168400Y-88442D01*
X1154785Y-89306D01*
X1141425Y-92049D01*
X1128522Y-96520D01*
X1116380Y-102666D01*
X1105154Y-110388D01*
X1094994Y-119532D01*
X1086205Y-129946D01*
X1078890Y-141427D01*
X1073150Y-153822D01*
X1069086Y-166827D01*
X1066850Y-180289D01*
X1066393Y-193903D01*
X1067714Y-207467D01*
X1070914Y-220725D01*
X1075791Y-233476D01*
X1082344Y-245414D01*
X1090422Y-256387D01*
X1099921Y-266192D01*
X1110640Y-274675D01*
X1122375Y-281635D01*
X1134922Y-286918D01*
X1137716Y-287731D01*
X1141577Y-289763D01*
X1144270Y-293217D01*
X1145184Y-297484D01*
X1145184Y-548589D01*
X1146048Y-556564D01*
X1148334Y-563676D01*
X1152144Y-570280D01*
X1156004Y-574751D01*
X1318768Y-737565D01*
X1320698Y-740257D01*
X1321663Y-743458D01*
X1320292Y-762000D01*
X1321206Y-775614D01*
X1323949Y-788974D01*
X1328420Y-801878D01*
X1334566Y-814019D01*
X1342288Y-825246D01*
X1351432Y-835406D01*
X1361846Y-844194D01*
X1373327Y-851509D01*
X1385722Y-857250D01*
X1398727Y-861314D01*
X1412189Y-863600D01*
G37*
G36*
X1679803Y-864006D02*
G01*
X1693367Y-862685D01*
X1706625Y-859485D01*
X1719376Y-854608D01*
X1731314Y-848055D01*
X1742287Y-839978D01*
X1752092Y-830478D01*
X1760575Y-819759D01*
X1767535Y-808024D01*
X1772818Y-795477D01*
X1776425Y-782320D01*
X1778254Y-768807D01*
X1778254Y-755192D01*
X1776425Y-741680D01*
X1772818Y-728522D01*
X1767535Y-715975D01*
X1760575Y-704240D01*
X1752092Y-693521D01*
X1742287Y-684022D01*
X1731314Y-675944D01*
X1719376Y-669391D01*
X1706625Y-664514D01*
X1693367Y-661314D01*
X1679803Y-659993D01*
X1666189Y-660450D01*
X1652727Y-662686D01*
X1639722Y-666750D01*
X1627327Y-672490D01*
X1623161Y-675132D01*
X1620012Y-676452D01*
X1616608Y-676656D01*
X1613306Y-675741D01*
X1610512Y-673760D01*
X1473962Y-537210D01*
X1471777Y-533908D01*
X1471015Y-529996D01*
X1471015Y-285902D01*
X1471625Y-282448D01*
X1473352Y-279400D01*
X1475994Y-277164D01*
X1480159Y-274675D01*
X1490878Y-266192D01*
X1500378Y-256387D01*
X1508455Y-245414D01*
X1515008Y-233476D01*
X1519885Y-220725D01*
X1523085Y-207467D01*
X1524406Y-193903D01*
X1523949Y-180289D01*
X1521714Y-166827D01*
X1517650Y-153822D01*
X1511909Y-141427D01*
X1504594Y-129946D01*
X1495806Y-119532D01*
X1485646Y-110388D01*
X1474419Y-102666D01*
X1462278Y-96520D01*
X1449374Y-92049D01*
X1436014Y-89306D01*
X1422400Y-88442D01*
X1408785Y-89306D01*
X1395425Y-92049D01*
X1382522Y-96520D01*
X1370380Y-102666D01*
X1359154Y-110388D01*
X1348994Y-119532D01*
X1340205Y-129946D01*
X1332890Y-141427D01*
X1327150Y-153822D01*
X1323086Y-166827D01*
X1320850Y-180289D01*
X1320393Y-193903D01*
X1321714Y-207467D01*
X1324914Y-220725D01*
X1329791Y-233476D01*
X1336344Y-245414D01*
X1344422Y-256387D01*
X1353921Y-266192D01*
X1364640Y-274675D01*
X1376375Y-281635D01*
X1388922Y-286918D01*
X1391716Y-287731D01*
X1395577Y-289763D01*
X1398270Y-293217D01*
X1399184Y-297484D01*
X1399184Y-548589D01*
X1400048Y-556564D01*
X1402334Y-563676D01*
X1406144Y-570280D01*
X1410004Y-574751D01*
X1572768Y-737565D01*
X1574698Y-740257D01*
X1575663Y-743458D01*
X1574292Y-762000D01*
X1575206Y-775614D01*
X1577949Y-788974D01*
X1582420Y-801878D01*
X1588566Y-814019D01*
X1596288Y-825246D01*
X1605432Y-835406D01*
X1615846Y-844194D01*
X1627327Y-851509D01*
X1639722Y-857250D01*
X1652727Y-861314D01*
X1666189Y-863600D01*
G37*
G36*
X1171803Y-864006D02*
G01*
X1185367Y-862685D01*
X1198626Y-859485D01*
X1211376Y-854608D01*
X1223314Y-848055D01*
X1234287Y-839978D01*
X1244092Y-830478D01*
X1252575Y-819759D01*
X1259535Y-808024D01*
X1264818Y-795477D01*
X1268425Y-782320D01*
X1270254Y-768807D01*
X1270254Y-755192D01*
X1268425Y-741680D01*
X1264818Y-728522D01*
X1259535Y-715975D01*
X1252575Y-704240D01*
X1244092Y-693521D01*
X1234287Y-684022D01*
X1223314Y-675944D01*
X1211376Y-669391D01*
X1198626Y-664514D01*
X1185367Y-661314D01*
X1171803Y-659993D01*
X1158189Y-660450D01*
X1144727Y-662686D01*
X1131722Y-666750D01*
X1119327Y-672490D01*
X1115161Y-675132D01*
X1112012Y-676452D01*
X1108608Y-676656D01*
X1105306Y-675741D01*
X1102512Y-673760D01*
X965962Y-537210D01*
X963777Y-533908D01*
X963015Y-529996D01*
X963015Y-285902D01*
X963625Y-282448D01*
X965352Y-279400D01*
X967994Y-277164D01*
X972159Y-274675D01*
X982878Y-266192D01*
X992378Y-256387D01*
X1000455Y-245414D01*
X1007008Y-233476D01*
X1011885Y-220725D01*
X1015085Y-207467D01*
X1016406Y-193903D01*
X1015949Y-180289D01*
X1013714Y-166827D01*
X1009650Y-153822D01*
X1003909Y-141427D01*
X996594Y-129946D01*
X987806Y-119532D01*
X977646Y-110388D01*
X966419Y-102666D01*
X954278Y-96520D01*
X941374Y-92049D01*
X928014Y-89306D01*
X914400Y-88442D01*
X900785Y-89306D01*
X887425Y-92049D01*
X874521Y-96520D01*
X862380Y-102666D01*
X851153Y-110388D01*
X840994Y-119532D01*
X832205Y-129946D01*
X824890Y-141427D01*
X819150Y-153822D01*
X815086Y-166827D01*
X812850Y-180289D01*
X812393Y-193903D01*
X813714Y-207467D01*
X816914Y-220725D01*
X821791Y-233476D01*
X828344Y-245414D01*
X836421Y-256387D01*
X845921Y-266192D01*
X856640Y-274675D01*
X868375Y-281635D01*
X880922Y-286918D01*
X883716Y-287731D01*
X887577Y-289763D01*
X890269Y-293217D01*
X891184Y-297484D01*
X891184Y-548589D01*
X892048Y-556564D01*
X894334Y-563676D01*
X898144Y-570280D01*
X902004Y-574751D01*
X1064768Y-737565D01*
X1066698Y-740257D01*
X1067663Y-743458D01*
X1066292Y-762000D01*
X1067206Y-775614D01*
X1069949Y-788974D01*
X1074420Y-801878D01*
X1080566Y-814019D01*
X1088288Y-825246D01*
X1097432Y-835406D01*
X1107846Y-844194D01*
X1119327Y-851509D01*
X1131722Y-857250D01*
X1144727Y-861314D01*
X1158189Y-863600D01*
G37*
G36*
X663803Y-864006D02*
G01*
X677367Y-862685D01*
X690626Y-859485D01*
X703376Y-854608D01*
X715314Y-848055D01*
X726287Y-839978D01*
X736092Y-830478D01*
X744575Y-819759D01*
X751535Y-808024D01*
X756818Y-795477D01*
X760425Y-782320D01*
X762254Y-768807D01*
X762254Y-755192D01*
X760425Y-741680D01*
X756818Y-728522D01*
X751535Y-715975D01*
X744575Y-704240D01*
X736092Y-693521D01*
X726287Y-684022D01*
X715314Y-675944D01*
X703376Y-669391D01*
X690626Y-664514D01*
X677367Y-661314D01*
X663803Y-659993D01*
X650189Y-660450D01*
X636727Y-662686D01*
X623722Y-666750D01*
X611327Y-672490D01*
X607161Y-675132D01*
X604012Y-676452D01*
X600608Y-676656D01*
X597306Y-675741D01*
X594512Y-673760D01*
X457962Y-537210D01*
X455777Y-533908D01*
X455015Y-529996D01*
X455015Y-285902D01*
X455625Y-282448D01*
X457352Y-279400D01*
X459993Y-277164D01*
X464159Y-274675D01*
X474878Y-266192D01*
X484378Y-256387D01*
X492455Y-245414D01*
X499008Y-233476D01*
X503885Y-220725D01*
X507085Y-207467D01*
X508406Y-193903D01*
X507949Y-180289D01*
X505714Y-166827D01*
X501650Y-153822D01*
X495909Y-141427D01*
X488594Y-129946D01*
X479806Y-119532D01*
X469646Y-110388D01*
X458419Y-102666D01*
X446278Y-96520D01*
X433374Y-92049D01*
X420014Y-89306D01*
X406400Y-88442D01*
X392785Y-89306D01*
X379425Y-92049D01*
X366522Y-96520D01*
X354380Y-102666D01*
X343154Y-110388D01*
X332994Y-119532D01*
X324205Y-129946D01*
X316890Y-141427D01*
X311150Y-153822D01*
X307086Y-166827D01*
X304850Y-180289D01*
X304393Y-193903D01*
X305714Y-207467D01*
X308914Y-220725D01*
X313791Y-233476D01*
X320344Y-245414D01*
X328422Y-256387D01*
X337921Y-266192D01*
X348640Y-274675D01*
X360375Y-281635D01*
X372922Y-286918D01*
X375716Y-287731D01*
X379577Y-289763D01*
X382270Y-293217D01*
X383184Y-297484D01*
X383184Y-548589D01*
X384048Y-556564D01*
X386334Y-563676D01*
X390144Y-570280D01*
X394004Y-574751D01*
X556768Y-737565D01*
X558698Y-740257D01*
X559663Y-743458D01*
X558292Y-762000D01*
X559206Y-775614D01*
X561949Y-788974D01*
X566420Y-801878D01*
X572566Y-814019D01*
X580288Y-825246D01*
X589432Y-835406D01*
X599846Y-844194D01*
X611327Y-851509D01*
X623722Y-857250D01*
X636727Y-861314D01*
X650189Y-863600D01*
G37*
G36*
X3244850Y-853795D02*
G01*
X3255314Y-848055D01*
X3266287Y-839978D01*
X3276092Y-830478D01*
X3284575Y-819759D01*
X3291535Y-808024D01*
X3292195Y-806450D01*
X3244850Y-806450D01*
G37*
G36*
X3155950Y-853643D02*
G01*
X3155950Y-806450D01*
X3108756Y-806450D01*
X3112566Y-814019D01*
X3120288Y-825246D01*
X3129432Y-835406D01*
X3139846Y-844194D01*
X3151327Y-851509D01*
G37*
G36*
X3108756Y-717550D02*
G01*
X3155950Y-717550D01*
X3155950Y-670356D01*
X3151327Y-672490D01*
X3139846Y-679805D01*
X3129432Y-688644D01*
X3120288Y-698754D01*
X3112566Y-709980D01*
G37*
G36*
X3244850Y-717550D02*
G01*
X3292195Y-717550D01*
X3291535Y-715975D01*
X3284575Y-704240D01*
X3276092Y-693521D01*
X3266287Y-684022D01*
X3255314Y-675944D01*
X3244850Y-670204D01*
G37*
G36*
X6310934Y-581558D02*
G01*
X6324396Y-581101D01*
X6337706Y-578866D01*
X6350558Y-574852D01*
X6362801Y-569163D01*
X6374130Y-561949D01*
X6384442Y-553212D01*
X6393484Y-543204D01*
X6401104Y-532130D01*
X6407200Y-520090D01*
X6411620Y-507339D01*
X6414262Y-494131D01*
X6415176Y-480720D01*
X6414262Y-467258D01*
X6411620Y-454050D01*
X6407200Y-441299D01*
X6401104Y-429310D01*
X6393484Y-418185D01*
X6384442Y-408178D01*
X6374130Y-399491D01*
X6362801Y-392226D01*
X6350558Y-386537D01*
X6337706Y-382574D01*
X6324396Y-380339D01*
X6310934Y-379882D01*
X6297523Y-381203D01*
X6284417Y-384352D01*
X6271818Y-389178D01*
X6260033Y-395681D01*
X6249162Y-403656D01*
X6239459Y-413054D01*
X6231128Y-423621D01*
X6224270Y-435203D01*
X6218986Y-447598D01*
X6215430Y-460603D01*
X6213652Y-473964D01*
X6213652Y-487426D01*
X6215430Y-500786D01*
X6218986Y-513791D01*
X6224270Y-526186D01*
X6231128Y-537819D01*
X6239459Y-548386D01*
X6249162Y-557733D01*
X6260033Y-565759D01*
X6271818Y-572211D01*
X6284417Y-577037D01*
X6297523Y-580186D01*
G37*
G36*
X7326934Y-581558D02*
G01*
X7340396Y-581101D01*
X7353706Y-578866D01*
X7366558Y-574852D01*
X7378801Y-569163D01*
X7390130Y-561949D01*
X7400442Y-553212D01*
X7409484Y-543204D01*
X7417104Y-532130D01*
X7423200Y-520090D01*
X7427620Y-507339D01*
X7430262Y-494131D01*
X7431176Y-480720D01*
X7430262Y-467258D01*
X7427620Y-454050D01*
X7423200Y-441299D01*
X7417104Y-429310D01*
X7409484Y-418185D01*
X7400442Y-408178D01*
X7390130Y-399491D01*
X7378801Y-392226D01*
X7366558Y-386537D01*
X7353706Y-382574D01*
X7340396Y-380339D01*
X7326934Y-379882D01*
X7313523Y-381203D01*
X7300417Y-384352D01*
X7287818Y-389178D01*
X7276033Y-395681D01*
X7265162Y-403656D01*
X7255459Y-413054D01*
X7247128Y-423621D01*
X7240270Y-435203D01*
X7234986Y-447598D01*
X7231430Y-460603D01*
X7229652Y-473964D01*
X7229652Y-487426D01*
X7231430Y-500786D01*
X7234986Y-513791D01*
X7240270Y-526186D01*
X7247128Y-537819D01*
X7255459Y-548386D01*
X7265162Y-557733D01*
X7276033Y-565759D01*
X7287818Y-572211D01*
X7300417Y-577037D01*
X7313523Y-580186D01*
G37*
G36*
X6564934Y-581558D02*
G01*
X6578396Y-581101D01*
X6591706Y-578866D01*
X6604558Y-574852D01*
X6616801Y-569163D01*
X6628130Y-561949D01*
X6638442Y-553212D01*
X6647484Y-543204D01*
X6655104Y-532130D01*
X6661200Y-520090D01*
X6665620Y-507339D01*
X6668262Y-494131D01*
X6669176Y-480720D01*
X6668262Y-467258D01*
X6665620Y-454050D01*
X6661200Y-441299D01*
X6655104Y-429310D01*
X6647484Y-418185D01*
X6638442Y-408178D01*
X6628130Y-399491D01*
X6616801Y-392226D01*
X6604558Y-386537D01*
X6591706Y-382574D01*
X6578396Y-380339D01*
X6564934Y-379882D01*
X6551523Y-381203D01*
X6538417Y-384352D01*
X6525818Y-389178D01*
X6514033Y-395681D01*
X6503162Y-403656D01*
X6493459Y-413054D01*
X6485128Y-423621D01*
X6478270Y-435203D01*
X6472986Y-447598D01*
X6469430Y-460603D01*
X6467652Y-473964D01*
X6467652Y-487426D01*
X6469430Y-500786D01*
X6472986Y-513791D01*
X6478270Y-526186D01*
X6485128Y-537819D01*
X6493459Y-548386D01*
X6503162Y-557733D01*
X6514033Y-565759D01*
X6525818Y-572211D01*
X6538417Y-577037D01*
X6551523Y-580186D01*
G37*
G36*
X7580934Y-581507D02*
G01*
X7594396Y-581101D01*
X7607706Y-578815D01*
X7620558Y-574852D01*
X7632801Y-569163D01*
X7644130Y-561898D01*
X7654442Y-553212D01*
X7663484Y-543204D01*
X7671104Y-532130D01*
X7677200Y-520090D01*
X7681620Y-507339D01*
X7684262Y-494131D01*
X7685176Y-480720D01*
X7684262Y-467258D01*
X7681620Y-454050D01*
X7677200Y-441299D01*
X7671104Y-429310D01*
X7663484Y-418185D01*
X7654442Y-408178D01*
X7644130Y-399491D01*
X7632801Y-392226D01*
X7620558Y-386537D01*
X7607706Y-382574D01*
X7594396Y-380339D01*
X7580934Y-379882D01*
X7567523Y-381203D01*
X7554417Y-384352D01*
X7541818Y-389178D01*
X7530033Y-395681D01*
X7519162Y-403656D01*
X7509459Y-413054D01*
X7501128Y-423621D01*
X7494270Y-435203D01*
X7488986Y-447598D01*
X7485430Y-460603D01*
X7483652Y-473964D01*
X7483652Y-487426D01*
X7485430Y-500786D01*
X7488986Y-513791D01*
X7494270Y-526186D01*
X7501128Y-537819D01*
X7509459Y-548386D01*
X7519162Y-557733D01*
X7530033Y-565759D01*
X7541818Y-572211D01*
X7554417Y-577037D01*
X7567523Y-580186D01*
G37*
G36*
X5245100Y-568198D02*
G01*
X5257292Y-567283D01*
X5269230Y-564692D01*
X5280660Y-560425D01*
X5291378Y-554583D01*
X5301132Y-547268D01*
X5309768Y-538632D01*
X5317083Y-528878D01*
X5322925Y-518159D01*
X5327192Y-506730D01*
X5329783Y-494792D01*
X5330647Y-482600D01*
X5329783Y-470408D01*
X5327192Y-458470D01*
X5322925Y-447040D01*
X5317083Y-436321D01*
X5309768Y-426567D01*
X5301132Y-417931D01*
X5291378Y-410616D01*
X5280660Y-404774D01*
X5269230Y-400507D01*
X5257292Y-397916D01*
X5245100Y-397052D01*
X5232908Y-397916D01*
X5220970Y-400507D01*
X5209540Y-404774D01*
X5198821Y-410616D01*
X5189067Y-417931D01*
X5180431Y-426567D01*
X5173116Y-436321D01*
X5167274Y-447040D01*
X5163007Y-458470D01*
X5160416Y-470408D01*
X5159552Y-482600D01*
X5160416Y-494792D01*
X5163007Y-506730D01*
X5167274Y-518159D01*
X5173116Y-528878D01*
X5180431Y-538632D01*
X5189067Y-547268D01*
X5198821Y-554583D01*
X5209540Y-560425D01*
X5220970Y-564692D01*
X5232908Y-567283D01*
G37*
G36*
X5281320Y-306070D02*
G01*
X5291378Y-300583D01*
X5301132Y-293268D01*
X5309768Y-284632D01*
X5317083Y-274878D01*
X5322570Y-264820D01*
X5281320Y-264820D01*
G37*
G36*
X5208930Y-306070D02*
G01*
X5208930Y-264820D01*
X5167630Y-264820D01*
X5173116Y-274878D01*
X5180431Y-284632D01*
X5189067Y-293268D01*
X5198821Y-300583D01*
G37*
G36*
X2990850Y-282295D02*
G01*
X2992424Y-281635D01*
X3004159Y-274675D01*
X3014878Y-266192D01*
X3024378Y-256387D01*
X3032455Y-245414D01*
X3038195Y-234950D01*
X2990850Y-234950D01*
G37*
G36*
X2901950Y-282295D02*
G01*
X2901950Y-234950D01*
X2854604Y-234950D01*
X2860344Y-245414D01*
X2868422Y-256387D01*
X2877921Y-266192D01*
X2888640Y-274675D01*
X2900375Y-281635D01*
G37*
G36*
X5167630Y-192430D02*
G01*
X5208930Y-192430D01*
X5208930Y-151130D01*
X5198821Y-156616D01*
X5189067Y-163931D01*
X5180431Y-172567D01*
X5173116Y-182321D01*
G37*
G36*
X5281320Y-192430D02*
G01*
X5322570Y-192430D01*
X5317083Y-182321D01*
X5309768Y-172567D01*
X5301132Y-163931D01*
X5291378Y-156616D01*
X5281320Y-151130D01*
G37*
G36*
X2854756Y-146050D02*
G01*
X2901950Y-146050D01*
X2901950Y-98856D01*
X2894380Y-102666D01*
X2883154Y-110388D01*
X2872994Y-119532D01*
X2864205Y-129946D01*
X2856890Y-141427D01*
G37*
G36*
X2990850Y-146050D02*
G01*
X3038043Y-146050D01*
X3035909Y-141427D01*
X3028594Y-129946D01*
X3019806Y-119532D01*
X3009646Y-110388D01*
X2998419Y-102666D01*
X2990850Y-98856D01*
G37*

%LPD*%
G36*
X8165693Y-4317441D02*
G01*
X8161832Y-4316679D01*
X8158530Y-4314444D01*
X8156346Y-4311192D01*
X8155533Y-4307281D01*
X8156346Y-4303369D01*
X8158530Y-4300118D01*
X8220709Y-4237939D01*
X8224215Y-4235653D01*
X8228330Y-4234942D01*
X8232038Y-4235145D01*
X8241588Y-4233875D01*
X8250783Y-4231081D01*
X8259419Y-4226712D01*
X8267192Y-4220972D01*
X8273846Y-4214012D01*
X8279231Y-4206036D01*
X8283244Y-4197248D01*
X8285632Y-4187901D01*
X8286496Y-4178300D01*
X8285632Y-4168698D01*
X8283244Y-4159351D01*
X8279231Y-4150563D01*
X8273846Y-4142587D01*
X8267192Y-4135628D01*
X8259419Y-4129887D01*
X8250783Y-4125518D01*
X8241588Y-4122724D01*
X8232038Y-4121454D01*
X8222386Y-4121912D01*
X8212937Y-4123944D01*
X8203996Y-4127500D01*
X8195767Y-4132579D01*
X8188553Y-4138929D01*
X8182457Y-4146448D01*
X8177784Y-4154881D01*
X8174583Y-4163974D01*
X8172958Y-4173474D01*
X8172958Y-4179925D01*
X8172145Y-4183837D01*
X8169960Y-4187088D01*
X8078012Y-4279087D01*
X8074710Y-4281271D01*
X8070799Y-4282033D01*
X4489500Y-4282033D01*
X4485589Y-4281271D01*
X4482287Y-4279087D01*
X4455464Y-4252214D01*
X4453077Y-4248404D01*
X4452518Y-4243984D01*
X4453991Y-4239717D01*
X4457141Y-4236516D01*
X4461357Y-4234942D01*
X4469688Y-4233875D01*
X4478883Y-4231081D01*
X4487519Y-4226712D01*
X4495292Y-4220972D01*
X4501946Y-4214012D01*
X4507331Y-4206036D01*
X4511446Y-4196791D01*
X4513376Y-4192981D01*
X4516678Y-4190288D01*
X4520844Y-4189171D01*
X4525060Y-4189933D01*
X4528616Y-4192320D01*
X4530852Y-4195978D01*
X4532884Y-4201668D01*
X4537557Y-4210100D01*
X4543653Y-4217619D01*
X4550867Y-4223969D01*
X4559096Y-4229049D01*
X4568037Y-4232605D01*
X4577486Y-4234637D01*
X4586935Y-4235043D01*
X4590592Y-4235907D01*
X4593691Y-4238040D01*
X4597044Y-4241342D01*
X4603292Y-4246422D01*
X4609947Y-4249826D01*
X4617313Y-4251807D01*
X4623206Y-4252264D01*
X6120892Y-4252264D01*
X6128867Y-4251401D01*
X6135979Y-4249115D01*
X6142583Y-4245305D01*
X6147054Y-4241444D01*
X6184087Y-4204411D01*
X6187389Y-4202226D01*
X6191300Y-4201464D01*
X7917688Y-4201464D01*
X7921193Y-4202074D01*
X7924292Y-4203903D01*
X7926527Y-4206646D01*
X7928457Y-4210151D01*
X7934553Y-4217670D01*
X7941767Y-4224020D01*
X7949996Y-4229100D01*
X7958937Y-4232656D01*
X7968386Y-4234688D01*
X7978038Y-4235145D01*
X7987588Y-4233875D01*
X7996783Y-4231081D01*
X8005419Y-4226712D01*
X8013192Y-4220972D01*
X8019846Y-4214012D01*
X8025231Y-4206036D01*
X8029244Y-4197248D01*
X8031632Y-4187901D01*
X8032496Y-4178300D01*
X8031632Y-4168698D01*
X8029244Y-4159351D01*
X8025231Y-4150563D01*
X8019846Y-4142587D01*
X8013192Y-4135628D01*
X8005419Y-4129887D01*
X7996783Y-4125518D01*
X7987588Y-4122724D01*
X7978038Y-4121454D01*
X7968386Y-4121912D01*
X7958937Y-4123944D01*
X7949996Y-4127500D01*
X7946440Y-4129278D01*
X7943646Y-4129633D01*
X6173216Y-4129633D01*
X6169101Y-4128770D01*
X6165697Y-4126331D01*
X6163564Y-4122724D01*
X6163056Y-4118610D01*
X6164021Y-4107840D01*
X6164021Y-4084116D01*
X6129731Y-4084116D01*
X6129731Y-4153001D01*
X6128969Y-4156913D01*
X6126784Y-4160215D01*
X6109512Y-4177487D01*
X6106210Y-4179671D01*
X6102299Y-4180433D01*
X6097828Y-4180433D01*
X6093917Y-4179671D01*
X6092088Y-4179570D01*
X6088024Y-4180433D01*
X6002375Y-4180433D01*
X5998311Y-4179570D01*
X5994958Y-4177182D01*
X5992774Y-4173626D01*
X5992266Y-4169511D01*
X5993384Y-4165549D01*
X5996025Y-4162348D01*
X6009335Y-4156151D01*
X6017209Y-4150664D01*
X6024016Y-4143806D01*
X6029553Y-4135932D01*
X6033617Y-4127195D01*
X6035395Y-4120692D01*
X6037427Y-4116781D01*
X6040882Y-4114088D01*
X6045200Y-4113123D01*
X6049518Y-4114088D01*
X6052972Y-4116781D01*
X6055004Y-4120692D01*
X6056782Y-4127195D01*
X6060846Y-4135932D01*
X6066383Y-4143806D01*
X6073190Y-4150664D01*
X6081064Y-4156151D01*
X6087668Y-4159250D01*
X6087668Y-4084116D01*
X6047181Y-4084116D01*
X6043269Y-4083354D01*
X6039967Y-4081170D01*
X6037783Y-4077868D01*
X6037021Y-4073956D01*
X6037021Y-3961790D01*
X6037783Y-3957878D01*
X6039967Y-3954576D01*
X6043269Y-3952392D01*
X6047181Y-3951630D01*
X6087668Y-3951630D01*
X6087668Y-3906824D01*
X6088430Y-3902913D01*
X6090615Y-3899611D01*
X6093917Y-3897426D01*
X6097828Y-3896664D01*
X6119571Y-3896664D01*
X6123482Y-3897426D01*
X6126784Y-3899611D01*
X6128969Y-3902913D01*
X6129731Y-3906824D01*
X6129731Y-3951630D01*
X6164021Y-3951630D01*
X6164021Y-3927906D01*
X6163106Y-3917848D01*
X6160871Y-3909466D01*
X6160566Y-3905758D01*
X6161633Y-3902201D01*
X6163868Y-3899255D01*
X6167069Y-3897325D01*
X6170676Y-3896664D01*
X6546494Y-3896664D01*
X6549288Y-3897020D01*
X6552996Y-3898900D01*
X6561937Y-3902456D01*
X6571386Y-3904487D01*
X6581038Y-3904945D01*
X6590588Y-3903675D01*
X6599783Y-3900881D01*
X6608419Y-3896512D01*
X6616192Y-3890772D01*
X6622846Y-3883812D01*
X6628231Y-3875836D01*
X6632346Y-3866591D01*
X6634276Y-3862781D01*
X6637578Y-3860088D01*
X6641744Y-3858971D01*
X6645960Y-3859733D01*
X6649516Y-3862120D01*
X6651752Y-3865778D01*
X6653784Y-3871468D01*
X6658457Y-3879900D01*
X6664553Y-3887419D01*
X6671767Y-3893769D01*
X6679996Y-3898849D01*
X6688937Y-3902405D01*
X6698386Y-3904437D01*
X6708038Y-3904894D01*
X6717588Y-3903624D01*
X6726783Y-3900830D01*
X6735419Y-3896461D01*
X6743192Y-3890721D01*
X6749846Y-3883761D01*
X6755231Y-3875786D01*
X6759346Y-3866591D01*
X6761276Y-3862781D01*
X6764578Y-3860088D01*
X6768744Y-3859022D01*
X6772960Y-3859733D01*
X6776516Y-3862120D01*
X6778752Y-3865778D01*
X6780784Y-3871518D01*
X6785457Y-3879951D01*
X6791553Y-3887470D01*
X6798767Y-3893820D01*
X6806996Y-3898900D01*
X6815937Y-3902456D01*
X6825386Y-3904487D01*
X6834886Y-3904894D01*
X6838543Y-3905758D01*
X6841642Y-3907891D01*
X6933844Y-4000042D01*
X6940092Y-4005122D01*
X6946747Y-4008526D01*
X6954113Y-4010507D01*
X6960006Y-4010964D01*
X8542578Y-4010964D01*
X8546490Y-4011726D01*
X8549792Y-4013962D01*
X8551976Y-4017314D01*
X8552738Y-4021226D01*
X8551926Y-4025137D01*
X8549640Y-4028440D01*
X8544255Y-4033621D01*
X8535822Y-4044340D01*
X8528862Y-4056075D01*
X8528202Y-4057650D01*
X8575497Y-4057650D01*
X8575497Y-4021124D01*
X8576310Y-4017213D01*
X8578494Y-4013911D01*
X8581796Y-4011726D01*
X8585657Y-4010964D01*
X8654237Y-4010964D01*
X8658148Y-4011726D01*
X8661450Y-4013911D01*
X8663635Y-4017213D01*
X8664397Y-4021124D01*
X8664397Y-4057650D01*
X8711641Y-4057650D01*
X8707780Y-4050080D01*
X8700109Y-4038854D01*
X8690152Y-4027982D01*
X8688171Y-4024629D01*
X8687511Y-4020820D01*
X8688374Y-4017010D01*
X8690610Y-4013809D01*
X8693861Y-4011676D01*
X8697671Y-4010964D01*
X9336633Y-4010964D01*
X9340545Y-4011726D01*
X9343847Y-4013962D01*
X9346031Y-4017314D01*
X9346793Y-4021226D01*
X9345930Y-4025137D01*
X9343694Y-4028440D01*
X9338310Y-4033621D01*
X9329826Y-4044340D01*
X9322917Y-4056075D01*
X9317583Y-4068622D01*
X9313976Y-4081779D01*
X9312148Y-4095292D01*
X9312148Y-4108907D01*
X9313976Y-4122420D01*
X9317583Y-4135577D01*
X9322917Y-4148124D01*
X9329826Y-4159859D01*
X9338310Y-4170578D01*
X9348114Y-4180078D01*
X9359087Y-4188155D01*
X9371025Y-4194708D01*
X9383776Y-4199585D01*
X9397034Y-4202785D01*
X9410598Y-4204106D01*
X9424212Y-4203700D01*
X9437674Y-4201414D01*
X9450679Y-4197350D01*
X9463074Y-4191609D01*
X9474555Y-4184294D01*
X9484969Y-4175506D01*
X9494113Y-4165346D01*
X9501835Y-4154119D01*
X9507982Y-4141978D01*
X9512452Y-4129074D01*
X9515195Y-4115714D01*
X9516110Y-4102100D01*
X9515195Y-4088485D01*
X9512452Y-4075125D01*
X9507982Y-4062272D01*
X9501835Y-4050080D01*
X9494113Y-4038854D01*
X9484969Y-4028744D01*
X9477705Y-4022547D01*
X9475266Y-4019550D01*
X9474149Y-4015841D01*
X9474504Y-4011980D01*
X9476282Y-4008526D01*
X9479178Y-4006037D01*
X9482683Y-4004005D01*
X9487154Y-4000144D01*
X9549993Y-3937304D01*
X9555073Y-3931056D01*
X9558477Y-3924401D01*
X9560458Y-3917035D01*
X9560915Y-3911142D01*
X9560915Y-3705555D01*
X9560052Y-3697579D01*
X9557766Y-3690467D01*
X9553956Y-3683863D01*
X9550095Y-3679393D01*
X9511639Y-3640886D01*
X9509506Y-3637787D01*
X9508693Y-3634130D01*
X9509252Y-3630371D01*
X9512452Y-3621074D01*
X9515195Y-3607714D01*
X9516110Y-3594100D01*
X9515195Y-3580485D01*
X9512452Y-3567125D01*
X9507982Y-3554272D01*
X9501835Y-3542080D01*
X9494113Y-3530854D01*
X9484969Y-3520744D01*
X9474555Y-3511905D01*
X9463074Y-3504590D01*
X9450679Y-3498850D01*
X9437674Y-3494786D01*
X9424212Y-3492550D01*
X9410598Y-3492093D01*
X9397034Y-3493414D01*
X9383776Y-3496614D01*
X9371025Y-3501491D01*
X9359087Y-3508044D01*
X9348114Y-3516122D01*
X9338310Y-3525621D01*
X9329826Y-3536340D01*
X9322917Y-3548075D01*
X9317583Y-3560622D01*
X9313976Y-3573779D01*
X9312148Y-3587292D01*
X9312148Y-3600907D01*
X9313976Y-3614420D01*
X9317583Y-3627577D01*
X9322917Y-3640124D01*
X9329826Y-3651859D01*
X9338310Y-3662578D01*
X9348114Y-3672078D01*
X9359087Y-3680155D01*
X9371025Y-3686708D01*
X9383776Y-3691585D01*
X9397034Y-3694785D01*
X9410598Y-3696106D01*
X9424212Y-3695700D01*
X9437674Y-3693414D01*
X9450832Y-3689350D01*
X9454438Y-3688892D01*
X9457994Y-3689756D01*
X9461042Y-3691839D01*
X9486138Y-3716934D01*
X9488322Y-3720236D01*
X9489084Y-3724148D01*
X9489084Y-3756660D01*
X9488170Y-3760876D01*
X9485579Y-3764330D01*
X9481820Y-3766413D01*
X9477502Y-3766718D01*
X9473488Y-3765194D01*
X9463074Y-3758590D01*
X9450679Y-3752850D01*
X9437674Y-3748786D01*
X9424212Y-3746550D01*
X9410598Y-3746093D01*
X9397034Y-3747414D01*
X9383776Y-3750614D01*
X9378086Y-3752799D01*
X9374225Y-3753459D01*
X9370466Y-3752646D01*
X9367215Y-3750513D01*
X9312757Y-3696055D01*
X9306509Y-3690975D01*
X9299854Y-3687572D01*
X9292488Y-3685590D01*
X9286595Y-3685133D01*
X8697823Y-3685133D01*
X8694013Y-3684422D01*
X8690762Y-3682288D01*
X8688527Y-3679088D01*
X8687663Y-3675329D01*
X8688273Y-3671468D01*
X8690305Y-3668166D01*
X8700109Y-3657346D01*
X8707780Y-3646119D01*
X8713978Y-3633978D01*
X8718448Y-3621074D01*
X8721140Y-3607714D01*
X8722055Y-3594100D01*
X8721140Y-3580485D01*
X8718448Y-3567125D01*
X8713978Y-3554272D01*
X8707780Y-3542080D01*
X8700109Y-3530854D01*
X8690914Y-3520744D01*
X8680500Y-3511905D01*
X8675928Y-3508959D01*
X8672880Y-3505911D01*
X8671356Y-3501898D01*
X8671661Y-3497579D01*
X8673693Y-3493770D01*
X8677148Y-3491179D01*
X8681415Y-3490264D01*
X8762492Y-3490264D01*
X8770467Y-3489401D01*
X8777579Y-3487115D01*
X8784183Y-3483305D01*
X8788654Y-3479444D01*
X9347809Y-2920339D01*
X9351467Y-2918002D01*
X9355734Y-2917342D01*
X9359900Y-2918612D01*
X9371025Y-2924708D01*
X9383776Y-2929585D01*
X9397034Y-2932785D01*
X9410598Y-2934106D01*
X9424212Y-2933700D01*
X9437674Y-2931414D01*
X9450679Y-2927350D01*
X9463074Y-2921609D01*
X9474555Y-2914294D01*
X9484969Y-2905506D01*
X9494113Y-2895346D01*
X9501835Y-2884119D01*
X9507982Y-2871978D01*
X9512452Y-2859074D01*
X9515195Y-2845714D01*
X9516110Y-2832100D01*
X9515195Y-2818485D01*
X9512452Y-2805125D01*
X9507982Y-2792272D01*
X9501835Y-2780080D01*
X9494113Y-2768854D01*
X9484969Y-2758744D01*
X9474555Y-2749905D01*
X9463074Y-2742590D01*
X9450679Y-2736850D01*
X9437674Y-2732786D01*
X9424212Y-2730550D01*
X9410598Y-2730093D01*
X9397034Y-2731414D01*
X9383776Y-2734614D01*
X9371025Y-2739491D01*
X9359087Y-2746044D01*
X9348114Y-2754122D01*
X9338310Y-2763621D01*
X9329826Y-2774340D01*
X9322917Y-2786075D01*
X9317583Y-2798622D01*
X9313976Y-2811780D01*
X9312148Y-2825292D01*
X9312148Y-2838907D01*
X9313316Y-2847594D01*
X9313265Y-2850692D01*
X9312249Y-2853639D01*
X9310420Y-2856128D01*
X8751112Y-3415487D01*
X8747810Y-3417671D01*
X8743899Y-3418433D01*
X8709050Y-3418433D01*
X8704783Y-3417519D01*
X8701278Y-3414826D01*
X8699246Y-3410965D01*
X8699042Y-3406597D01*
X8700668Y-3402533D01*
X8707780Y-3392119D01*
X8713978Y-3379978D01*
X8718448Y-3367074D01*
X8721140Y-3353714D01*
X8722055Y-3340100D01*
X8721140Y-3326485D01*
X8718448Y-3313125D01*
X8713978Y-3300272D01*
X8707780Y-3288080D01*
X8700109Y-3276854D01*
X8690914Y-3266744D01*
X8680500Y-3257905D01*
X8669020Y-3250590D01*
X8656675Y-3244850D01*
X8643620Y-3240786D01*
X8630208Y-3238550D01*
X8616543Y-3238093D01*
X8602980Y-3239414D01*
X8589721Y-3242614D01*
X8577021Y-3247491D01*
X8565032Y-3254044D01*
X8554059Y-3262122D01*
X8544255Y-3271621D01*
X8535822Y-3282340D01*
X8528862Y-3294075D01*
X8523528Y-3306622D01*
X8519922Y-3319779D01*
X8518093Y-3333292D01*
X8518093Y-3346907D01*
X8519922Y-3360420D01*
X8523528Y-3373577D01*
X8528862Y-3386124D01*
X8535822Y-3397859D01*
X8539073Y-3401974D01*
X8541004Y-3406038D01*
X8540953Y-3410559D01*
X8539022Y-3414623D01*
X8535466Y-3417417D01*
X8531098Y-3418433D01*
X7461300Y-3418433D01*
X7457389Y-3417671D01*
X7454087Y-3415487D01*
X7172452Y-3133801D01*
X7170216Y-3130397D01*
X7169454Y-3126384D01*
X7170369Y-3122422D01*
X7172756Y-3119120D01*
X7176262Y-3117037D01*
X7180325Y-3116478D01*
X7184237Y-3117596D01*
X7188047Y-3119526D01*
X7195413Y-3121507D01*
X7201306Y-3121964D01*
X8517788Y-3121964D01*
X8521649Y-3122726D01*
X8524951Y-3124911D01*
X8527186Y-3128162D01*
X8528862Y-3132124D01*
X8535822Y-3143859D01*
X8544255Y-3154578D01*
X8554059Y-3164078D01*
X8565032Y-3172155D01*
X8577021Y-3178708D01*
X8589721Y-3183585D01*
X8602980Y-3186785D01*
X8616543Y-3188106D01*
X8630208Y-3187700D01*
X8643620Y-3185414D01*
X8656675Y-3181350D01*
X8669020Y-3175609D01*
X8680500Y-3168294D01*
X8690914Y-3159506D01*
X8700109Y-3149346D01*
X8707780Y-3138119D01*
X8713978Y-3125978D01*
X8718448Y-3113074D01*
X8721140Y-3099714D01*
X8722055Y-3086100D01*
X8721140Y-3072485D01*
X8718448Y-3059125D01*
X8713978Y-3046272D01*
X8707780Y-3034080D01*
X8700109Y-3022854D01*
X8690914Y-3012744D01*
X8680500Y-3003905D01*
X8669020Y-2996590D01*
X8656675Y-2990850D01*
X8643620Y-2986786D01*
X8630208Y-2984550D01*
X8616543Y-2984093D01*
X8602980Y-2985414D01*
X8589721Y-2988614D01*
X8577021Y-2993491D01*
X8565032Y-3000044D01*
X8554059Y-3008122D01*
X8544255Y-3017621D01*
X8535822Y-3028340D01*
X8528862Y-3040075D01*
X8527186Y-3043936D01*
X8525002Y-3047187D01*
X8521700Y-3049371D01*
X8517839Y-3050133D01*
X7220000Y-3050133D01*
X7216089Y-3049371D01*
X7212787Y-3047187D01*
X7177938Y-3012287D01*
X7175753Y-3008985D01*
X7174941Y-3005124D01*
X7175753Y-3001213D01*
X7177938Y-2997911D01*
X7181240Y-2995726D01*
X7185101Y-2994964D01*
X8102092Y-2994964D01*
X8110067Y-2994101D01*
X8117179Y-2991815D01*
X8123783Y-2988005D01*
X8128253Y-2984144D01*
X8241487Y-2870911D01*
X8244789Y-2868726D01*
X8248700Y-2867964D01*
X8517788Y-2867964D01*
X8521649Y-2868726D01*
X8524951Y-2870911D01*
X8527186Y-2874162D01*
X8528862Y-2878124D01*
X8535822Y-2889859D01*
X8544255Y-2900578D01*
X8554059Y-2910078D01*
X8565032Y-2918155D01*
X8577021Y-2924708D01*
X8589721Y-2929585D01*
X8602980Y-2932785D01*
X8616543Y-2934106D01*
X8630208Y-2933700D01*
X8643620Y-2931414D01*
X8656675Y-2927350D01*
X8669020Y-2921609D01*
X8680500Y-2914294D01*
X8690914Y-2905506D01*
X8700109Y-2895346D01*
X8707780Y-2884119D01*
X8713978Y-2871978D01*
X8718448Y-2859074D01*
X8721140Y-2845714D01*
X8722055Y-2832100D01*
X8721140Y-2818485D01*
X8718448Y-2805125D01*
X8713978Y-2792272D01*
X8707780Y-2780080D01*
X8700109Y-2768854D01*
X8690152Y-2757982D01*
X8688171Y-2754630D01*
X8687511Y-2750820D01*
X8688374Y-2747010D01*
X8690610Y-2743809D01*
X8693861Y-2741676D01*
X8697671Y-2740964D01*
X9040622Y-2740964D01*
X9048597Y-2740101D01*
X9055709Y-2737815D01*
X9062313Y-2734005D01*
X9066784Y-2730144D01*
X9307017Y-2489911D01*
X9310319Y-2487726D01*
X9314230Y-2486964D01*
X9336633Y-2486964D01*
X9340545Y-2487726D01*
X9343847Y-2489962D01*
X9346031Y-2493314D01*
X9346793Y-2497226D01*
X9345930Y-2501138D01*
X9343694Y-2504440D01*
X9338310Y-2509621D01*
X9329826Y-2520340D01*
X9322917Y-2532075D01*
X9317583Y-2544622D01*
X9313976Y-2557780D01*
X9312148Y-2571292D01*
X9312148Y-2584907D01*
X9313976Y-2598420D01*
X9317583Y-2611577D01*
X9322917Y-2624124D01*
X9329826Y-2635859D01*
X9338310Y-2646578D01*
X9348114Y-2656078D01*
X9359087Y-2664155D01*
X9371025Y-2670708D01*
X9383776Y-2675585D01*
X9397034Y-2678785D01*
X9410598Y-2680106D01*
X9424212Y-2679700D01*
X9437674Y-2677414D01*
X9450679Y-2673350D01*
X9463074Y-2667609D01*
X9474555Y-2660294D01*
X9484969Y-2651506D01*
X9494113Y-2641346D01*
X9501835Y-2630119D01*
X9507982Y-2617978D01*
X9512452Y-2605074D01*
X9515195Y-2591714D01*
X9516110Y-2578100D01*
X9515449Y-2568244D01*
X9516008Y-2564231D01*
X9518091Y-2560726D01*
X9521393Y-2558338D01*
X9525355Y-2557424D01*
X9529368Y-2558135D01*
X9532772Y-2560370D01*
X9549638Y-2577236D01*
X9551822Y-2580538D01*
X9552584Y-2584450D01*
X9552584Y-2927248D01*
X9551822Y-2931160D01*
X9549638Y-2934462D01*
X9483750Y-3000298D01*
X9480956Y-3002280D01*
X9477654Y-3003245D01*
X9474250Y-3003042D01*
X9471101Y-3001721D01*
X9463074Y-2996590D01*
X9450679Y-2990850D01*
X9437674Y-2986786D01*
X9424212Y-2984550D01*
X9410598Y-2984093D01*
X9397034Y-2985414D01*
X9383776Y-2988614D01*
X9371025Y-2993491D01*
X9359087Y-3000044D01*
X9348114Y-3008122D01*
X9338310Y-3017621D01*
X9329826Y-3028340D01*
X9322917Y-3040075D01*
X9317583Y-3052622D01*
X9313976Y-3065780D01*
X9312148Y-3079292D01*
X9312148Y-3092907D01*
X9313976Y-3106420D01*
X9317583Y-3119577D01*
X9322917Y-3132124D01*
X9329826Y-3143859D01*
X9338310Y-3154578D01*
X9348114Y-3164078D01*
X9359087Y-3172155D01*
X9371025Y-3178708D01*
X9383776Y-3183585D01*
X9397034Y-3186785D01*
X9410598Y-3188106D01*
X9424212Y-3187700D01*
X9437674Y-3185414D01*
X9450679Y-3181350D01*
X9463074Y-3175609D01*
X9474555Y-3168294D01*
X9484969Y-3159506D01*
X9494113Y-3149346D01*
X9501835Y-3138119D01*
X9507982Y-3125978D01*
X9512452Y-3113074D01*
X9515195Y-3099714D01*
X9516110Y-3086100D01*
X9515348Y-3075178D01*
X9516008Y-3070910D01*
X9518294Y-3067304D01*
X9613493Y-2972104D01*
X9618573Y-2965856D01*
X9621977Y-2959201D01*
X9624161Y-2954324D01*
X9627260Y-2951683D01*
X9631172Y-2950464D01*
X9635236Y-2950921D01*
X9639096Y-2953207D01*
X9650476Y-2960827D01*
X9662769Y-2966872D01*
X9675723Y-2971241D01*
X9689134Y-2973933D01*
X9702800Y-2974848D01*
X9716465Y-2973933D01*
X9729876Y-2971241D01*
X9742830Y-2966872D01*
X9755124Y-2960827D01*
X9766503Y-2953207D01*
X9776764Y-2944164D01*
X9785807Y-2933903D01*
X9793427Y-2922524D01*
X9799472Y-2910230D01*
X9803841Y-2897276D01*
X9806533Y-2883865D01*
X9807448Y-2870200D01*
X9806533Y-2856534D01*
X9803841Y-2843123D01*
X9799472Y-2830169D01*
X9793427Y-2817876D01*
X9785807Y-2806496D01*
X9776764Y-2796235D01*
X9766503Y-2787192D01*
X9755124Y-2779572D01*
X9744354Y-2774289D01*
X9741357Y-2772054D01*
X9739376Y-2768854D01*
X9738715Y-2765196D01*
X9738715Y-2438958D01*
X9738207Y-2434336D01*
X9738664Y-2430221D01*
X9740646Y-2426614D01*
X9743948Y-2424125D01*
X9747961Y-2423109D01*
X9752076Y-2423820D01*
X9755530Y-2426106D01*
X9965994Y-2636621D01*
X9968230Y-2639923D01*
X9968992Y-2643784D01*
X9968992Y-3833114D01*
X9968230Y-3836974D01*
X9965994Y-3840276D01*
X9491827Y-4314444D01*
X9488525Y-4316679D01*
X9484664Y-4317441D01*
G37*

%LPC*%
G36*
X8575497Y-4193895D02*
G01*
X8575497Y-4146550D01*
X8528202Y-4146550D01*
X8528862Y-4148124D01*
X8535822Y-4159859D01*
X8544255Y-4170578D01*
X8554059Y-4180078D01*
X8565032Y-4188155D01*
G37*
G36*
X8664397Y-4193743D02*
G01*
X8669020Y-4191609D01*
X8680500Y-4184294D01*
X8690914Y-4175506D01*
X8700109Y-4165346D01*
X8707780Y-4154119D01*
X8711641Y-4146550D01*
X8664397Y-4146550D01*
G37*
G36*
X9791700Y-3734308D02*
G01*
X9807092Y-3733342D01*
X9822230Y-3730599D01*
X9836912Y-3726027D01*
X9850932Y-3719677D01*
X9864140Y-3711701D01*
X9876231Y-3702202D01*
X9887102Y-3691331D01*
X9896602Y-3679240D01*
X9904577Y-3666032D01*
X9910927Y-3652012D01*
X9915499Y-3637330D01*
X9918242Y-3622192D01*
X9919208Y-3606800D01*
X9918242Y-3591407D01*
X9915499Y-3576269D01*
X9910927Y-3561587D01*
X9904577Y-3547567D01*
X9896602Y-3534359D01*
X9887102Y-3522268D01*
X9876231Y-3511397D01*
X9864140Y-3501898D01*
X9850932Y-3493922D01*
X9836912Y-3487572D01*
X9822230Y-3483000D01*
X9807092Y-3480257D01*
X9791700Y-3479292D01*
X9776307Y-3480257D01*
X9761169Y-3483000D01*
X9746488Y-3487572D01*
X9732467Y-3493922D01*
X9719259Y-3501898D01*
X9707168Y-3511397D01*
X9696297Y-3522268D01*
X9686798Y-3534359D01*
X9678822Y-3547567D01*
X9672472Y-3561587D01*
X9667900Y-3576269D01*
X9665157Y-3591407D01*
X9664192Y-3606800D01*
X9665157Y-3622192D01*
X9667900Y-3637330D01*
X9672472Y-3652012D01*
X9678822Y-3666032D01*
X9686798Y-3679240D01*
X9696297Y-3691331D01*
X9707168Y-3702202D01*
X9719259Y-3711701D01*
X9732467Y-3719677D01*
X9746488Y-3726027D01*
X9761169Y-3730599D01*
X9776307Y-3733342D01*
G37*
G36*
X9410598Y-3442106D02*
G01*
X9424212Y-3441700D01*
X9437674Y-3439414D01*
X9450679Y-3435350D01*
X9463074Y-3429609D01*
X9474555Y-3422294D01*
X9484969Y-3413506D01*
X9494113Y-3403346D01*
X9501835Y-3392119D01*
X9507982Y-3379978D01*
X9512452Y-3367074D01*
X9515195Y-3353714D01*
X9516110Y-3340100D01*
X9515195Y-3326485D01*
X9512452Y-3313125D01*
X9507982Y-3300272D01*
X9501835Y-3288080D01*
X9494113Y-3276854D01*
X9484969Y-3266744D01*
X9474555Y-3257905D01*
X9463074Y-3250590D01*
X9450679Y-3244850D01*
X9437674Y-3240786D01*
X9424212Y-3238550D01*
X9410598Y-3238093D01*
X9397034Y-3239414D01*
X9383776Y-3242614D01*
X9371025Y-3247491D01*
X9359087Y-3254044D01*
X9348114Y-3262122D01*
X9338310Y-3271621D01*
X9329826Y-3282340D01*
X9322917Y-3294075D01*
X9317583Y-3306622D01*
X9313976Y-3319779D01*
X9312148Y-3333292D01*
X9312148Y-3346907D01*
X9313976Y-3360420D01*
X9317583Y-3373577D01*
X9322917Y-3386124D01*
X9329826Y-3397859D01*
X9338310Y-3408578D01*
X9348114Y-3418078D01*
X9359087Y-3426155D01*
X9371025Y-3432708D01*
X9383776Y-3437585D01*
X9397034Y-3440785D01*
G37*
G36*
X9624618Y-3228848D02*
G01*
X9657080Y-3228848D01*
X9657080Y-3169920D01*
X9598152Y-3169920D01*
X9598152Y-3202381D01*
X9598863Y-3208680D01*
X9600793Y-3214166D01*
X9603841Y-3219043D01*
X9607956Y-3223158D01*
X9612833Y-3226206D01*
X9618319Y-3228136D01*
G37*
G36*
X9748520Y-3228848D02*
G01*
X9780981Y-3228848D01*
X9787280Y-3228136D01*
X9792766Y-3226206D01*
X9797643Y-3223158D01*
X9801758Y-3219043D01*
X9804806Y-3214166D01*
X9806736Y-3208680D01*
X9807448Y-3202381D01*
X9807448Y-3169920D01*
X9748520Y-3169920D01*
G37*
G36*
X9748520Y-3078480D02*
G01*
X9807448Y-3078480D01*
X9807448Y-3046018D01*
X9806736Y-3039719D01*
X9804806Y-3034233D01*
X9801758Y-3029356D01*
X9797643Y-3025241D01*
X9792766Y-3022193D01*
X9787280Y-3020263D01*
X9780981Y-3019552D01*
X9748520Y-3019552D01*
G37*
G36*
X9598152Y-3078480D02*
G01*
X9657080Y-3078480D01*
X9657080Y-3019552D01*
X9624618Y-3019552D01*
X9618319Y-3020263D01*
X9612833Y-3022193D01*
X9607956Y-3025241D01*
X9603841Y-3029356D01*
X9600793Y-3034233D01*
X9598863Y-3039719D01*
X9598152Y-3046018D01*
G37*

%LPD*%
D10*
X9414002Y-3086046D02*
G01*
X9448800Y-3086046D01*
X9588500Y-2946346D01*
X9588500Y-2565346D01*
X9474200Y-2451046D01*
X9295129Y-2451046D01*
X9041129Y-2705046D01*
X6705600Y-2705046D01*
X6604000Y-2603446D01*
X6604000Y-2476446D01*
X6692900Y-2387546D01*
X6692900Y-1367482D01*
X6568186Y-1242768D01*
D11*
X2959100Y-190497D02*
G01*
X3111553Y-38044D01*
X5054600Y-38044D01*
X5245100Y-228544D01*
D10*
X2946400Y-790394D02*
G01*
X3210052Y-1054046D01*
X4508500Y-1054046D01*
X4851400Y-1396946D01*
X4851400Y-1895040D01*
X5105400Y-2149040D01*
X5105400Y-2412946D01*
X4965700Y-2552646D01*
X4965700Y-2666946D01*
X2692400Y-790394D02*
G01*
X3057652Y-1155646D01*
X4356100Y-1155646D01*
X4597400Y-1396946D01*
X4597400Y-1916122D01*
X4851400Y-2170122D01*
X4851400Y-2679646D01*
X4838700Y-2679646D01*
X6568180Y-1525214D02*
G01*
X6568180Y-2016960D01*
X6438900Y-2146244D01*
X6438900Y-2654244D01*
X6629453Y-2844797D01*
X7302500Y-2844797D01*
X4838700Y-4017972D02*
G01*
X4838700Y-3860746D01*
X5537200Y-3162246D01*
X7035800Y-3162246D01*
X7721600Y-3848046D01*
D11*
X5552186Y-509216D02*
G01*
X5552186Y-457908D01*
X5768847Y-241246D01*
X6781800Y-241246D01*
X6946900Y-406346D01*
X6946900Y-634946D01*
X7061200Y-749246D01*
D10*
X2197100Y-190497D02*
G01*
X2197100Y-549094D01*
X2438400Y-790394D01*
X1689100Y-190497D02*
G01*
X1689100Y-393644D01*
X1930400Y-634944D01*
X1930400Y-790394D01*
X2184400Y-790394D02*
G01*
X2184400Y-673044D01*
X1943100Y-431744D01*
X1943100Y-190497D01*
X2184400Y-790394D02*
G01*
X2212847Y-790394D01*
X3073400Y-1650946D01*
X3073400Y-1930346D01*
X3327400Y-2184346D01*
X3327400Y-2324046D01*
X3429000Y-2425646D01*
X4330700Y-2425646D01*
X4457700Y-2552646D01*
X4457700Y-2692346D01*
X1930400Y-761946D02*
G01*
X2819400Y-1650946D01*
X2819400Y-1923488D01*
X3073400Y-2177488D01*
X3073400Y-2324046D01*
X3251200Y-2501846D01*
X4279900Y-2501846D01*
X4330700Y-2552646D01*
X4330700Y-2679646D01*
D11*
X2946400Y-2298644D02*
G01*
X2705100Y-2057344D01*
X2705100Y-1714497D01*
X5245100Y-228546D02*
G01*
X5257800Y-228546D01*
X5397500Y-368246D01*
X5397500Y-1142946D01*
X5270500Y-1269946D01*
D10*
X4991100Y-1714497D02*
G01*
X4991100Y-1866844D01*
X5232400Y-2108144D01*
X5232400Y-2285944D01*
X4711700Y-2705046D02*
G01*
X4711700Y-2552646D01*
X4597400Y-2438346D01*
X4597400Y-2184346D01*
X4356100Y-1943046D01*
X4356100Y-1396946D01*
X4229100Y-1269946D01*
X2917952Y-1269946D01*
X2438400Y-790394D01*
X4584700Y-2692344D02*
G01*
X4584700Y-2578044D01*
X4343400Y-2336744D01*
X4343400Y-2187140D01*
X4076700Y-1920440D01*
X4076700Y-1346197D01*
X3962400Y-2314394D02*
G01*
X3962400Y-2235144D01*
X3721100Y-1993844D01*
X3721100Y-1714497D01*
X3975100Y-1714497D02*
G01*
X3975100Y-1981144D01*
X4216400Y-2222444D01*
X4216400Y-2314394D01*
D11*
X5270500Y-1524002D02*
G01*
X5552186Y-1525216D01*
X5552186Y-480768D02*
G01*
X5560568Y-480768D01*
X5689600Y-609546D01*
X5689600Y-1387802D01*
X5552186Y-1525216D01*
D10*
X4330700Y-4178246D02*
G01*
X4267200Y-4241746D01*
X4140200Y-4241746D01*
X4038600Y-4140146D01*
X4038600Y-3822646D01*
X3454400Y-3238446D01*
X901700Y-3238446D01*
X38100Y-2374846D01*
X38100Y-1130246D01*
X406400Y-761946D01*
X1943100Y-1714497D02*
G01*
X1943100Y-1904944D01*
X2184400Y-2146244D01*
X2184400Y-2314394D01*
X2451100Y-1714497D02*
G01*
X2451100Y-1904944D01*
X2692400Y-2146244D01*
X2692400Y-2285944D01*
X2438400Y-2314394D02*
G01*
X2438400Y-2158944D01*
X2197100Y-1917644D01*
X2197100Y-1714497D01*
X1930400Y-2314394D02*
G01*
X1930400Y-2146244D01*
X1689100Y-1904944D01*
X1689100Y-1714497D01*
X1435100Y-1714497D02*
G01*
X1435100Y-1892244D01*
X1676400Y-2133544D01*
X1676400Y-2314394D01*
X1181100Y-1714497D02*
G01*
X1181100Y-1930344D01*
X1422400Y-2171644D01*
X1422400Y-2314394D01*
X1168400Y-2314394D02*
G01*
X1168400Y-2158944D01*
X927100Y-1917644D01*
X927100Y-1714497D01*
X3467100Y-1714497D02*
G01*
X3467100Y-1930344D01*
X3708400Y-2171644D01*
X3708400Y-2314394D01*
X5232400Y-2285946D02*
G01*
X5372100Y-2146246D01*
X5600700Y-2146246D01*
X5930900Y-1816046D01*
X5930900Y-1371546D01*
X6057900Y-1244546D01*
X673100Y-1714497D02*
G01*
X673100Y-2073094D01*
X914400Y-2314394D01*
X660400Y-2314394D02*
G01*
X419100Y-2073094D01*
X419100Y-1714497D01*
X165100Y-1714497D02*
G01*
X165100Y-2073094D01*
X406400Y-2314394D01*
X165100Y-190497D02*
G01*
X165100Y-549094D01*
X406400Y-790394D01*
X660400Y-790394D02*
G01*
X419100Y-549094D01*
X419100Y-190497D01*
X673100Y-190497D02*
G01*
X673100Y-549094D01*
X914400Y-790394D01*
X1168400Y-790394D02*
G01*
X927100Y-549094D01*
X927100Y-190497D01*
X1181100Y-190497D02*
G01*
X1181100Y-549094D01*
X1422400Y-790394D01*
X1676400Y-790394D02*
G01*
X1435100Y-549094D01*
X1435100Y-190497D01*
X2692400Y-790394D02*
G01*
X2451100Y-549094D01*
X2451100Y-190497D01*
X2705100Y-190497D02*
G01*
X2705100Y-549094D01*
X2946400Y-790394D01*
D11*
X3200400Y-790394D02*
G01*
X2959100Y-549094D01*
X2959100Y-190497D01*
D10*
X3213100Y-190497D02*
G01*
X3213100Y-549094D01*
X3454400Y-790394D01*
X3708400Y-790394D02*
G01*
X3467100Y-549094D01*
X3467100Y-190497D01*
X3721100Y-190497D02*
G01*
X3721100Y-549094D01*
X3962400Y-790394D01*
X4229100Y-190497D02*
G01*
X4229100Y-549094D01*
X4470400Y-790394D01*
X4737100Y-190497D02*
G01*
X4737100Y-549094D01*
X4978400Y-790394D01*
X5232400Y-790394D02*
G01*
X4991100Y-549094D01*
X4991100Y-190497D01*
X4724400Y-790394D02*
G01*
X4483100Y-549094D01*
X4483100Y-190497D01*
X4216400Y-790394D02*
G01*
X3975100Y-549094D01*
X3975100Y-190497D01*
X5600700Y-2527300D02*
G01*
X5600700Y-2687726D01*
X5981700Y-2527300D02*
G01*
X5981700Y-2687726D01*
X5727700Y-2687774D02*
G01*
X5727700Y-2844797D01*
X4330700Y-2844800D02*
G01*
X4330700Y-2687726D01*
X4457700Y-2844800D02*
G01*
X4457700Y-2687726D01*
X4584700Y-2844800D02*
G01*
X4584700Y-2687726D01*
X4711700Y-2844800D02*
G01*
X4711700Y-2687726D01*
X4838700Y-2844800D02*
G01*
X4838700Y-2687726D01*
X4965700Y-2844800D02*
G01*
X4965700Y-2687726D01*
X5219700Y-2844800D02*
G01*
X5219700Y-2687726D01*
X5346700Y-2844800D02*
G01*
X5346700Y-2687726D01*
X5219700Y-3860800D02*
G01*
X5219700Y-4017873D01*
X5092700Y-3860800D02*
G01*
X5092700Y-4017873D01*
X4965700Y-3860800D02*
G01*
X4965700Y-4017873D01*
X4330700Y-4017975D02*
G01*
X4330700Y-4178297D01*
X4584700Y-4178246D02*
G01*
X4584700Y-4017873D01*
X4457700Y-4178300D02*
G01*
X4457700Y-4017873D01*
X4203700Y-4178300D02*
G01*
X4203700Y-4017873D01*
X5727700Y-4017972D02*
G01*
X5727700Y-4127446D01*
X5600700Y-2844800D02*
G01*
X5600700Y-2687726D01*
X5854700Y-2844797D02*
G01*
X5854700Y-2687723D01*
X6106922Y-2525468D02*
G01*
X6108700Y-2687774D01*
D11*
X2946400Y-2314394D02*
G01*
X2946400Y-2352494D01*
X3286252Y-2692346D01*
X3822700Y-2692346D01*
D10*
X7838318Y-480689D02*
G01*
X7696200Y-622807D01*
X7696200Y-685797D01*
X5727700Y-3860746D02*
G01*
X5727700Y-4017873D01*
X5854700Y-3860746D02*
G01*
X5854700Y-4017873D01*
X5092700Y-2844800D02*
G01*
X5092700Y-2687726D01*
X4965700Y-3860746D02*
G01*
X4965700Y-3848046D01*
X5575300Y-3238446D01*
X6985000Y-3238446D01*
X7594600Y-3848046D01*
X5092700Y-3860746D02*
G01*
X5626100Y-3327346D01*
X6946900Y-3327346D01*
X7467600Y-3848046D01*
X5219700Y-3860746D02*
G01*
X5676900Y-3403546D01*
X6896100Y-3403546D01*
X7340600Y-3848046D01*
X5346700Y-4017972D02*
G01*
X5346700Y-3873446D01*
X5740400Y-3479746D01*
X6845300Y-3479746D01*
X7213600Y-3848046D01*
X5473700Y-4017972D02*
G01*
X5473700Y-3873446D01*
X5791200Y-3555946D01*
X6794500Y-3555946D01*
X7086600Y-3848046D01*
X5600700Y-4017972D02*
G01*
X5600700Y-3860746D01*
X5829300Y-3632146D01*
X6743700Y-3632146D01*
X6959600Y-3848046D01*
X5727700Y-3860746D02*
G01*
X5740400Y-3860746D01*
X5892800Y-3708346D01*
X6692900Y-3708346D01*
X6832600Y-3848046D01*
X5981700Y-4017972D02*
G01*
X5981700Y-3860746D01*
X6578600Y-3860746D01*
X6578600Y-3848046D01*
X5854700Y-3860746D02*
G01*
X5930900Y-3784546D01*
X6642100Y-3784546D01*
X6705600Y-3848046D01*
X4203700Y-4017972D02*
G01*
X4203700Y-3797246D01*
X3543300Y-3136846D01*
X1130300Y-3136846D01*
X406400Y-2412946D01*
X406400Y-2314394D01*
X4711700Y-4017975D02*
G01*
X4749800Y-4056075D01*
X4749800Y-4152897D01*
X914400Y-2314394D02*
G01*
X914400Y-2527754D01*
X1422400Y-3035246D01*
X3629659Y-3035246D01*
X4013200Y-3403546D01*
X4229100Y-3403546D01*
X4711700Y-3886146D01*
X4711700Y-4017972D01*
D11*
X3822700Y-2692346D02*
G01*
X4203700Y-2692346D01*
X4203700Y-2687774D01*
X6388100Y-4013200D02*
G01*
X6388100Y-4025900D01*
X6451600Y-4089400D01*
X8607300Y-4089400D01*
X8619997Y-4102097D01*
X6108700Y-4017972D02*
G01*
X6108700Y-4013146D01*
X6388100Y-4013146D01*
X8890000Y-2057346D02*
G01*
X8890000Y-2095446D01*
X9105900Y-2311346D01*
X9414002Y-2311346D01*
D10*
X5600700Y-2527246D02*
G01*
X5842000Y-2527246D01*
X5956300Y-2412946D01*
X6121400Y-2412946D01*
X6184900Y-2349446D01*
X6184900Y-2222446D01*
X6438900Y-1968446D01*
X6438900Y-1367482D01*
X6314186Y-1242768D01*
X6822180Y-1242771D02*
G01*
X6830565Y-1242771D01*
X6946900Y-1359103D01*
X6946900Y-2336797D01*
X6845300Y-2438397D01*
X7076186Y-1242768D02*
G01*
X7213600Y-1380182D01*
X7213600Y-2374846D01*
X7162800Y-2425646D01*
X7023100Y-2425646D01*
X6921500Y-2527246D01*
X6705600Y-2527246D01*
X5092700Y-2687774D02*
G01*
X5092445Y-2553154D01*
X5232654Y-2412946D01*
X5638800Y-2412946D01*
X5689600Y-2362146D01*
X5689600Y-2235146D01*
X6060186Y-1864560D01*
X6060186Y-1525216D01*
X7213600Y-3848046D02*
G01*
X7277100Y-3911546D01*
X8352027Y-3911546D01*
X8542527Y-3721046D01*
X9287002Y-3721046D01*
X9414002Y-3848046D01*
X6832600Y-3848046D02*
G01*
X6959600Y-3975046D01*
X9461500Y-3975046D01*
X9525000Y-3911546D01*
X9525000Y-3705044D01*
X9414002Y-3594046D01*
X5473700Y-2687774D02*
G01*
X5473700Y-2527246D01*
X5537200Y-2463746D01*
X5803900Y-2463746D01*
X5930900Y-2336746D01*
X5930900Y-2222446D01*
X6197600Y-1955746D01*
X6197600Y-1168346D01*
X5806186Y-776932D01*
X5806186Y-480768D01*
X6060186Y-480768D02*
G01*
X6060186Y-815032D01*
X6324600Y-1079446D01*
X7353300Y-1079446D01*
X7454900Y-1181046D01*
X7454900Y-2438346D01*
X7366000Y-2527246D01*
X7073900Y-2527246D01*
D11*
X5245100Y-241244D02*
G01*
X5385308Y-101544D01*
X7658100Y-101544D01*
X7962900Y-406344D01*
X7962900Y-850844D01*
X8494699Y-1382643D01*
X8494699Y-1676397D01*
D10*
X5727700Y-2844746D02*
G01*
X5651500Y-2920946D01*
X4203700Y-2920946D01*
X4076700Y-2793946D01*
X3200400Y-2793946D01*
X2692400Y-2285946D01*
D11*
X3822700Y-2946346D02*
G01*
X3733800Y-2857446D01*
X2425700Y-2857446D01*
X2057400Y-2489146D01*
X2057400Y-2171646D01*
X1803400Y-1917646D01*
X1803400Y-685746D01*
X1549400Y-431746D01*
X1549400Y-114246D01*
X1612900Y-50746D01*
X2819400Y-50746D01*
X2959100Y-190446D01*
D10*
X4838700Y-4017972D02*
G01*
X4838700Y-3860746D01*
X4025900Y-3047946D01*
X3771900Y-3047946D01*
X3657600Y-2933646D01*
X1625600Y-2933646D01*
X1041400Y-2349446D01*
X1041400Y-2209746D01*
X787400Y-1955746D01*
X787400Y-1612846D01*
X660400Y-1485846D01*
X914400Y-1231846D01*
X914400Y-761946D01*
X7584440Y-2287216D02*
G01*
X7760970Y-2463746D01*
X8458200Y-2463746D01*
X8582913Y-2588460D01*
X8621013Y-2588460D01*
X6108700Y-2687774D02*
G01*
X6108700Y-2857446D01*
X6210300Y-2959046D01*
X8102600Y-2959046D01*
X8229600Y-2832046D01*
X8619997Y-2832046D01*
X8619997Y-3086046D02*
G01*
X7200900Y-3086046D01*
X7137400Y-3022546D01*
X6159500Y-3022546D01*
X5981700Y-2844746D01*
X5981700Y-2687774D01*
X9414002Y-2832046D02*
G01*
X9385300Y-2832046D01*
X8763000Y-3454346D01*
X7442200Y-3454346D01*
X7073900Y-3086046D01*
X6096000Y-3086046D01*
X5854700Y-2844746D01*
X4584700Y-4178246D02*
G01*
X4622800Y-4216346D01*
X6121400Y-4216346D01*
X6172200Y-4165546D01*
X7975600Y-4165546D01*
X8229600Y-4165546D02*
G01*
X8229600Y-4178246D01*
X8089900Y-4317946D01*
X4470400Y-4317946D01*
X4330700Y-4178246D01*
D11*
X8343900Y-2311346D02*
G01*
X8483600Y-2171646D01*
X8775700Y-2171646D01*
X8890000Y-2057346D01*
X7838440Y-2286454D02*
G01*
X7838440Y-2324046D01*
X8089900Y-2324046D01*
X8089900Y-2298646D01*
X8294624Y-1676346D02*
G01*
X8294624Y-1436824D01*
X7607300Y-749246D01*
X7061200Y-749246D01*
D10*
X6299200Y-749244D02*
G01*
X6781800Y-749244D01*
X6972300Y-939744D01*
X7708839Y-939744D01*
X7975600Y-1206500D01*
X7975600Y-1625605D01*
X8293039Y-1943044D01*
X8928100Y-1943044D01*
X8991600Y-2006544D01*
X8991600Y-2070044D01*
X9118600Y-2197044D01*
X9461439Y-2197044D01*
X9702800Y-2438405D01*
X9702800Y-2870197D01*
D11*
X7838440Y-2287216D02*
G01*
X7838440Y-1801060D01*
X7708900Y-1671520D01*
X7708900Y-1372054D01*
X7838440Y-1242768D01*
X8636000Y-2057346D02*
G01*
X8356600Y-2057346D01*
X8102600Y-2324097D01*
X9702800Y-3124197D02*
G01*
X9601200Y-3225797D01*
X9601200Y-4114744D01*
X9461500Y-4254444D01*
X8772400Y-4254444D01*
X8620000Y-4102044D01*
D12*
G01*
X4203700Y-4017871D03*
G01*
X4330700Y-4017871D03*
G01*
X4457700Y-4017871D03*
G01*
X4584700Y-4017871D03*
G01*
X4711700Y-4017871D03*
G01*
X4838700Y-4017871D03*
G01*
X4965700Y-4017871D03*
G01*
X5092700Y-4017871D03*
G01*
X5219700Y-4017871D03*
G01*
X5346700Y-4017871D03*
G01*
X5473700Y-4017871D03*
G01*
X5600700Y-4017871D03*
G01*
X5727700Y-4017871D03*
G01*
X5854700Y-4017871D03*
G01*
X5981700Y-4017871D03*
G01*
X6108700Y-4017871D03*
G01*
X4203700Y-2687723D03*
G01*
X4330700Y-2687723D03*
G01*
X4457700Y-2687723D03*
G01*
X4584700Y-2687723D03*
G01*
X4711700Y-2687723D03*
G01*
X4838700Y-2687723D03*
G01*
X4965700Y-2687723D03*
G01*
X5092700Y-2687723D03*
G01*
X5219700Y-2687723D03*
G01*
X5346700Y-2687723D03*
G01*
X5473700Y-2687723D03*
G01*
X5600700Y-2687723D03*
G01*
X5727700Y-2687723D03*
G01*
X5854700Y-2687723D03*
G01*
X5981700Y-2687723D03*
G01*
X6108700Y-2687723D03*
D13*
G01*
X406400Y-2285997D03*
G01*
X660400Y-2285997D03*
G01*
X914400Y-2285997D03*
G01*
X1168400Y-2285997D03*
G01*
X1422400Y-2285997D03*
G01*
X2692400Y-2285997D03*
G01*
X2438400Y-2285997D03*
G01*
X2184400Y-2285997D03*
G01*
X1930400Y-2285997D03*
G01*
X1676400Y-2285997D03*
G01*
X3962400Y-2285997D03*
G01*
X3708400Y-2285997D03*
G01*
X3454400Y-2285997D03*
G01*
X3200400Y-2285997D03*
G01*
X2946400Y-2285997D03*
G01*
X5232400Y-2285997D03*
G01*
X4978400Y-2285997D03*
G01*
X4724400Y-2285997D03*
G01*
X4470400Y-2285997D03*
G01*
X4216400Y-2285997D03*
G01*
X406400Y-761997D03*
G01*
X660400Y-761997D03*
G01*
X914400Y-761997D03*
G01*
X1168400Y-761997D03*
G01*
X1422400Y-761997D03*
G01*
X2692400Y-761997D03*
G01*
X2438400Y-761997D03*
G01*
X2184400Y-761997D03*
G01*
X1930400Y-761997D03*
G01*
X1676400Y-761997D03*
G01*
X3962400Y-761997D03*
G01*
X3708400Y-761997D03*
G01*
X3454400Y-761997D03*
G01*
X3200400Y-761997D03*
G01*
X2946400Y-761997D03*
G01*
X5232400Y-761997D03*
G01*
X4978400Y-761997D03*
G01*
X4724400Y-761997D03*
G01*
X4470400Y-761997D03*
G01*
X4216400Y-761997D03*
D14*
G01*
X660400Y-1308097D03*
G01*
X1422400Y-1308097D03*
G01*
X6299200Y-749297D03*
G01*
X7061200Y-749297D03*
D15*
G01*
X9702800Y-3124197D03*
D16*
G01*
X9702800Y-2870197D03*
D17*
G01*
X8294700Y-1650997D03*
G01*
X8494699Y-1650997D03*
D19*
G01*
X660400Y-1485897D03*
D20*
G01*
X8102600Y-2324097D03*
G01*
X8356600Y-2324097D03*
G01*
X3822700Y-2946397D03*
G01*
X3822700Y-2692397D03*
G01*
X8636000Y-2057397D03*
G01*
X8890000Y-2057397D03*
D21*
G01*
X8619997Y-2324097D03*
D13*
G01*
X8619997Y-2578097D03*
G01*
X8619997Y-3848097D03*
G01*
X8619997Y-4102097D03*
G01*
X8619997Y-2832097D03*
G01*
X8619997Y-3086097D03*
G01*
X8619997Y-3594097D03*
G01*
X8619997Y-3340097D03*
G01*
X9414002Y-4102097D03*
G01*
X9414002Y-3848097D03*
G01*
X9414002Y-3594097D03*
G01*
X9414002Y-3340097D03*
G01*
X9414002Y-3086097D03*
G01*
X9414002Y-2832097D03*
G01*
X9414002Y-2578097D03*
G01*
X9414002Y-2324097D03*
G01*
X152400Y-1714497D03*
G01*
X406400Y-1714497D03*
G01*
X660400Y-1714497D03*
G01*
X914400Y-1714497D03*
G01*
X1168400Y-1714497D03*
G01*
X1422400Y-1714497D03*
G01*
X1676400Y-1714497D03*
G01*
X1930400Y-1714497D03*
G01*
X2184400Y-1714497D03*
G01*
X2438400Y-1714497D03*
G01*
X2692400Y-1714497D03*
G01*
X2946400Y-1714497D03*
G01*
X3200400Y-1714497D03*
G01*
X3454400Y-1714497D03*
G01*
X3708400Y-1714497D03*
G01*
X3962400Y-1714497D03*
G01*
X4216400Y-1714497D03*
G01*
X4470400Y-1714497D03*
G01*
X4724400Y-1714497D03*
G01*
X4978400Y-1714497D03*
G01*
X4978400Y-190497D03*
G01*
X4724400Y-190497D03*
G01*
X4470400Y-190497D03*
G01*
X4216400Y-190497D03*
G01*
X3962400Y-190497D03*
G01*
X3708400Y-190497D03*
G01*
X3454400Y-190497D03*
G01*
X3200400Y-190497D03*
G01*
X2946400Y-190497D03*
G01*
X2692400Y-190497D03*
G01*
X2438400Y-190497D03*
G01*
X2184400Y-190497D03*
G01*
X1930400Y-190497D03*
G01*
X1676400Y-190497D03*
G01*
X1422400Y-190497D03*
G01*
X1168400Y-190497D03*
G01*
X914400Y-190497D03*
G01*
X660400Y-190497D03*
G01*
X406400Y-190497D03*
G01*
X152400Y-190497D03*
D22*
G01*
X7330287Y-480692D03*
G01*
X7330287Y-1242692D03*
G01*
X7076287Y-480692D03*
G01*
X7076287Y-1242692D03*
G01*
X6822287Y-480692D03*
G01*
X6822287Y-1242692D03*
G01*
X6568287Y-480692D03*
G01*
X6568287Y-1242692D03*
G01*
X6314287Y-480692D03*
G01*
X6314287Y-1242692D03*
G01*
X6060287Y-480692D03*
G01*
X6060287Y-1242692D03*
G01*
X5806287Y-480692D03*
G01*
X5806287Y-1242692D03*
G01*
X5552287Y-480692D03*
D23*
G01*
X5552287Y-1242692D03*
D22*
G01*
X7584313Y-1242692D03*
G01*
X7584313Y-480692D03*
G01*
X7838313Y-1242692D03*
G01*
X7838313Y-480692D03*
G01*
X7330287Y-1525089D03*
G01*
X7330287Y-2287089D03*
G01*
X7076287Y-1525089D03*
G01*
X7076287Y-2287089D03*
G01*
X6822287Y-1525089D03*
G01*
X6822287Y-2287089D03*
G01*
X6568287Y-1525089D03*
G01*
X6568287Y-2287089D03*
G01*
X6314287Y-1525089D03*
G01*
X6314287Y-2287089D03*
G01*
X6060287Y-1525089D03*
G01*
X6060287Y-2287089D03*
G01*
X5806287Y-1525089D03*
G01*
X5806287Y-2287089D03*
G01*
X5552287Y-1525089D03*
D23*
G01*
X5552287Y-2287089D03*
D22*
G01*
X7584313Y-2287089D03*
G01*
X7584313Y-1525089D03*
G01*
X7838313Y-2287089D03*
G01*
X7838313Y-1525089D03*
D20*
G01*
X5270500Y-1269997D03*
G01*
X5270500Y-1523997D03*
G01*
X5245100Y-228597D03*
G01*
X5245100Y-482597D03*
D24*
G01*
X4076700Y-1346197D03*
G01*
X5981700Y-2527297D03*
G01*
X5854700Y-2844797D03*
G01*
X5600700Y-2527297D03*
G01*
X5727700Y-2844797D03*
G01*
X5600700Y-2844797D03*
G01*
X5346700Y-2844797D03*
G01*
X5219700Y-2844797D03*
G01*
X4965700Y-2844797D03*
G01*
X4838700Y-2844797D03*
G01*
X4711700Y-2844797D03*
G01*
X4584700Y-2844797D03*
G01*
X4457700Y-2844797D03*
G01*
X4330700Y-2844797D03*
G01*
X5854700Y-3860746D03*
G01*
X5727700Y-3860746D03*
G01*
X5219700Y-3860797D03*
G01*
X5092700Y-3860797D03*
G01*
X4965700Y-3860797D03*
G01*
X4457700Y-4178297D03*
G01*
X4584700Y-4178246D03*
G01*
X4330700Y-4178297D03*
G01*
X4203700Y-4178297D03*
G01*
X5981700Y-3860797D03*
G01*
X6578600Y-3848097D03*
G01*
X6388100Y-4013197D03*
G01*
X6705600Y-3848046D03*
G01*
X6832600Y-3848097D03*
G01*
X6959600Y-3848097D03*
G01*
X7086600Y-3848097D03*
G01*
X7213600Y-3848097D03*
G01*
X7340600Y-3848097D03*
G01*
X7467600Y-3848097D03*
G01*
X7594600Y-3848097D03*
G01*
X7721600Y-3848097D03*
G01*
X8229600Y-4178297D03*
G01*
X7975600Y-4178297D03*
G01*
X5092700Y-2844797D03*
G01*
X7302500Y-2844797D03*
G01*
X6845300Y-2438397D03*
G01*
X7073900Y-2527297D03*
G01*
X6705600Y-2527297D03*
G01*
X6106845Y-2525392D03*
G01*
X7696200Y-685797D03*
G01*
X4749800Y-4152897D03*
M02*
